STARTFONT 2.1
FONT -FontForge-Inconsolata LGC-Bold-R-Normal--24-240-75-75-M-140-ISO10646-1
SIZE 24 75 75
FONTBOUNDINGBOX 18 31 -3 -6
COMMENT "Generated by fontforge, http://fontforge.sourceforge.net"
COMMENT "Original Roman version created by Raph Levien using his own tools and FontForge. Copyright 2006 Raph Levien. Hellenisation of the Roman font, by Dimosthenis Kaponis, using FontForge. Hellenic glyphs Copyright 2010-2012 Dimosthenis Kaponis. Released under the SIL Open Font License, http://scripts.sil.org/OFL."
COMMENT ""
COMMENT "Cyrillic glyphs added by MihailJP, using FontForge. Cyrillic glyphs Copyright 2012 MihailJP. Released under the SIL Open Font License, http://scripts.sil.org/OFL."
COMMENT ""
COMMENT "Emboldened by MihailJP."
COMMENT ""
COMMENT "Some glyphs modified by Greg Omelaenko, using FontForge."
STARTPROPERTIES 40
FOUNDRY "FontForge"
FAMILY_NAME "Inconsolata LGC"
WEIGHT_NAME "Bold"
SLANT "R"
SETWIDTH_NAME "Normal"
ADD_STYLE_NAME ""
PIXEL_SIZE 24
POINT_SIZE 240
RESOLUTION_X 75
RESOLUTION_Y 75
SPACING "M"
AVERAGE_WIDTH 140
CHARSET_REGISTRY "ISO10646"
CHARSET_ENCODING "1"
FONTNAME_REGISTRY ""
CHARSET_COLLECTIONS "ASCII ISOLatin1Encoding ISO8859-2 ISO8859-5 ISO8859-7 ISO8859-9 ISO8859-4 ISO10646-1"
FONT_NAME "InconsolataLGC-Bold"
FACE_NAME "Inconsolata LGC Bold"
COPYRIGHT "Original Roman version created by Raph Levien using his own tools and FontForge. Copyright 2006 Raph Levien. Hellenisation of the Roman font, by Dimosthenis Kaponis, using FontForge. Hellenic glyphs Copyright 2010-2012 Dimosthenis Kaponis. Released under the SIL Open Font License, http://scripts.sil.org/OFL."
FONT_VERSION "1.2"
FONT_ASCENT 20
FONT_DESCENT 4
UNDERLINE_POSITION -4
UNDERLINE_THICKNESS 2
X_HEIGHT 12
CAP_HEIGHT 17
RAW_ASCENT 820
RAW_DESCENT 179
NORM_SPACE 14
RELATIVE_WEIGHT 70
RELATIVE_SETWIDTH 50
SUPERSCRIPT_X 0
SUPERSCRIPT_Y 11
SUPERSCRIPT_SIZE 16
SUBSCRIPT_X 0
SUBSCRIPT_Y 3
SUBSCRIPT_SIZE 16
FIGURE_WIDTH 14
AVG_LOWERCASE_WIDTH 140
AVG_UPPERCASE_WIDTH 140

STARTCHAR space
ENCODING 32
SWIDTH 598 0
DWIDTH 14 0
BBX 1 1 0 0
BITMAP
00
ENDCHAR
STARTCHAR exclam
ENCODING 33
SWIDTH 598 0
DWIDTH 14 0
BBX 4 18 5 0
BITMAP
60
F0
F0
F0
F0
E0
E0
60
60
60
60
60
00
00
60
F0
F0
60
ENDCHAR
STARTCHAR quotedbl
ENCODING 34
SWIDTH 598 0
DWIDTH 14 0
BBX 7 7 4 11
BITMAP
C6
C6
C6
C6
C6
C6
C6
ENDCHAR
STARTCHAR numbersign
ENCODING 35
SWIDTH 598 0
DWIDTH 14 0
BBX 13 18 1 0
BITMAP
0CE0
0CE0
1CE0
1CE0
1CC0
FFF8
FFF8
18C0
19C0
19C0
19C0
FFF0
FFF0
3980
3180
3180
3180
3380
ENDCHAR
STARTCHAR dollar
ENCODING 36
SWIDTH 598 0
DWIDTH 14 0
BBX 12 20 1 -2
BITMAP
0700
0700
0FC0
3FE0
7770
7720
7700
7F00
3F00
1FC0
07E0
07F0
0730
0730
6730
F770
7FE0
1F80
0700
0700
ENDCHAR
STARTCHAR percent
ENCODING 37
SWIDTH 598 0
DWIDTH 14 0
BBX 13 18 1 0
BITMAP
7830
FC70
CCE0
CEE0
CDC0
FDC0
7B80
0300
0700
0600
0EE0
1DF0
1FB8
3B18
3318
73B8
61F0
E0E0
ENDCHAR
STARTCHAR ampersand
ENCODING 38
SWIDTH 598 0
DWIDTH 14 0
BBX 13 18 1 0
BITMAP
1F00
3F80
3B80
71C0
71C0
3180
3B80
1F00
3E00
7F20
7738
E3B8
E1F0
E0E0
E1E0
FFF0
7FB8
3E30
ENDCHAR
STARTCHAR quotesingle
ENCODING 39
SWIDTH 598 0
DWIDTH 14 0
BBX 3 7 6 11
BITMAP
60
E0
E0
E0
E0
E0
E0
ENDCHAR
STARTCHAR parenleft
ENCODING 40
SWIDTH 598 0
DWIDTH 14 0
BBX 8 23 4 -5
BITMAP
03
07
1F
3C
38
70
70
E0
E0
E0
C0
C0
C0
E0
E0
E0
70
70
38
3C
1E
0F
07
ENDCHAR
STARTCHAR parenright
ENCODING 41
SWIDTH 598 0
DWIDTH 14 0
BBX 9 24 2 -6
BITMAP
4000
E000
F800
3C00
1C00
0E00
0700
0700
0700
0380
0380
0380
0380
0380
0300
0700
0700
0E00
1E00
3C00
7800
F000
E000
8000
ENDCHAR
STARTCHAR asterisk
ENCODING 42
SWIDTH 598 0
DWIDTH 14 0
BBX 12 11 1 3
BITMAP
0700
0700
4610
F670
FFF0
1F80
0F00
1F80
39C0
70E0
3040
ENDCHAR
STARTCHAR plus
ENCODING 43
SWIDTH 598 0
DWIDTH 14 0
BBX 12 12 1 2
BITMAP
0700
0700
0700
0700
FFF0
FFF0
0700
0700
0700
0700
0700
0700
ENDCHAR
STARTCHAR comma
ENCODING 44
SWIDTH 598 0
DWIDTH 14 0
BBX 4 8 5 -5
BITMAP
60
F0
F0
F0
70
60
C0
80
ENDCHAR
STARTCHAR hyphen
ENCODING 45
SWIDTH 598 0
DWIDTH 14 0
BBX 11 3 2 8
BITMAP
FFE0
FFE0
FFE0
ENDCHAR
STARTCHAR period
ENCODING 46
SWIDTH 598 0
DWIDTH 14 0
BBX 4 4 5 -1
BITMAP
60
F0
F0
60
ENDCHAR
STARTCHAR slash
ENCODING 47
SWIDTH 598 0
DWIDTH 14 0
BBX 11 20 2 -2
BITMAP
00C0
00E0
01C0
01C0
0380
0380
0700
0700
0E00
0E00
0C00
1C00
1800
3800
3000
7000
6000
E000
E000
4000
ENDCHAR
STARTCHAR zero
ENCODING 48
SWIDTH 598 0
DWIDTH 14 0
BBX 12 18 1 0
BITMAP
0F00
1F80
3DC0
70E0
70E0
60F0
E1F0
E3B0
E730
E630
EC70
F870
7870
7060
78E0
3FC0
1FC0
0F00
ENDCHAR
STARTCHAR one
ENCODING 49
SWIDTH 598 0
DWIDTH 14 0
BBX 7 18 2 0
BITMAP
0E
3E
FE
6E
0E
0E
0E
0E
0E
0E
0E
0E
0E
0E
0E
0E
0E
0E
ENDCHAR
STARTCHAR two
ENCODING 50
SWIDTH 598 0
DWIDTH 14 0
BBX 11 18 2 0
BITMAP
1F00
7F80
F7C0
E1C0
40E0
00E0
00C0
01C0
03C0
0780
0F00
1E00
3C00
3800
7000
E020
FFE0
FFE0
ENDCHAR
STARTCHAR three
ENCODING 51
SWIDTH 598 0
DWIDTH 14 0
BBX 10 18 2 0
BITMAP
3E00
7F80
F780
41C0
01C0
01C0
01C0
0380
1F00
1F80
03C0
00C0
00C0
00C0
41C0
F7C0
FF80
3E00
ENDCHAR
STARTCHAR four
ENCODING 52
SWIDTH 598 0
DWIDTH 14 0
BBX 12 18 1 0
BITMAP
01C0
01C0
03C0
07C0
07C0
0FC0
0DC0
19C0
39C0
31C0
61C0
FFF0
FFF0
01C0
01C0
01C0
01C0
01C0
ENDCHAR
STARTCHAR five
ENCODING 53
SWIDTH 598 0
DWIDTH 14 0
BBX 11 18 2 0
BITMAP
7FC0
7FC0
6000
6000
6000
E000
FF00
FFC0
E1C0
40E0
00E0
00E0
00E0
40E0
E1E0
F3C0
7F80
1F00
ENDCHAR
STARTCHAR six
ENCODING 54
SWIDTH 598 0
DWIDTH 14 0
BBX 11 18 2 0
BITMAP
0F80
3FC0
7FC0
7080
E000
E000
EF00
FF80
FBC0
E1C0
C0E0
C0E0
E0E0
E0E0
F1C0
7BC0
3F80
1F00
ENDCHAR
STARTCHAR seven
ENCODING 55
SWIDTH 598 0
DWIDTH 14 0
BBX 11 18 2 0
BITMAP
FFE0
FFE0
FFC0
01C0
0380
0380
0300
0700
0700
0E00
0E00
0E00
1C00
1C00
1C00
3800
3800
3800
ENDCHAR
STARTCHAR eight
ENCODING 56
SWIDTH 598 0
DWIDTH 14 0
BBX 11 18 2 0
BITMAP
1F00
3F80
7BC0
E1C0
E0C0
E1C0
71C0
3B80
3F00
7780
E1C0
E0E0
C0E0
C0E0
E0E0
FBC0
7F80
1F00
ENDCHAR
STARTCHAR nine
ENCODING 57
SWIDTH 598 0
DWIDTH 14 0
BBX 11 18 2 0
BITMAP
1E00
7F80
7F80
E1C0
E0C0
C0E0
C0E0
E0E0
F1E0
7FE0
3FE0
00E0
00C0
01C0
41C0
FF80
FF00
3E00
ENDCHAR
STARTCHAR colon
ENCODING 58
SWIDTH 598 0
DWIDTH 14 0
BBX 4 13 5 -1
BITMAP
60
F0
F0
60
00
00
00
00
00
60
F0
F0
60
ENDCHAR
STARTCHAR semicolon
ENCODING 59
SWIDTH 598 0
DWIDTH 14 0
BBX 4 17 5 -5
BITMAP
60
F0
F0
60
00
00
00
00
00
60
F0
F0
F0
70
60
C0
80
ENDCHAR
STARTCHAR less
ENCODING 60
SWIDTH 598 0
DWIDTH 14 0
BBX 12 15 1 1
BITMAP
0010
0070
01F0
07E0
1F80
7E00
F000
F000
7C00
1F00
0F80
03E0
00F0
0030
0010
ENDCHAR
STARTCHAR equal
ENCODING 61
SWIDTH 598 0
DWIDTH 14 0
BBX 12 8 1 5
BITMAP
FFF0
FFF0
0000
0000
0000
0000
FFF0
FFF0
ENDCHAR
STARTCHAR greater
ENCODING 62
SWIDTH 598 0
DWIDTH 14 0
BBX 13 15 1 1
BITMAP
8000
E000
F800
3E00
0F80
03E0
00F8
0078
01F0
07C0
1F00
7C00
F000
E000
8000
ENDCHAR
STARTCHAR question
ENCODING 63
SWIDTH 598 0
DWIDTH 14 0
BBX 11 18 2 0
BITMAP
1F00
7F80
FFC0
E1C0
40E0
00E0
01C0
03C0
0780
0700
0E00
0E00
0000
0000
0E00
0E00
0E00
0E00
ENDCHAR
STARTCHAR at
ENCODING 64
SWIDTH 598 0
DWIDTH 14 0
BBX 13 18 1 0
BITMAP
0F80
1FE0
38E0
7070
E030
E1F0
C7F8
CE38
CC38
CC38
CE78
CFF8
E7F8
6000
7000
3C60
1FF0
07C0
ENDCHAR
STARTCHAR A
ENCODING 65
SWIDTH 598 0
DWIDTH 14 0
BBX 14 19 0 -1
BITMAP
0200
0300
0300
0700
0780
0780
0FC0
0DC0
0CC0
1CE0
1860
1FF0
3FF0
3030
3038
7038
6018
E01C
E000
ENDCHAR
STARTCHAR B
ENCODING 66
SWIDTH 598 0
DWIDTH 14 0
BBX 12 18 1 0
BITMAP
FF80
FFC0
E1E0
E060
E070
E070
E0E0
FFC0
FFC0
E1E0
E070
E070
E030
E070
E070
E1F0
FFE0
FF80
ENDCHAR
STARTCHAR C
ENCODING 67
SWIDTH 598 0
DWIDTH 14 0
BBX 13 18 1 0
BITMAP
0F80
1FE0
3CF0
7078
7030
E000
E000
E000
E000
E000
E000
E000
E000
7020
7830
3CF0
1FE0
0F80
ENDCHAR
STARTCHAR D
ENCODING 68
SWIDTH 598 0
DWIDTH 14 0
BBX 12 18 1 0
BITMAP
FF00
FFC0
E3E0
E0E0
E070
E070
E070
E030
E030
E030
E030
E070
E070
E070
E0E0
E3E0
FFC0
FF00
ENDCHAR
STARTCHAR E
ENCODING 69
SWIDTH 598 0
DWIDTH 14 0
BBX 11 18 2 0
BITMAP
FFE0
FFE0
C000
C000
C000
C000
C000
C000
FF80
FF80
C000
C000
C000
C000
C000
C000
FFE0
FFE0
ENDCHAR
STARTCHAR F
ENCODING 70
SWIDTH 598 0
DWIDTH 14 0
BBX 11 18 2 0
BITMAP
FFE0
FFE0
E000
E000
E000
E000
E000
FF80
FF80
E000
E000
E000
E000
E000
E000
E000
E000
E000
ENDCHAR
STARTCHAR G
ENCODING 71
SWIDTH 598 0
DWIDTH 14 0
BBX 12 18 1 0
BITMAP
0F80
1FE0
3DF0
7070
6020
E000
E000
E000
E000
E1F0
E1F0
E030
E030
7030
7030
3CF0
1FF0
0FC0
ENDCHAR
STARTCHAR H
ENCODING 72
SWIDTH 598 0
DWIDTH 14 0
BBX 12 18 1 0
BITMAP
E070
E070
E070
E070
E070
E070
E070
E070
FFF0
FFF0
E070
E070
E070
E070
E070
E070
E070
E070
ENDCHAR
STARTCHAR I
ENCODING 73
SWIDTH 598 0
DWIDTH 14 0
BBX 10 18 2 0
BITMAP
FFC0
FFC0
0C00
0C00
0C00
0C00
0C00
0C00
0C00
0C00
0C00
0C00
0C00
0C00
0C00
0C00
FFC0
FFC0
ENDCHAR
STARTCHAR J
ENCODING 74
SWIDTH 598 0
DWIDTH 14 0
BBX 12 18 1 0
BITMAP
0FF0
0FF0
01C0
01C0
01C0
01C0
01C0
01C0
01C0
01C0
01C0
01C0
01C0
01C0
4380
F780
7F00
3E00
ENDCHAR
STARTCHAR K
ENCODING 75
SWIDTH 598 0
DWIDTH 14 0
BBX 13 18 1 0
BITMAP
E070
E0E0
E1E0
E3C0
E380
E700
EE00
FC00
FC00
FE00
E700
E700
E380
E1C0
E1E0
E0E0
E070
E078
ENDCHAR
STARTCHAR L
ENCODING 76
SWIDTH 598 0
DWIDTH 14 0
BBX 11 18 2 0
BITMAP
E000
C000
C000
C000
C000
C000
C000
C000
C000
C000
C000
C000
C000
C000
C000
C000
FFE0
FFE0
ENDCHAR
STARTCHAR M
ENCODING 77
SWIDTH 598 0
DWIDTH 14 0
BBX 12 18 1 0
BITMAP
C030
E030
E070
F070
F0F0
F8F0
F9B0
FDB0
EF30
EF30
E630
E630
E030
E030
E030
E030
E030
E030
ENDCHAR
STARTCHAR N
ENCODING 78
SWIDTH 598 0
DWIDTH 14 0
BBX 12 17 1 0
BITMAP
E070
F070
F070
F870
FC70
EC70
EE70
E670
E770
E370
E3F0
E1F0
E1F0
E0F0
E070
E070
E030
ENDCHAR
STARTCHAR O
ENCODING 79
SWIDTH 598 0
DWIDTH 14 0
BBX 13 18 1 0
BITMAP
0F80
3FC0
7FE0
70F0
E070
E030
E038
C038
C038
C038
C038
E038
E030
E070
70F0
7FE0
3FC0
0F80
ENDCHAR
STARTCHAR P
ENCODING 80
SWIDTH 598 0
DWIDTH 14 0
BBX 11 18 2 0
BITMAP
FF00
FFC0
FFE0
C0E0
C0E0
C060
C0E0
C1E0
FFC0
FF80
C000
C000
C000
C000
C000
C000
C000
C000
ENDCHAR
STARTCHAR Q
ENCODING 81
SWIDTH 598 0
DWIDTH 14 0
BBX 13 22 1 -4
BITMAP
0F80
3FC0
7FE0
70F0
E070
E030
C038
C038
C038
C038
C038
E038
E030
E070
7070
7DE0
3FC0
0F80
0700
07B0
03F0
01F0
ENDCHAR
STARTCHAR R
ENCODING 82
SWIDTH 598 0
DWIDTH 14 0
BBX 12 18 1 0
BITMAP
FF80
FFE0
FFE0
E070
E070
E070
E070
E0F0
FFE0
FFC0
E380
E380
E1C0
E1C0
E0E0
E0E0
E070
E070
ENDCHAR
STARTCHAR S
ENCODING 83
SWIDTH 598 0
DWIDTH 14 0
BBX 12 18 1 0
BITMAP
0F80
3FE0
38F0
7060
7020
7000
7800
3C00
1F80
07E0
01F0
0070
0030
4070
6070
FDF0
7FE0
1F80
ENDCHAR
STARTCHAR T
ENCODING 84
SWIDTH 598 0
DWIDTH 14 0
BBX 12 18 1 0
BITMAP
FFF0
FFF0
0600
0600
0600
0600
0600
0600
0600
0600
0600
0600
0600
0600
0600
0600
0600
0600
ENDCHAR
STARTCHAR U
ENCODING 85
SWIDTH 598 0
DWIDTH 14 0
BBX 12 18 1 0
BITMAP
E030
E030
E030
E030
E030
E030
E030
E030
E030
E030
E030
E030
E030
E070
7070
79E0
3FC0
1F80
ENDCHAR
STARTCHAR V
ENCODING 86
SWIDTH 598 0
DWIDTH 14 0
BBX 13 18 1 0
BITMAP
C038
E038
E030
6070
7070
7060
30E0
38E0
38C0
19C0
1DC0
1D80
0D80
0F80
0F00
0700
0600
0600
ENDCHAR
STARTCHAR W
ENCODING 87
SWIDTH 598 0
DWIDTH 14 0
BBX 14 18 0 0
BITMAP
E00C
610C
610C
639C
739C
7398
7398
77D8
36D8
36D8
34F8
3CF0
3C70
3C70
1870
1870
1830
1820
ENDCHAR
STARTCHAR X
ENCODING 88
SWIDTH 598 0
DWIDTH 14 0
BBX 13 18 1 0
BITMAP
E070
7070
70E0
38C0
39C0
1D80
1F80
0F00
0F00
0F00
0F80
1F80
1DC0
39C0
38E0
70E0
7070
E038
ENDCHAR
STARTCHAR Y
ENCODING 89
SWIDTH 598 0
DWIDTH 14 0
BBX 13 18 1 0
BITMAP
E038
E070
7070
7060
38E0
38C0
1DC0
1D80
0F80
0F80
0700
0700
0700
0700
0700
0700
0700
0700
ENDCHAR
STARTCHAR Z
ENCODING 90
SWIDTH 598 0
DWIDTH 14 0
BBX 12 18 1 0
BITMAP
7FF0
7FF0
0070
00E0
01C0
01C0
0380
0380
0700
0E00
0E00
1C00
1C00
3800
7000
7010
FFF0
FFF0
ENDCHAR
STARTCHAR bracketleft
ENCODING 91
SWIDTH 598 0
DWIDTH 14 0
BBX 8 20 4 -2
BITMAP
FF
FF
C0
C0
C0
C0
C0
C0
C0
C0
C0
C0
C0
C0
C0
C0
C0
C0
FF
FF
ENDCHAR
STARTCHAR backslash
ENCODING 92
SWIDTH 598 0
DWIDTH 14 0
BBX 11 20 2 -2
BITMAP
4000
E000
E000
7000
7000
3000
3800
1800
1C00
0C00
0E00
0600
0700
0700
0380
0380
01C0
01C0
00E0
0080
ENDCHAR
STARTCHAR bracketright
ENCODING 93
SWIDTH 598 0
DWIDTH 14 0
BBX 9 20 2 -2
BITMAP
FF80
FF80
0380
0380
0380
0380
0380
0380
0380
0380
0380
0380
0380
0380
0380
0380
0380
0380
FF80
FF80
ENDCHAR
STARTCHAR asciicircum
ENCODING 94
SWIDTH 598 0
DWIDTH 14 0
BBX 9 8 3 10
BITMAP
0800
1C00
3C00
3E00
6700
E700
C380
C100
ENDCHAR
STARTCHAR underscore
ENCODING 95
SWIDTH 598 0
DWIDTH 14 0
BBX 13 2 1 -3
BITMAP
FFF8
FFF8
ENDCHAR
STARTCHAR grave
ENCODING 96
SWIDTH 598 0
DWIDTH 14 0
BBX 4 10 4 8
BITMAP
80
80
C0
C0
E0
F0
70
30
30
10
ENDCHAR
STARTCHAR a
ENCODING 97
SWIDTH 598 0
DWIDTH 14 0
BBX 12 13 1 0
BITMAP
0F80
3FC0
39E0
2070
0070
0FF0
3FF0
7870
E070
E070
F1F0
7FF0
1F70
ENDCHAR
STARTCHAR b
ENCODING 98
SWIDTH 598 0
DWIDTH 14 0
BBX 11 18 2 0
BITMAP
E000
C000
C000
C000
C000
CF00
FFC0
FBC0
E0E0
C0E0
C0E0
C060
C0E0
C0E0
E0E0
FFC0
FF80
DF00
ENDCHAR
STARTCHAR c
ENCODING 99
SWIDTH 598 0
DWIDTH 14 0
BBX 12 13 1 0
BITMAP
0FC0
1FE0
3CF0
7030
7020
E000
E000
E000
7000
7820
3FF0
1FE0
0FC0
ENDCHAR
STARTCHAR d
ENCODING 100
SWIDTH 598 0
DWIDTH 14 0
BBX 12 18 1 0
BITMAP
0070
0070
0070
0070
0070
1F70
3FF0
79F0
70F0
E070
E070
E070
E070
E070
70F0
7FF0
3FF0
1F70
ENDCHAR
STARTCHAR e
ENCODING 101
SWIDTH 598 0
DWIDTH 14 0
BBX 12 13 1 0
BITMAP
0F80
3FC0
79E0
7070
E070
FFF0
FFF0
E000
E000
7000
7CF0
3FE0
0F80
ENDCHAR
STARTCHAR f
ENCODING 102
SWIDTH 598 0
DWIDTH 14 0
BBX 12 18 2 0
BITMAP
07C0
0FF0
1E70
1820
3800
3800
3800
FF80
FF80
3800
3800
3800
3800
3800
3800
3800
3800
3800
ENDCHAR
STARTCHAR g
ENCODING 103
SWIDTH 598 0
DWIDTH 14 0
BBX 13 18 1 -5
BITMAP
1F38
3FF8
71C0
60C0
60C0
60C0
7BC0
3F80
3F00
6000
7FC0
3FF0
6070
E030
E070
F0F0
7FE0
1F80
ENDCHAR
STARTCHAR h
ENCODING 104
SWIDTH 598 0
DWIDTH 14 0
BBX 11 18 2 0
BITMAP
E000
E000
E000
E000
E000
EF00
FFC0
FFC0
F0E0
E0E0
E0E0
E0E0
E0E0
E0E0
E0E0
E0E0
E0E0
E0E0
ENDCHAR
STARTCHAR i
ENCODING 105
SWIDTH 598 0
DWIDTH 14 0
BBX 9 18 3 0
BITMAP
1C00
1C00
1C00
0800
0000
FC00
FC00
1C00
1C00
1C00
1C00
1C00
1C00
1C00
1C00
1C00
FF80
FF80
ENDCHAR
STARTCHAR j
ENCODING 106
SWIDTH 598 0
DWIDTH 14 0
BBX 10 23 1 -5
BITMAP
01C0
01C0
01C0
0080
0000
3FC0
3FC0
01C0
01C0
01C0
01C0
01C0
01C0
01C0
01C0
01C0
01C0
01C0
01C0
41C0
F780
7F00
3E00
ENDCHAR
STARTCHAR k
ENCODING 107
SWIDTH 598 0
DWIDTH 14 0
BBX 12 18 2 0
BITMAP
E000
C000
C000
C000
C000
C0E0
C1C0
C380
C700
CE00
FC00
FE00
EF00
C700
C380
C1C0
C0E0
C0F0
ENDCHAR
STARTCHAR l
ENCODING 108
SWIDTH 598 0
DWIDTH 14 0
BBX 10 18 2 0
BITMAP
FE00
FE00
0E00
0E00
0E00
0E00
0E00
0E00
0E00
0E00
0E00
0E00
0E00
0E00
0E00
0E00
FFC0
FFC0
ENDCHAR
STARTCHAR m
ENCODING 109
SWIDTH 598 0
DWIDTH 14 0
BBX 13 13 1 0
BITMAP
DCF0
FFF0
E738
E738
C738
C738
C738
C738
C738
C738
C738
C738
C738
ENDCHAR
STARTCHAR n
ENCODING 110
SWIDTH 598 0
DWIDTH 14 0
BBX 11 13 2 0
BITMAP
EF00
FFC0
FFC0
F0C0
E0E0
E0E0
E0E0
E0E0
E0E0
E0E0
E0E0
E0E0
E0E0
ENDCHAR
STARTCHAR o
ENCODING 111
SWIDTH 598 0
DWIDTH 14 0
BBX 12 13 1 0
BITMAP
0F80
3FC0
7DE0
7070
E070
E030
E030
E030
E070
7070
7DE0
3FC0
0F80
ENDCHAR
STARTCHAR p
ENCODING 112
SWIDTH 598 0
DWIDTH 14 0
BBX 11 18 2 -5
BITMAP
CF00
FFC0
FBC0
E0E0
C0E0
C060
C060
C060
C0E0
E0E0
FFC0
FFC0
CF00
C000
C000
C000
C000
C000
ENDCHAR
STARTCHAR q
ENCODING 113
SWIDTH 598 0
DWIDTH 14 0
BBX 12 18 1 -5
BITMAP
1FF0
3FF0
79F0
70F0
E070
E070
E070
E070
E070
70F0
7FF0
3FF0
1F70
0070
0070
0070
0070
0070
ENDCHAR
STARTCHAR r
ENCODING 114
SWIDTH 598 0
DWIDTH 14 0
BBX 10 13 3 0
BITMAP
CF80
DFC0
FDC0
F0C0
E000
E000
C000
C000
C000
C000
C000
C000
C000
ENDCHAR
STARTCHAR s
ENCODING 115
SWIDTH 598 0
DWIDTH 14 0
BBX 12 13 1 0
BITMAP
0F80
3FE0
78F0
7060
7800
3F00
0FC0
01E0
0070
6070
F9E0
7FE0
1F80
ENDCHAR
STARTCHAR t
ENCODING 116
SWIDTH 598 0
DWIDTH 14 0
BBX 11 17 2 0
BITMAP
0C00
1C00
1C00
1C00
FFC0
FFC0
1800
1800
1800
1800
1800
1800
1800
1C00
1FE0
1FE0
0F80
ENDCHAR
STARTCHAR u
ENCODING 117
SWIDTH 598 0
DWIDTH 14 0
BBX 11 13 2 0
BITMAP
C0E0
C0E0
C0E0
C0E0
C0E0
C0E0
C0E0
C0E0
C0E0
E1E0
F3E0
7FE0
3EE0
ENDCHAR
STARTCHAR v
ENCODING 118
SWIDTH 598 0
DWIDTH 14 0
BBX 12 13 1 0
BITMAP
E030
E070
7070
7060
30E0
38E0
38C0
1DC0
1D80
0F80
0F00
0700
0600
ENDCHAR
STARTCHAR w
ENCODING 119
SWIDTH 598 0
DWIDTH 14 0
BBX 14 12 0 0
BITMAP
E01C
631C
639C
7398
7798
37D8
36D8
36D8
3CF8
3C70
1C70
1870
ENDCHAR
STARTCHAR x
ENCODING 120
SWIDTH 598 0
DWIDTH 14 0
BBX 12 13 1 0
BITMAP
E070
70E0
39C0
39C0
1F80
0F00
0700
0F80
1F80
39C0
38E0
70F0
E070
ENDCHAR
STARTCHAR y
ENCODING 121
SWIDTH 598 0
DWIDTH 14 0
BBX 13 18 0 -5
BITMAP
7018
3038
3838
3830
1C70
1C70
0C60
0EE0
06C0
07C0
07C0
0380
0380
0380
0700
6F00
FE00
3C00
ENDCHAR
STARTCHAR z
ENCODING 122
SWIDTH 598 0
DWIDTH 14 0
BBX 12 13 1 0
BITMAP
7FE0
7FE0
00E0
01C0
0380
0700
0E00
1E00
1C00
3800
7010
FFF0
FFF0
ENDCHAR
STARTCHAR braceleft
ENCODING 123
SWIDTH 598 0
DWIDTH 14 0
BBX 11 23 1 -5
BITMAP
03E0
07E0
0E00
0C00
1C00
1C00
1C00
1C00
1C00
3C00
F800
F800
1C00
1C00
1C00
1C00
1C00
1C00
1C00
1C00
0E00
0FE0
03E0
ENDCHAR
STARTCHAR bar
ENCODING 124
SWIDTH 598 0
DWIDTH 14 0
BBX 2 23 6 -5
BITMAP
C0
C0
C0
C0
C0
C0
C0
C0
C0
C0
C0
C0
C0
C0
C0
C0
C0
C0
C0
C0
C0
C0
C0
ENDCHAR
STARTCHAR braceright
ENCODING 125
SWIDTH 598 0
DWIDTH 14 0
BBX 11 23 2 -5
BITMAP
F800
FE00
0E00
0700
0700
0700
0700
0700
0700
0380
01E0
03E0
0380
0700
0700
0700
0700
0700
0700
0700
0F00
FE00
FC00
ENDCHAR
STARTCHAR asciitilde
ENCODING 126
SWIDTH 598 0
DWIDTH 14 0
BBX 13 4 1 9
BITMAP
3E10
FFF8
F7F0
03C0
ENDCHAR
STARTCHAR uni0080
ENCODING 128
SWIDTH 598 0
DWIDTH 14 0
BBX 2 15 6 -1
BITMAP
80
80
80
40
C0
C0
C0
C0
C0
C0
C0
C0
40
40
40
ENDCHAR
STARTCHAR uni0081
ENCODING 129
SWIDTH 598 0
DWIDTH 14 0
BBX 3 21 6 -3
BITMAP
40
40
40
40
40
40
40
40
E0
E0
C0
C0
E0
E0
E0
C0
C0
C0
C0
40
40
ENDCHAR
STARTCHAR uni0082
ENCODING 130
SWIDTH 598 0
DWIDTH 14 0
BBX 10 23 2 -4
BITMAP
2100
2100
2100
2100
2100
2100
E1C0
FFC0
E1C0
E1C0
E1C0
61C0
E1C0
E1C0
E1C0
7F80
7F80
7F80
7F80
7F80
7F80
7F80
0C00
ENDCHAR
STARTCHAR uni0083
ENCODING 131
SWIDTH 598 0
DWIDTH 14 0
BBX 12 12 2 0
BITMAP
E0E0
F1F0
FBE0
7FC0
3F80
1F00
3F80
7FC0
FBE0
F1F0
E0E0
4040
ENDCHAR
STARTCHAR uni008C
ENCODING 140
SWIDTH 598 0
DWIDTH 14 0
BBX 10 13 2 0
BITMAP
FFC0
FFC0
7F80
7F80
3F80
1F00
0E00
1F00
3F80
7F80
7F80
FFC0
FFC0
ENDCHAR
STARTCHAR uni008D
ENCODING 141
SWIDTH 598 0
DWIDTH 14 0
BBX 13 14 1 0
BITMAP
FE00
0400
1800
31F8
6010
C020
FE40
00C0
01F8
0000
3E00
0C00
1800
3E00
ENDCHAR
STARTCHAR uni008E
ENCODING 142
SWIDTH 598 0
DWIDTH 14 0
BBX 12 18 1 -3
BITMAP
0600
0600
0600
0600
0600
0600
0600
4600
E630
7670
3EE0
1FC0
0F80
0700
0200
0000
7FF0
7FF0
ENDCHAR
STARTCHAR uni008F
ENCODING 143
SWIDTH 598 0
DWIDTH 14 0
BBX 14 14 0 0
BITMAP
0300
0FE0
3FF0
7838
7018
639C
E78C
E78C
E78C
611C
7038
3878
1FF0
0FC0
ENDCHAR
STARTCHAR uni0090
ENCODING 144
SWIDTH 598 0
DWIDTH 14 0
BBX 10 21 2 -3
BITMAP
0780
0F80
0F00
1F00
1E00
3E00
3E00
7FC0
7FC0
FF80
0F00
0F00
0E00
1C00
1C00
1800
1000
3000
2000
4000
4000
ENDCHAR
STARTCHAR uni0091
ENCODING 145
SWIDTH 598 0
DWIDTH 14 0
BBX 9 21 3 -3
BITMAP
3C00
2200
2200
2200
2200
2A00
2A00
2A00
2A00
2A00
2A00
2A00
2A00
4B00
BD00
BF80
FE80
BF80
BD00
4300
3C00
ENDCHAR
STARTCHAR uni0092
ENCODING 146
SWIDTH 598 0
DWIDTH 14 0
BBX 14 12 0 1
BITMAP
0300
0680
04C0
0C40
0960
1120
3130
2010
6008
4108
C004
7FFC
ENDCHAR
STARTCHAR uni0096
ENCODING 150
SWIDTH 598 0
DWIDTH 14 0
BBX 14 4 0 -4
BITMAP
FFFC
FFFC
FFFC
FFFC
ENDCHAR
STARTCHAR uni0097
ENCODING 151
SWIDTH 598 0
DWIDTH 14 0
BBX 14 9 0 -4
BITMAP
FFFC
FFFC
FFFC
FFFC
FFFC
FFFC
FFFC
FFFC
FFFC
ENDCHAR
STARTCHAR uni0098
ENCODING 152
SWIDTH 598 0
DWIDTH 14 0
BBX 14 14 0 -4
BITMAP
FFFC
FFFC
FFFC
FFFC
FFFC
FFFC
FFFC
FFFC
FFFC
FFFC
FFFC
FFFC
FFFC
FFFC
ENDCHAR
STARTCHAR uni0099
ENCODING 153
SWIDTH 598 0
DWIDTH 14 0
BBX 14 18 0 -4
BITMAP
FFFC
FFFC
FFFC
FFFC
FFFC
FFFC
FFFC
FFFC
FFFC
FFFC
FFFC
FFFC
FFFC
FFFC
FFFC
FFFC
FFFC
FFFC
ENDCHAR
STARTCHAR uni009A
ENCODING 154
SWIDTH 598 0
DWIDTH 14 0
BBX 14 23 0 -4
BITMAP
FFFC
FFFC
FFFC
FFFC
FFFC
FFFC
FFFC
FFFC
FFFC
FFFC
FFFC
FFFC
FFFC
FFFC
FFFC
FFFC
FFFC
FFFC
FFFC
FFFC
FFFC
FFFC
FFFC
ENDCHAR
STARTCHAR nonbreakingspace
ENCODING 160
SWIDTH 598 0
DWIDTH 14 0
BBX 1 1 0 0
BITMAP
00
ENDCHAR
STARTCHAR exclamdown
ENCODING 161
SWIDTH 598 0
DWIDTH 14 0
BBX 4 19 5 0
BITMAP
40
F0
F0
F0
00
00
00
60
60
60
60
E0
E0
E0
E0
F0
F0
F0
E0
ENDCHAR
STARTCHAR cent
ENCODING 162
SWIDTH 598 0
DWIDTH 14 0
BBX 12 20 1 -2
BITMAP
0180
0180
0180
0FC0
1FE0
3BF0
7330
6320
E300
E300
E300
E700
6700
7720
3EF0
1FE0
0FC0
0600
0E00
0E00
ENDCHAR
STARTCHAR sterling
ENCODING 163
SWIDTH 598 0
DWIDTH 14 0
BBX 13 18 1 0
BITMAP
07C0
1FE0
1CE0
3840
3800
3800
3800
7F00
7F00
1800
1C00
1C00
1800
1800
3800
7FF0
FFF8
41F0
ENDCHAR
STARTCHAR currency
ENCODING 164
SWIDTH 598 0
DWIDTH 14 0
BBX 11 11 2 4
BITMAP
4040
FEE0
7FC0
7380
61C0
60C0
61C0
7380
7FC0
FEE0
4040
ENDCHAR
STARTCHAR yen
ENCODING 165
SWIDTH 598 0
DWIDTH 14 0
BBX 13 18 1 0
BITMAP
E038
E070
7060
38E0
38C0
1DC0
1D80
0F80
0F00
0700
7FE0
7FE0
0700
7FE0
7FE0
0700
0700
0700
ENDCHAR
STARTCHAR brokenbar
ENCODING 166
SWIDTH 598 0
DWIDTH 14 0
BBX 2 23 6 -5
BITMAP
C0
C0
C0
C0
C0
C0
C0
C0
C0
C0
C0
00
C0
C0
C0
C0
C0
C0
C0
C0
C0
C0
C0
ENDCHAR
STARTCHAR section
ENCODING 167
SWIDTH 598 0
DWIDTH 14 0
BBX 10 20 2 -2
BITMAP
1F00
3F80
7BC0
6180
6000
7000
3E00
7F80
E3C0
E1C0
F1C0
7FC0
3F80
0780
01C0
41C0
E1C0
FF80
7F00
0C00
ENDCHAR
STARTCHAR dieresis
ENCODING 168
SWIDTH 598 0
DWIDTH 14 0
BBX 9 4 3 14
BITMAP
E300
E780
E780
4200
ENDCHAR
STARTCHAR copyright
ENCODING 169
SWIDTH 598 0
DWIDTH 14 0
BBX 14 15 0 0
BITMAP
07C0
1FE0
3870
77D8
6FEC
7C6C
D84C
D804
DC0C
CE6C
6FEC
77D8
3838
1FF0
07C0
ENDCHAR
STARTCHAR ordfeminine
ENCODING 170
SWIDTH 598 0
DWIDTH 14 0
BBX 10 14 2 4
BITMAP
1F00
3F80
3380
0180
1F80
7F80
7180
6180
7380
7F80
3F80
0000
FFC0
FFC0
ENDCHAR
STARTCHAR guillemotleft
ENCODING 171
SWIDTH 598 0
DWIDTH 14 0
BBX 11 10 2 1
BITMAP
18C0
3DE0
7BC0
E780
E700
F380
7BC0
3DE0
1CE0
0840
ENDCHAR
STARTCHAR logicalnot
ENCODING 172
SWIDTH 598 0
DWIDTH 14 0
BBX 10 6 2 4
BITMAP
FFC0
FFC0
00C0
00C0
00C0
00C0
ENDCHAR
STARTCHAR softhyphen
ENCODING 173
SWIDTH 598 0
DWIDTH 14 0
BBX 11 3 2 8
BITMAP
FFE0
FFE0
FFE0
ENDCHAR
STARTCHAR registered
ENCODING 174
SWIDTH 598 0
DWIDTH 14 0
BBX 14 15 0 0
BITMAP
07C0
1FF0
3838
7FD8
6FEC
CC6C
CFEC
CFC4
CCCC
ECCC
6C6C
7058
3C78
1FF0
07C0
ENDCHAR
STARTCHAR macron
ENCODING 175
SWIDTH 598 0
DWIDTH 14 0
BBX 8 2 3 15
BITMAP
FF
FF
ENDCHAR
STARTCHAR degree
ENCODING 176
SWIDTH 598 0
DWIDTH 14 0
BBX 8 8 3 10
BITMAP
3C
7F
E7
E3
E3
E7
7F
3C
ENDCHAR
STARTCHAR plusminus
ENCODING 177
SWIDTH 598 0
DWIDTH 14 0
BBX 12 16 1 0
BITMAP
0700
0700
0700
0700
0700
FFF0
FFF0
0700
0700
0700
0700
0700
0000
0000
FFF0
FFF0
ENDCHAR
STARTCHAR uni00B2
ENCODING 178
SWIDTH 598 0
DWIDTH 14 0
BBX 9 11 3 7
BITMAP
3E00
7F00
E300
4300
0300
0E00
1C00
3800
7000
FF80
FF80
ENDCHAR
STARTCHAR uni00B3
ENCODING 179
SWIDTH 598 0
DWIDTH 14 0
BBX 9 11 3 7
BITMAP
3E00
7F00
6300
4300
1F00
1F00
0380
4380
E780
FF00
3E00
ENDCHAR
STARTCHAR acute
ENCODING 180
SWIDTH 598 0
DWIDTH 14 0
BBX 4 6 6 14
BITMAP
20
70
70
E0
E0
40
ENDCHAR
STARTCHAR micro
ENCODING 181
SWIDTH 598 0
DWIDTH 14 0
BBX 13 18 1 -5
BITMAP
E1C0
E1C0
E1C0
E1C0
E1C0
E1C0
E1C0
E1C0
E1C0
E1C0
F3D8
FFF8
DE70
C000
C000
C000
C000
C000
ENDCHAR
STARTCHAR paragraph
ENCODING 182
SWIDTH 598 0
DWIDTH 14 0
BBX 12 20 1 -2
BITMAP
0FF0
3FF0
7F30
7F30
FF30
FF30
7F30
7F30
3F30
0F30
0730
0730
0730
0730
0730
0730
0730
0730
0730
0730
ENDCHAR
STARTCHAR periodcentered
ENCODING 183
SWIDTH 598 0
DWIDTH 14 0
BBX 4 4 5 7
BITMAP
60
F0
F0
60
ENDCHAR
STARTCHAR cedilla
ENCODING 184
SWIDTH 598 0
DWIDTH 14 0
BBX 6 5 5 -5
BITMAP
30
38
3C
FC
78
ENDCHAR
STARTCHAR uni00B9
ENCODING 185
SWIDTH 598 0
DWIDTH 14 0
BBX 6 11 3 7
BITMAP
0C
3C
FC
5C
1C
1C
1C
1C
1C
1C
1C
ENDCHAR
STARTCHAR ordmasculine
ENCODING 186
SWIDTH 598 0
DWIDTH 14 0
BBX 10 14 2 4
BITMAP
1E00
3F00
7380
6180
61C0
61C0
61C0
6180
7380
3F00
1E00
0000
FFC0
FFC0
ENDCHAR
STARTCHAR guillemotright
ENCODING 187
SWIDTH 598 0
DWIDTH 14 0
BBX 11 9 2 2
BITMAP
4200
E700
7BC0
3DE0
1CE0
39C0
7380
E700
C600
ENDCHAR
STARTCHAR onequarter
ENCODING 188
SWIDTH 598 0
DWIDTH 14 0
BBX 14 20 0 -2
BITMAP
3810
F838
1830
1870
1860
18E0
18C0
19C0
0180
0380
0300
0710
0630
0E70
0CD0
1D90
1BFC
3BFC
1030
0030
ENDCHAR
STARTCHAR onehalf
ENCODING 189
SWIDTH 598 0
DWIDTH 14 0
BBX 14 20 0 -2
BITMAP
3810
F838
1830
1870
1860
18E0
18C0
19C0
0180
0380
0300
0700
0678
0EFC
0C8C
1C1C
1830
3860
30FC
01FC
ENDCHAR
STARTCHAR threequarters
ENCODING 190
SWIDTH 598 0
DWIDTH 14 0
BBX 14 21 0 -2
BITMAP
3800
7E10
4638
1E30
1E70
0660
46E0
FEC0
3DC0
0180
0380
0300
0310
0730
0670
0ED0
0D90
1FFC
1BFC
3830
1030
ENDCHAR
STARTCHAR questiondown
ENCODING 191
SWIDTH 598 0
DWIDTH 14 0
BBX 11 18 2 0
BITMAP
1E00
1E00
1E00
0000
0000
0000
0C00
1C00
3C00
7800
F000
E000
E000
E000
E0C0
F1E0
7FC0
3F00
ENDCHAR
STARTCHAR Agrave
ENCODING 192
SWIDTH 598 0
DWIDTH 14 0
BBX 14 23 0 -1
BITMAP
0400
0F80
07C0
0080
0200
0300
0300
0700
0780
0780
0FC0
0DC0
0CC0
1CE0
1860
1FF0
3FF0
3030
3038
7038
6018
E01C
E000
ENDCHAR
STARTCHAR Aacute
ENCODING 193
SWIDTH 598 0
DWIDTH 14 0
BBX 14 23 0 -1
BITMAP
0080
03C0
0F80
0400
0200
0300
0300
0700
0780
0780
0FC0
0DC0
0CC0
1CE0
1860
1FF0
3FF0
3030
3038
7038
6018
E01C
E000
ENDCHAR
STARTCHAR Acircumflex
ENCODING 194
SWIDTH 598 0
DWIDTH 14 0
BBX 14 23 0 -1
BITMAP
0300
0780
1FE0
1CE0
0200
0300
0300
0700
0780
0780
0FC0
0DC0
0CC0
1CE0
1860
1FF0
3FF0
3030
3038
7038
6018
E01C
E000
ENDCHAR
STARTCHAR Atilde
ENCODING 195
SWIDTH 598 0
DWIDTH 14 0
BBX 14 23 0 -1
BITMAP
1F10
3FF0
19E0
0000
0200
0300
0300
0700
0780
0780
0FC0
0DC0
0CC0
1CE0
1860
1FF0
3FF0
3030
3038
7038
6018
E01C
E000
ENDCHAR
STARTCHAR Adieresis
ENCODING 196
SWIDTH 598 0
DWIDTH 14 0
BBX 14 23 0 -1
BITMAP
18E0
3CE0
1CE0
0840
0200
0300
0300
0700
0780
0780
0FC0
0DC0
0CC0
1CE0
1860
1FF0
3FF0
3030
3038
7038
6018
E01C
E000
ENDCHAR
STARTCHAR Aring
ENCODING 197
SWIDTH 598 0
DWIDTH 14 0
BBX 14 22 0 -1
BITMAP
0780
0CC0
0CC0
0780
0200
0300
0300
0780
0780
0F80
0DC0
0CC0
1CE0
1860
1FE0
3FF0
3030
3038
7038
6018
E01C
E000
ENDCHAR
STARTCHAR AE
ENCODING 198
SWIDTH 598 0
DWIDTH 14 0
BBX 14 18 0 0
BITMAP
07FC
07FC
0780
0F80
0D80
0D80
1D80
1D80
19F8
19F8
3980
3F80
3F80
7180
7180
6180
E1FC
E1FC
ENDCHAR
STARTCHAR Ccedilla
ENCODING 199
SWIDTH 598 0
DWIDTH 14 0
BBX 13 23 1 -5
BITMAP
0F80
1FE0
3CF0
7078
7030
E000
E000
E000
E000
E000
E000
E000
E000
7020
7830
3CF0
1FE0
0F80
0300
03C0
08C0
0FC0
0200
ENDCHAR
STARTCHAR Egrave
ENCODING 200
SWIDTH 598 0
DWIDTH 14 0
BBX 11 23 2 0
BITMAP
1000
3C00
1F00
0200
0000
FFE0
FFE0
C000
C000
C000
C000
C000
C000
FF80
FF80
C000
C000
C000
C000
C000
C000
FFE0
FFE0
ENDCHAR
STARTCHAR Eacute
ENCODING 201
SWIDTH 598 0
DWIDTH 14 0
BBX 11 23 2 0
BITMAP
0100
0F00
1F00
1800
0000
FFE0
FFE0
C000
C000
C000
C000
C000
C000
FF80
FF80
C000
C000
C000
C000
C000
C000
FFE0
FFE0
ENDCHAR
STARTCHAR Ecircumflex
ENCODING 202
SWIDTH 598 0
DWIDTH 14 0
BBX 11 23 2 0
BITMAP
0C00
1F00
3F80
7380
0000
FFE0
FFE0
C000
C000
C000
C000
C000
C000
FF80
FF80
C000
C000
C000
C000
C000
C000
FFE0
FFE0
ENDCHAR
STARTCHAR Edieresis
ENCODING 203
SWIDTH 598 0
DWIDTH 14 0
BBX 11 23 2 0
BITMAP
2100
7380
73C0
7180
0000
FFE0
FFE0
C000
C000
C000
C000
C000
C000
FF80
FF80
C000
C000
C000
C000
C000
C000
FFE0
FFE0
ENDCHAR
STARTCHAR Igrave
ENCODING 204
SWIDTH 598 0
DWIDTH 14 0
BBX 10 23 2 0
BITMAP
1000
3C00
1F00
0200
0000
FFC0
FFC0
0C00
0C00
0C00
0C00
0C00
0C00
0C00
0C00
0C00
0C00
0C00
0C00
0C00
0C00
FFC0
FFC0
ENDCHAR
STARTCHAR Iacute
ENCODING 205
SWIDTH 598 0
DWIDTH 14 0
BBX 10 23 2 0
BITMAP
0100
0F00
1F00
1800
0000
FFC0
FFC0
0C00
0C00
0C00
0C00
0C00
0C00
0C00
0C00
0C00
0C00
0C00
0C00
0C00
0C00
FFC0
FFC0
ENDCHAR
STARTCHAR Icircumflex
ENCODING 206
SWIDTH 598 0
DWIDTH 14 0
BBX 10 23 2 0
BITMAP
0C00
1E00
7F80
6380
0000
FFC0
FFC0
0C00
0C00
0C00
0C00
0C00
0C00
0C00
0C00
0C00
0C00
0C00
0C00
0C00
0C00
FFC0
FFC0
ENDCHAR
STARTCHAR Idieresis
ENCODING 207
SWIDTH 598 0
DWIDTH 14 0
BBX 10 23 2 0
BITMAP
2100
7380
7380
7380
0000
FFC0
FFC0
0C00
0C00
0C00
0C00
0C00
0C00
0C00
0C00
0C00
0C00
0C00
0C00
0C00
0C00
FFC0
FFC0
ENDCHAR
STARTCHAR Eth
ENCODING 208
SWIDTH 598 0
DWIDTH 14 0
BBX 13 18 1 0
BITMAP
7F00
7FC0
71E0
70E0
7070
7070
7030
FC38
FC38
7038
7030
7030
7070
7070
70E0
71E0
7FC0
7F00
ENDCHAR
STARTCHAR Ntilde
ENCODING 209
SWIDTH 598 0
DWIDTH 14 0
BBX 12 22 1 0
BITMAP
1E20
7FE0
33C0
0000
0000
E070
F070
F070
F870
FC70
EC70
EE70
E670
E770
E370
E3F0
E1F0
E1F0
E0F0
E070
E070
E030
ENDCHAR
STARTCHAR Ograve
ENCODING 210
SWIDTH 598 0
DWIDTH 14 0
BBX 13 23 1 0
BITMAP
0800
1E00
0F80
0100
0000
0F80
3FC0
7FE0
70F0
E070
E030
E038
C038
C038
C038
C038
E038
E030
E070
70F0
7FE0
3FC0
0F80
ENDCHAR
STARTCHAR Oacute
ENCODING 211
SWIDTH 598 0
DWIDTH 14 0
BBX 13 23 1 0
BITMAP
0080
0780
0F80
0C00
0000
0F80
3FC0
7FE0
70F0
E070
E030
E038
C038
C038
C038
C038
E038
E030
E070
70F0
7FE0
3FC0
0F80
ENDCHAR
STARTCHAR Ocircumflex
ENCODING 212
SWIDTH 598 0
DWIDTH 14 0
BBX 13 23 1 0
BITMAP
0200
0F00
1F80
39E0
10C0
0F80
3FC0
7FE0
70F0
E070
E030
E038
C038
C038
C038
C038
E038
E030
E070
70F0
7FE0
3FC0
0F80
ENDCHAR
STARTCHAR Otilde
ENCODING 213
SWIDTH 598 0
DWIDTH 14 0
BBX 13 23 1 0
BITMAP
1E00
3F60
37E0
01C0
0000
0F80
3FC0
7FE0
70F0
E070
E030
E038
C038
C038
C038
C038
E038
E030
E070
70F0
7FE0
3FC0
0F80
ENDCHAR
STARTCHAR Odieresis
ENCODING 214
SWIDTH 598 0
DWIDTH 14 0
BBX 13 23 1 0
BITMAP
1080
39C0
39E0
38C0
0000
0F80
3FC0
7FE0
70F0
E070
E030
E038
C038
C038
C038
C038
E038
E030
E070
70F0
7FE0
3FC0
0F80
ENDCHAR
STARTCHAR multiply
ENCODING 215
SWIDTH 598 0
DWIDTH 14 0
BBX 11 10 2 4
BITMAP
60C0
F1E0
7BC0
3F80
1F00
1F00
3F80
7BC0
F1C0
60C0
ENDCHAR
STARTCHAR Oslash
ENCODING 216
SWIDTH 598 0
DWIDTH 14 0
BBX 13 20 1 -1
BITMAP
0030
0FB0
3FF0
7FE0
70F0
E0F0
E1B0
E3B8
C338
C738
C638
CE38
EC38
FC30
F870
78F0
7FE0
7FC0
EF80
C000
ENDCHAR
STARTCHAR Ugrave
ENCODING 217
SWIDTH 598 0
DWIDTH 14 0
BBX 12 23 1 0
BITMAP
0800
1E00
0F80
0100
0000
E030
E030
E030
E030
E030
E030
E030
E030
E030
E030
E030
E030
E030
E070
7070
79E0
3FC0
1F80
ENDCHAR
STARTCHAR Uacute
ENCODING 218
SWIDTH 598 0
DWIDTH 14 0
BBX 12 23 1 0
BITMAP
0080
0780
0F80
0C00
0000
E030
E030
E030
E030
E030
E030
E030
E030
E030
E030
E030
E030
E030
E070
7070
79E0
3FC0
1F80
ENDCHAR
STARTCHAR Ucircumflex
ENCODING 219
SWIDTH 598 0
DWIDTH 14 0
BBX 12 23 1 0
BITMAP
0200
0F00
1F80
39E0
10C0
E030
E030
E030
E030
E030
E030
E030
E030
E030
E030
E030
E030
E030
E070
7070
79E0
3FC0
1F80
ENDCHAR
STARTCHAR Udieresis
ENCODING 220
SWIDTH 598 0
DWIDTH 14 0
BBX 12 23 1 0
BITMAP
1040
39E0
39E0
38C0
0000
E030
E030
E030
E030
E030
E030
E030
E030
E030
E030
E030
E030
E030
E070
7070
79E0
3FC0
1F80
ENDCHAR
STARTCHAR Yacute
ENCODING 221
SWIDTH 598 0
DWIDTH 14 0
BBX 13 23 1 0
BITMAP
0080
0780
0F80
0C00
0000
E038
E070
7070
7060
38E0
38C0
1DC0
1D80
0F80
0F80
0700
0700
0700
0700
0700
0700
0700
0700
ENDCHAR
STARTCHAR Thorn
ENCODING 222
SWIDTH 598 0
DWIDTH 14 0
BBX 11 18 2 0
BITMAP
C000
C000
C000
FF00
FFC0
C1C0
C0E0
C0E0
C060
C0E0
C0E0
C3E0
FFC0
FF00
C000
C000
C000
C000
ENDCHAR
STARTCHAR germandbls
ENCODING 223
SWIDTH 598 0
DWIDTH 14 0
BBX 12 18 1 0
BITMAP
0F00
3FC0
79C0
70E0
6060
E060
E0E0
E1E0
E7C0
E7E0
E0F0
E070
E030
E030
E070
E7F0
EFE0
E780
ENDCHAR
STARTCHAR agrave
ENCODING 224
SWIDTH 598 0
DWIDTH 14 0
BBX 12 20 1 0
BITMAP
0400
0E00
0F00
0700
0380
0100
0000
0F80
3FC0
39E0
2070
0070
0FF0
3FF0
7870
E070
E070
F1F0
7FF0
1F70
ENDCHAR
STARTCHAR aacute
ENCODING 225
SWIDTH 598 0
DWIDTH 14 0
BBX 12 20 1 0
BITMAP
0100
0380
0380
0700
0700
0200
0000
0F80
3FC0
39E0
2070
0070
0FF0
3FF0
7870
E070
E070
F1F0
7FF0
1F70
ENDCHAR
STARTCHAR acircumflex
ENCODING 226
SWIDTH 598 0
DWIDTH 14 0
BBX 12 19 1 0
BITMAP
0200
0700
0F80
1DC0
18C0
0080
0F80
3FC0
39E0
2070
0070
0FF0
3FF0
7870
E070
E070
F1F0
7FF0
1F70
ENDCHAR
STARTCHAR atilde
ENCODING 227
SWIDTH 598 0
DWIDTH 14 0
BBX 12 19 1 0
BITMAP
1E00
3FE0
33E0
0000
0000
0000
0F80
3FC0
39E0
2070
0070
0FF0
3FF0
7870
E070
E070
F1F0
7FF0
1F70
ENDCHAR
STARTCHAR adieresis
ENCODING 228
SWIDTH 598 0
DWIDTH 14 0
BBX 12 18 1 0
BITMAP
18C0
3DE0
38E0
1040
0000
0F80
3FC0
39E0
2070
0070
0FF0
3FF0
7870
E070
E070
F1F0
7FF0
1F70
ENDCHAR
STARTCHAR aring
ENCODING 229
SWIDTH 598 0
DWIDTH 14 0
BBX 12 19 1 0
BITMAP
0F00
0D80
0980
0F80
0700
0000
0F80
3FC0
39E0
2070
0070
0FF0
3FF0
7870
E070
E070
F1F0
7FF0
1F70
ENDCHAR
STARTCHAR ae
ENCODING 230
SWIDTH 598 0
DWIDTH 14 0
BBX 14 13 0 0
BITMAP
3CF0
7FF8
67DC
038C
030C
1FFC
7FFC
7300
E300
E380
E3CC
7FFC
3C78
ENDCHAR
STARTCHAR ccedilla
ENCODING 231
SWIDTH 598 0
DWIDTH 14 0
BBX 12 18 1 -5
BITMAP
0FC0
1FE0
3CF0
7030
7020
E000
E000
E000
7000
7820
3FF0
1FE0
0FC0
0300
03C0
08C0
0FC0
0200
ENDCHAR
STARTCHAR egrave
ENCODING 232
SWIDTH 598 0
DWIDTH 14 0
BBX 12 20 1 0
BITMAP
0400
0E00
0F00
0700
0380
0100
0000
0F80
3FC0
79E0
7070
E070
FFF0
FFF0
E000
E000
7000
7CF0
3FE0
0F80
ENDCHAR
STARTCHAR eacute
ENCODING 233
SWIDTH 598 0
DWIDTH 14 0
BBX 12 20 1 0
BITMAP
0100
0380
0380
0700
0700
0200
0000
0F80
3FC0
79E0
7070
E070
FFF0
FFF0
E000
E000
7000
7CF0
3FE0
0F80
ENDCHAR
STARTCHAR ecircumflex
ENCODING 234
SWIDTH 598 0
DWIDTH 14 0
BBX 12 19 1 0
BITMAP
0600
0700
0F80
1DC0
19C0
0080
0F80
3FC0
79E0
7070
E070
FFF0
FFF0
E000
E000
7000
7CF0
3FE0
0F80
ENDCHAR
STARTCHAR edieresis
ENCODING 235
SWIDTH 598 0
DWIDTH 14 0
BBX 12 18 1 0
BITMAP
38C0
39E0
39E0
1000
0000
0F80
3FC0
79E0
7070
E070
FFF0
FFF0
E000
E000
7000
7CF0
3FE0
0F80
ENDCHAR
STARTCHAR igrave
ENCODING 236
SWIDTH 598 0
DWIDTH 14 0
BBX 9 20 3 0
BITMAP
2000
7000
7000
3800
1C00
1800
0000
FC00
FC00
1C00
1C00
1C00
1C00
1C00
1C00
1C00
1C00
1C00
FF80
FF80
ENDCHAR
STARTCHAR iacute
ENCODING 237
SWIDTH 598 0
DWIDTH 14 0
BBX 9 20 3 0
BITMAP
0400
0E00
0E00
1C00
1C00
0800
0000
FC00
FC00
1C00
1C00
1C00
1C00
1C00
1C00
1C00
1C00
1C00
FF80
FF80
ENDCHAR
STARTCHAR icircumflex
ENCODING 238
SWIDTH 598 0
DWIDTH 14 0
BBX 9 19 3 0
BITMAP
1800
3C00
3C00
7E00
E700
4000
FC00
FC00
1C00
1C00
1C00
1C00
1C00
1C00
1C00
1C00
1C00
FF80
FF80
ENDCHAR
STARTCHAR idieresis
ENCODING 239
SWIDTH 598 0
DWIDTH 14 0
BBX 9 18 3 0
BITMAP
E300
E780
E700
4200
0000
FC00
FC00
1C00
1C00
1C00
1C00
1C00
1C00
1C00
1C00
1C00
FF80
FF80
ENDCHAR
STARTCHAR eth
ENCODING 240
SWIDTH 598 0
DWIDTH 14 0
BBX 12 19 1 0
BITMAP
0C00
1E20
07F0
1FC0
1FC0
00E0
0FE0
3FF0
7DF0
7070
E070
E030
E030
E030
E070
7070
7DE0
3FC0
0F80
ENDCHAR
STARTCHAR ntilde
ENCODING 241
SWIDTH 598 0
DWIDTH 14 0
BBX 11 19 2 0
BITMAP
7C00
FFC0
6780
0000
0000
0000
EF00
FFC0
FFC0
F0C0
E0E0
E0E0
E0E0
E0E0
E0E0
E0E0
E0E0
E0E0
E0E0
ENDCHAR
STARTCHAR ograve
ENCODING 242
SWIDTH 598 0
DWIDTH 14 0
BBX 12 20 1 0
BITMAP
0400
0E00
0F00
0700
0380
0100
0000
0F80
3FC0
7DE0
7070
E070
E030
E030
E030
E070
7070
7DE0
3FC0
0F80
ENDCHAR
STARTCHAR oacute
ENCODING 243
SWIDTH 598 0
DWIDTH 14 0
BBX 12 20 1 0
BITMAP
0100
0380
0380
0700
0700
0200
0000
0F80
3FC0
7DE0
7070
E070
E030
E030
E030
E070
7070
7DE0
3FC0
0F80
ENDCHAR
STARTCHAR ocircumflex
ENCODING 244
SWIDTH 598 0
DWIDTH 14 0
BBX 12 19 1 0
BITMAP
0600
0700
0F80
1DC0
19C0
0080
0F80
3FC0
7DE0
7070
E070
E030
E030
E030
E070
7070
7DE0
3FC0
0F80
ENDCHAR
STARTCHAR otilde
ENCODING 245
SWIDTH 598 0
DWIDTH 14 0
BBX 12 19 1 0
BITMAP
1E00
7FE0
33C0
0000
0000
0000
0F80
3FC0
7DE0
7070
E070
E030
E030
E030
E070
7070
7DE0
3FC0
0F80
ENDCHAR
STARTCHAR odieresis
ENCODING 246
SWIDTH 598 0
DWIDTH 14 0
BBX 12 18 1 0
BITMAP
38C0
39E0
39E0
1080
0000
0F80
3FC0
7DE0
7070
E070
E030
E030
E030
E070
7070
7DE0
3FC0
0F80
ENDCHAR
STARTCHAR divide
ENCODING 247
SWIDTH 598 0
DWIDTH 14 0
BBX 11 11 2 3
BITMAP
0E00
0E00
0E00
0000
FFE0
FFE0
FFE0
0000
0E00
0E00
0E00
ENDCHAR
STARTCHAR oslash
ENCODING 248
SWIDTH 598 0
DWIDTH 14 0
BBX 12 16 1 -1
BITMAP
0040
0060
0FE0
3FC0
7DE0
71F0
E370
E330
E630
EE30
EC70
7C70
7DE0
3FC0
7F80
6000
ENDCHAR
STARTCHAR ugrave
ENCODING 249
SWIDTH 598 0
DWIDTH 14 0
BBX 11 20 2 0
BITMAP
0800
1C00
1E00
0E00
0700
0200
0000
C0E0
C0E0
C0E0
C0E0
C0E0
C0E0
C0E0
C0E0
C0E0
E1E0
F3E0
7FE0
3EE0
ENDCHAR
STARTCHAR uacute
ENCODING 250
SWIDTH 598 0
DWIDTH 14 0
BBX 11 20 2 0
BITMAP
0200
0700
0700
0E00
0E00
0400
0000
C0E0
C0E0
C0E0
C0E0
C0E0
C0E0
C0E0
C0E0
C0E0
E1E0
F3E0
7FE0
3EE0
ENDCHAR
STARTCHAR ucircumflex
ENCODING 251
SWIDTH 598 0
DWIDTH 14 0
BBX 11 19 2 0
BITMAP
0C00
0E00
1F00
3B80
3380
0100
C0E0
C0E0
C0E0
C0E0
C0E0
C0E0
C0E0
C0E0
C0E0
E1E0
F3E0
7FE0
3EE0
ENDCHAR
STARTCHAR udieresis
ENCODING 252
SWIDTH 598 0
DWIDTH 14 0
BBX 11 18 2 0
BITMAP
7180
73C0
73C0
2100
0000
C0E0
C0E0
C0E0
C0E0
C0E0
C0E0
C0E0
C0E0
C0E0
E1E0
F3E0
7FE0
3EE0
ENDCHAR
STARTCHAR yacute
ENCODING 253
SWIDTH 598 0
DWIDTH 14 0
BBX 13 25 0 -5
BITMAP
0080
01C0
01C0
0380
0380
0100
0000
7018
3038
3838
3830
1C70
1C70
0C60
0EE0
06C0
07C0
07C0
0380
0380
0380
0700
6F00
FE00
3C00
ENDCHAR
STARTCHAR thorn
ENCODING 254
SWIDTH 598 0
DWIDTH 14 0
BBX 11 23 2 -5
BITMAP
C000
C000
C000
C000
C000
CF00
FFC0
FBC0
E0E0
C0E0
C060
C060
C060
C0E0
E0E0
FFC0
FFC0
CF00
C000
C000
C000
C000
C000
ENDCHAR
STARTCHAR ydieresis
ENCODING 255
SWIDTH 598 0
DWIDTH 14 0
BBX 13 23 0 -5
BITMAP
1C60
1CF0
1CF0
0840
0000
7018
3038
3838
3830
1C70
1C70
0C60
0EE0
06C0
07C0
07C0
0380
0380
0380
0700
6F00
FE00
3C00
ENDCHAR
STARTCHAR Amacron
ENCODING 256
SWIDTH 585 0
DWIDTH 14 0
BBX 14 23 0 -1
BITMAP
1FE0
1FE0
0000
0000
0200
0300
0300
0700
0780
0780
0FC0
0DC0
0CC0
1CE0
1860
1FF0
3FF0
3030
3038
7038
6018
E01C
E000
ENDCHAR
STARTCHAR amacron
ENCODING 257
SWIDTH 585 0
DWIDTH 14 0
BBX 12 17 1 0
BITMAP
3FC0
3FC0
0000
0000
0F80
3FC0
39E0
2070
0070
0FF0
3FF0
7870
E070
E070
F1F0
7FF0
1F70
ENDCHAR
STARTCHAR Abreve
ENCODING 258
SWIDTH 598 0
DWIDTH 14 0
BBX 14 23 0 -1
BITMAP
1020
38E0
1FE0
0780
0200
0300
0300
0700
0780
0780
0FC0
0DC0
0CC0
1CE0
1860
1FF0
3FF0
3030
3038
7038
6018
E01C
E000
ENDCHAR
STARTCHAR abreve
ENCODING 259
SWIDTH 598 0
DWIDTH 14 0
BBX 12 18 1 0
BITMAP
1040
38E0
1FC0
0F80
0000
0F80
3FC0
39E0
2070
0070
0FF0
3FF0
7870
E070
E070
F1F0
7FF0
1F70
ENDCHAR
STARTCHAR Aogonek
ENCODING 260
SWIDTH 598 0
DWIDTH 14 0
BBX 14 23 0 -5
BITMAP
0200
0300
0300
0700
0780
0780
0FC0
0DC0
0CC0
1CE0
1860
1FF0
3FF0
3030
3038
7038
6018
E01C
E01C
0030
0030
003C
003C
ENDCHAR
STARTCHAR aogonek
ENCODING 261
SWIDTH 598 0
DWIDTH 14 0
BBX 12 18 1 -5
BITMAP
0F80
3FC0
39E0
2070
0070
0FF0
3FF0
7870
E070
E070
F1F0
7FF0
1F70
0060
00C0
0180
01E0
0040
ENDCHAR
STARTCHAR Cacute
ENCODING 262
SWIDTH 598 0
DWIDTH 14 0
BBX 13 23 1 0
BITMAP
0100
0780
1F00
0800
0000
0F80
1FE0
3CF0
7078
7030
E000
E000
E000
E000
E000
E000
E000
E000
7020
7830
3CF0
1FE0
0F80
ENDCHAR
STARTCHAR cacute
ENCODING 263
SWIDTH 598 0
DWIDTH 14 0
BBX 12 20 1 0
BITMAP
0100
0380
0380
0700
0700
0200
0000
0FC0
1FE0
3CF0
7030
7020
E000
E000
E000
7000
7820
3FF0
1FE0
0FC0
ENDCHAR
STARTCHAR Ccircumflex
ENCODING 264
SWIDTH 585 0
DWIDTH 14 0
BBX 13 23 1 0
BITMAP
0200
0F00
1F80
39E0
10C0
0F80
1FE0
3CF0
7078
7030
E000
E000
E000
E000
E000
E000
E000
E000
7020
7830
3CF0
1FE0
0F80
ENDCHAR
STARTCHAR ccircumflex
ENCODING 265
SWIDTH 585 0
DWIDTH 14 0
BBX 12 19 1 0
BITMAP
0600
0700
0F80
1DC0
19C0
0080
0FC0
1FE0
3CF0
7030
7020
E000
E000
E000
7000
7820
3FF0
1FE0
0FC0
ENDCHAR
STARTCHAR Cdotaccent
ENCODING 266
SWIDTH 585 0
DWIDTH 14 0
BBX 13 23 1 0
BITMAP
0200
0700
0700
0700
0000
0F80
1FE0
3CF0
7078
7030
E000
E000
E000
E000
E000
E000
E000
E000
7020
7830
3CF0
1FE0
0F80
ENDCHAR
STARTCHAR cdotaccent
ENCODING 267
SWIDTH 585 0
DWIDTH 14 0
BBX 12 18 1 0
BITMAP
0700
0700
0700
0200
0000
0FC0
1FE0
3CF0
7030
7020
E000
E000
E000
7000
7820
3FF0
1FE0
0FC0
ENDCHAR
STARTCHAR Ccaron
ENCODING 268
SWIDTH 598 0
DWIDTH 14 0
BBX 13 23 1 0
BITMAP
1CE0
1FE0
0F80
0300
0000
0F80
1FE0
3CF0
7078
7030
E000
E000
E000
E000
E000
E000
E000
E000
7020
7830
3CF0
1FE0
0F80
ENDCHAR
STARTCHAR ccaron
ENCODING 269
SWIDTH 598 0
DWIDTH 14 0
BBX 12 20 1 0
BITMAP
0880
39C0
1D80
0F80
0700
0200
0000
0FC0
1FE0
3CF0
7030
7020
E000
E000
E000
7000
7820
3FF0
1FE0
0FC0
ENDCHAR
STARTCHAR Dcaron
ENCODING 270
SWIDTH 598 0
DWIDTH 14 0
BBX 12 23 1 0
BITMAP
31C0
3F80
1F00
0600
0000
FF00
FFC0
E3E0
E0E0
E070
E070
E070
E030
E030
E030
E030
E070
E070
E070
E0E0
E3E0
FFC0
FF00
ENDCHAR
STARTCHAR dcaron
ENCODING 271
SWIDTH 598 0
DWIDTH 14 0
BBX 15 18 0 0
BITMAP
00EC
00FE
00EE
00EC
00EC
1EF8
3FE0
7BE0
E0E0
E0E0
E0E0
E0E0
E0E0
E0E0
F1E0
7BE0
3FE0
1CE0
ENDCHAR
STARTCHAR Dcroat
ENCODING 272
SWIDTH 598 0
DWIDTH 14 0
BBX 13 18 1 0
BITMAP
7F00
7FC0
71E0
70E0
7070
7070
7030
FC38
FC38
7038
7030
7030
7070
7070
70E0
71E0
7FC0
7F00
ENDCHAR
STARTCHAR dcroat
ENCODING 273
SWIDTH 598 0
DWIDTH 14 0
BBX 13 18 1 0
BITMAP
0070
0070
01F8
01F8
0070
1F70
3FF0
79F0
E0F0
E070
E070
E070
E070
E070
F0F0
7FF0
3FF0
1E70
ENDCHAR
STARTCHAR Emacron
ENCODING 274
SWIDTH 585 0
DWIDTH 14 0
BBX 11 22 2 0
BITMAP
7F80
7F80
0000
0000
FFE0
FFE0
C000
C000
C000
C000
C000
C000
FF80
FF80
C000
C000
C000
C000
C000
C000
FFE0
FFE0
ENDCHAR
STARTCHAR emacron
ENCODING 275
SWIDTH 585 0
DWIDTH 14 0
BBX 12 17 1 0
BITMAP
3FC0
3FC0
0000
0000
0F80
3FC0
79E0
7070
E070
FFF0
FFF0
E000
E000
7000
7CF0
3FE0
0F80
ENDCHAR
STARTCHAR Ebreve
ENCODING 276
SWIDTH 585 0
DWIDTH 14 0
BBX 11 23 2 0
BITMAP
4080
6180
7F80
3F00
0000
FFE0
FFE0
C000
C000
C000
C000
C000
C000
FF80
FF80
C000
C000
C000
C000
C000
C000
FFE0
FFE0
ENDCHAR
STARTCHAR ebreve
ENCODING 277
SWIDTH 585 0
DWIDTH 14 0
BBX 12 18 1 0
BITMAP
1040
38E0
1FC0
0F80
0000
0F80
3FC0
79E0
7070
E070
FFF0
FFF0
E000
E000
7000
7CF0
3FE0
0F80
ENDCHAR
STARTCHAR Edotaccent
ENCODING 278
SWIDTH 585 0
DWIDTH 14 0
BBX 11 23 2 0
BITMAP
0400
0E00
0E00
0E00
0000
FFE0
FFE0
C000
C000
C000
C000
C000
C000
FF80
FF80
C000
C000
C000
C000
C000
C000
FFE0
FFE0
ENDCHAR
STARTCHAR edotaccent
ENCODING 279
SWIDTH 585 0
DWIDTH 14 0
BBX 12 18 1 0
BITMAP
0700
0700
0700
0200
0000
0F80
3FC0
79E0
7070
E070
FFF0
FFF0
E000
E000
7000
7CF0
3FE0
0F80
ENDCHAR
STARTCHAR Eogonek
ENCODING 280
SWIDTH 598 0
DWIDTH 14 0
BBX 11 23 2 -5
BITMAP
FFE0
FFE0
C000
C000
C000
C000
C000
C000
FF80
FF80
C000
C000
C000
C000
C000
C000
FFE0
FFE0
00C0
0180
0300
03E0
01C0
ENDCHAR
STARTCHAR eogonek
ENCODING 281
SWIDTH 598 0
DWIDTH 14 0
BBX 12 18 1 -5
BITMAP
0F80
3FC0
79E0
7070
E070
FFF0
FFF0
E000
E000
7000
7CF0
3FE0
0FC0
0180
0180
0180
01E0
00C0
ENDCHAR
STARTCHAR Ecaron
ENCODING 282
SWIDTH 598 0
DWIDTH 14 0
BBX 11 24 2 0
BITMAP
2080
7180
3F80
1F00
0C00
0000
FFE0
FFE0
C000
C000
C000
C000
C000
C000
FF80
FF80
C000
C000
C000
C000
C000
C000
FFE0
FFE0
ENDCHAR
STARTCHAR ecaron
ENCODING 283
SWIDTH 598 0
DWIDTH 14 0
BBX 12 20 1 0
BITMAP
0880
39C0
1D80
0F80
0700
0200
0000
0F80
3FC0
79E0
7070
E070
FFF0
FFF0
E000
E000
7000
7CF0
3FE0
0F80
ENDCHAR
STARTCHAR Gcircumflex
ENCODING 284
SWIDTH 585 0
DWIDTH 14 0
BBX 12 23 1 0
BITMAP
0200
0F00
1F80
39E0
10C0
0F80
1FE0
3DF0
7070
6020
E000
E000
E000
E000
E1F0
E1F0
E030
E030
7030
7030
3CF0
1FF0
0FC0
ENDCHAR
STARTCHAR gcircumflex
ENCODING 285
SWIDTH 585 0
DWIDTH 14 0
BBX 13 24 1 -5
BITMAP
0600
0700
0F80
1DC0
19C0
0080
1F38
3FF8
71C0
60C0
60C0
60C0
7BC0
3F80
3F00
6000
7FC0
3FF0
6070
E030
E070
F0F0
7FE0
1F80
ENDCHAR
STARTCHAR Gbreve
ENCODING 286
SWIDTH 598 0
DWIDTH 14 0
BBX 12 23 1 0
BITMAP
1040
38E0
3FC0
0F80
0000
0F80
1FE0
3DF0
7070
6020
E000
E000
E000
E000
E1F0
E1F0
E030
E030
7030
7030
3CF0
1FF0
0FC0
ENDCHAR
STARTCHAR gbreve
ENCODING 287
SWIDTH 598 0
DWIDTH 14 0
BBX 13 23 1 -5
BITMAP
1040
38E0
1FC0
0F80
0000
0F38
3FF8
71E0
60C0
60C0
60C0
71C0
3F80
3F00
7000
7000
7FE0
7FF0
E070
E030
F0F0
7FE0
3F80
ENDCHAR
STARTCHAR Gdotaccent
ENCODING 288
SWIDTH 585 0
DWIDTH 14 0
BBX 12 23 1 0
BITMAP
0200
0700
0700
0700
0000
0F80
1FE0
3DF0
7070
6020
E000
E000
E000
E000
E1F0
E1F0
E030
E030
7030
7030
3CF0
1FF0
0FC0
ENDCHAR
STARTCHAR gdotaccent
ENCODING 289
SWIDTH 585 0
DWIDTH 14 0
BBX 13 23 1 -5
BITMAP
0700
0700
0700
0200
0000
0F38
3FF8
71E0
60C0
60C0
60C0
71C0
3F80
3F00
7000
7000
7FE0
7FF0
E070
E030
F0F0
7FE0
3F80
ENDCHAR
STARTCHAR Gcommaaccent
ENCODING 290
SWIDTH 585 0
DWIDTH 14 0
BBX 12 22 1 -4
BITMAP
0F80
1FE0
3DF0
7070
6020
E000
E000
E000
E000
E1F0
E1F0
E030
E030
7030
7030
3CF0
1FF0
0FC0
0700
0600
0600
0600
ENDCHAR
STARTCHAR gcommaaccent
ENCODING 291
SWIDTH 585 0
DWIDTH 14 0
BBX 13 23 1 -5
BITMAP
0600
0600
0600
0600
0E00
0F38
3FF8
71E0
60C0
60C0
60C0
71C0
3F80
3F00
7000
7000
7FE0
7FF0
E070
E030
F0F0
7FE0
3F80
ENDCHAR
STARTCHAR Hcircumflex
ENCODING 292
SWIDTH 585 0
DWIDTH 14 0
BBX 12 23 1 0
BITMAP
0200
0F00
1F80
39E0
10C0
E070
E070
E070
E070
E070
E070
E070
E070
FFF0
FFF0
E070
E070
E070
E070
E070
E070
E070
E070
ENDCHAR
STARTCHAR hcircumflex
ENCODING 293
SWIDTH 585 0
DWIDTH 14 0
BBX 11 22 2 0
BITMAP
0400
1E00
3F00
73C0
E180
E000
E000
E000
E000
EF00
FFC0
FFC0
F0E0
E0E0
E0E0
E0E0
E0E0
E0E0
E0E0
E0E0
E0E0
E0E0
ENDCHAR
STARTCHAR Hbar
ENCODING 294
SWIDTH 598 0
DWIDTH 14 0
BBX 14 19 0 -1
BITMAP
7038
7038
FFFC
FFFC
7038
7038
7038
7038
7FF8
7FF8
7038
7038
7038
7038
7038
7038
7038
7038
0038
ENDCHAR
STARTCHAR hbar
ENCODING 295
SWIDTH 598 0
DWIDTH 14 0
BBX 12 18 1 0
BITMAP
7000
7000
FE00
FE00
7000
73C0
77E0
7EF0
7870
7030
7030
7030
7030
7030
7030
7030
7030
7030
ENDCHAR
STARTCHAR Itilde
ENCODING 296
SWIDTH 585 0
DWIDTH 14 0
BBX 10 23 2 0
BITMAP
3C80
7EC0
6FC0
0780
0000
FFC0
FFC0
0C00
0C00
0C00
0C00
0C00
0C00
0C00
0C00
0C00
0C00
0C00
0C00
0C00
0C00
FFC0
FFC0
ENDCHAR
STARTCHAR itilde
ENCODING 297
SWIDTH 585 0
DWIDTH 14 0
BBX 9 19 3 0
BITMAP
7800
FF80
CF80
0000
0000
0000
FC00
FC00
1C00
1C00
1C00
1C00
1C00
1C00
1C00
1C00
1C00
FF80
FF80
ENDCHAR
STARTCHAR Imacron
ENCODING 298
SWIDTH 585 0
DWIDTH 14 0
BBX 10 22 2 0
BITMAP
7F80
7F80
0000
0000
FFC0
FFC0
0C00
0C00
0C00
0C00
0C00
0C00
0C00
0C00
0C00
0C00
0C00
0C00
0C00
0C00
FFC0
FFC0
ENDCHAR
STARTCHAR imacron
ENCODING 299
SWIDTH 585 0
DWIDTH 14 0
BBX 9 17 3 0
BITMAP
FF00
FF00
0000
0000
FC00
FC00
1C00
1C00
1C00
1C00
1C00
1C00
1C00
1C00
1C00
FF80
FF80
ENDCHAR
STARTCHAR Ibreve
ENCODING 300
SWIDTH 585 0
DWIDTH 14 0
BBX 10 23 2 0
BITMAP
4080
6180
7F80
3F00
0000
FFC0
FFC0
0C00
0C00
0C00
0C00
0C00
0C00
0C00
0C00
0C00
0C00
0C00
0C00
0C00
0C00
FFC0
FFC0
ENDCHAR
STARTCHAR ibreve
ENCODING 301
SWIDTH 585 0
DWIDTH 14 0
BBX 9 18 3 0
BITMAP
4100
E380
7F00
3E00
0000
FC00
FC00
1C00
1C00
1C00
1C00
1C00
1C00
1C00
1C00
1C00
FF80
FF80
ENDCHAR
STARTCHAR Iogonek
ENCODING 302
SWIDTH 585 0
DWIDTH 14 0
BBX 10 23 2 -5
BITMAP
FFC0
FFC0
0C00
0C00
0C00
0C00
0C00
0C00
0C00
0C00
0C00
0C00
0C00
0C00
0C00
0C00
FFC0
FFC0
0E00
1800
1800
1E00
1E00
ENDCHAR
STARTCHAR iogonek
ENCODING 303
SWIDTH 585 0
DWIDTH 14 0
BBX 9 23 3 -5
BITMAP
1C00
1C00
1C00
0800
0000
FC00
FC00
1C00
1C00
1C00
1C00
1C00
1C00
1C00
1C00
1C00
FF80
FF80
1C00
3000
3000
3C00
3C00
ENDCHAR
STARTCHAR Idotaccent
ENCODING 304
SWIDTH 598 0
DWIDTH 14 0
BBX 10 23 2 0
BITMAP
0800
1C00
1E00
0C00
0000
FFC0
FFC0
0C00
0C00
0C00
0C00
0C00
0C00
0C00
0C00
0C00
0C00
0C00
0C00
0C00
0C00
FFC0
FFC0
ENDCHAR
STARTCHAR dotlessi
ENCODING 305
SWIDTH 598 0
DWIDTH 14 0
BBX 9 13 3 0
BITMAP
FC00
FC00
1C00
1C00
1C00
1C00
1C00
1C00
1C00
1C00
1C00
FF80
FF80
ENDCHAR
STARTCHAR IJ
ENCODING 306
SWIDTH 598 0
DWIDTH 14 0
BBX 14 23 0 -5
BITMAP
7FFC
7FFC
3838
3838
3838
3838
3838
3838
3838
3838
3838
3838
3838
3838
3838
3838
FE38
FE38
0038
0830
1EF0
0FE0
07C0
ENDCHAR
STARTCHAR ij
ENCODING 307
SWIDTH 598 0
DWIDTH 14 0
BBX 13 23 0 -5
BITMAP
0C38
1E38
1C38
0810
0000
7FF8
7FF8
1C38
1C38
1C38
1C38
1C38
1C38
1C38
1C38
1C38
FFB8
FFB8
0038
0C38
1EF0
0FE0
07C0
ENDCHAR
STARTCHAR Jcircumflex
ENCODING 308
SWIDTH 585 0
DWIDTH 14 0
BBX 12 23 1 0
BITMAP
0200
0F00
1F80
39E0
10C0
0FF0
0FF0
01C0
01C0
01C0
01C0
01C0
01C0
01C0
01C0
01C0
01C0
01C0
01C0
4380
F780
7F00
3E00
ENDCHAR
STARTCHAR jcircumflex
ENCODING 309
SWIDTH 585 0
DWIDTH 14 0
BBX 10 24 1 -5
BITMAP
0600
0700
0F80
1DC0
19C0
0080
3FC0
3FC0
01C0
01C0
01C0
01C0
01C0
01C0
01C0
01C0
01C0
01C0
01C0
01C0
41C0
F780
7F00
3E00
ENDCHAR
STARTCHAR Kcommaaccent
ENCODING 310
SWIDTH 585 0
DWIDTH 14 0
BBX 13 22 1 -4
BITMAP
E070
E0E0
E1E0
E3C0
E380
E700
EE00
FC00
FC00
FE00
E700
E700
E380
E1C0
E1E0
E0E0
E070
E778
0700
0600
0600
0600
ENDCHAR
STARTCHAR kcommaaccent
ENCODING 311
SWIDTH 585 0
DWIDTH 14 0
BBX 12 22 2 -4
BITMAP
E000
C000
C000
C000
C000
C0E0
C1C0
C380
C700
CE00
FC00
FE00
EF00
C700
C380
C1C0
C0E0
CEF0
0E00
0C00
0C00
0C00
ENDCHAR
STARTCHAR kgreenlandic
ENCODING 312
SWIDTH 598 0
DWIDTH 14 0
BBX 12 13 2 0
BITMAP
E0E0
C1C0
C380
C700
DE00
FC00
FE00
EF00
C700
C380
C1C0
C0E0
C0F0
ENDCHAR
STARTCHAR Lacute
ENCODING 313
SWIDTH 598 0
DWIDTH 14 0
BBX 11 23 2 0
BITMAP
0200
0F00
3E00
1000
0000
E000
C000
C000
C000
C000
C000
C000
C000
C000
C000
C000
C000
C000
C000
C000
C000
FFE0
FFE0
ENDCHAR
STARTCHAR lacute
ENCODING 314
SWIDTH 598 0
DWIDTH 14 0
BBX 10 23 2 0
BITMAP
0200
0F00
3E00
1000
0000
FE00
FE00
0E00
0E00
0E00
0E00
0E00
0E00
0E00
0E00
0E00
0E00
0E00
0E00
0E00
0E00
FFC0
FFC0
ENDCHAR
STARTCHAR Lcommaaccent
ENCODING 315
SWIDTH 585 0
DWIDTH 14 0
BBX 11 22 2 -4
BITMAP
E000
C000
C000
C000
C000
C000
C000
C000
C000
C000
C000
C000
C000
C000
C000
C000
FFE0
FFE0
0E00
0C00
0C00
0C00
ENDCHAR
STARTCHAR lcommaaccent
ENCODING 316
SWIDTH 585 0
DWIDTH 14 0
BBX 10 22 2 -4
BITMAP
FE00
FE00
0E00
0E00
0E00
0E00
0E00
0E00
0E00
0E00
0E00
0E00
0E00
0E00
0E00
0E00
FFC0
FFC0
0E00
0C00
0C00
0C00
ENDCHAR
STARTCHAR Lcaron
ENCODING 317
SWIDTH 598 0
DWIDTH 14 0
BBX 11 18 2 0
BITMAP
E1C0
C1C0
C1C0
C0C0
C180
C100
C000
C000
C000
C000
C000
C000
C000
C000
C000
C000
FFE0
FFE0
ENDCHAR
STARTCHAR lcaron
ENCODING 318
SWIDTH 598 0
DWIDTH 14 0
BBX 12 18 2 0
BITMAP
FC60
FCF0
1C70
1C60
1C60
1CC0
1C00
1C00
1C00
1C00
1C00
1C00
1C00
1C00
1C00
1C00
FFC0
FFC0
ENDCHAR
STARTCHAR Ldot
ENCODING 319
SWIDTH 585 0
DWIDTH 14 0
BBX 11 18 2 0
BITMAP
E000
C000
C000
C000
C000
C000
C000
C380
C780
C780
C300
C000
C000
C000
C000
C000
FFE0
FFE0
ENDCHAR
STARTCHAR ldot
ENCODING 320
SWIDTH 585 0
DWIDTH 14 0
BBX 13 18 1 0
BITMAP
FC00
FC00
0C00
0C00
0C00
0C00
0C00
0C70
0C70
0C78
0C70
0C00
0C00
0C00
0C00
0C00
FFC0
FFC0
ENDCHAR
STARTCHAR Lslash
ENCODING 321
SWIDTH 598 0
DWIDTH 14 0
BBX 13 18 0 0
BITMAP
3800
3800
3800
3800
3800
3800
3840
3BC0
3FC0
FF00
F800
F800
3800
3800
3800
3800
3FF8
3FF8
ENDCHAR
STARTCHAR lslash
ENCODING 322
SWIDTH 598 0
DWIDTH 14 0
BBX 10 18 2 0
BITMAP
FE00
FE00
0E00
0E00
0E00
0E00
0E00
0F80
0F80
3F00
3E00
0E00
0E00
0E00
0E00
0E00
FFC0
FFC0
ENDCHAR
STARTCHAR Nacute
ENCODING 323
SWIDTH 598 0
DWIDTH 14 0
BBX 12 22 1 0
BITMAP
0100
0780
1F00
0800
0000
E070
F070
F070
F870
FC70
EC70
EE70
E670
E770
E370
E3F0
E1F0
E1F0
E0F0
E070
E070
E030
ENDCHAR
STARTCHAR nacute
ENCODING 324
SWIDTH 598 0
DWIDTH 14 0
BBX 11 20 2 0
BITMAP
0200
0700
0700
0E00
0E00
0400
0000
EF00
FFC0
FFC0
F0C0
E0E0
E0E0
E0E0
E0E0
E0E0
E0E0
E0E0
E0E0
E0E0
ENDCHAR
STARTCHAR Ncommaaccent
ENCODING 325
SWIDTH 585 0
DWIDTH 14 0
BBX 12 21 1 -4
BITMAP
E070
F070
F070
F870
FC70
EC70
EE70
E670
E770
E370
E3F0
E1F0
E1F0
E0F0
E070
E070
E730
0700
0600
0600
0600
ENDCHAR
STARTCHAR ncommaaccent
ENCODING 326
SWIDTH 585 0
DWIDTH 14 0
BBX 11 17 2 -4
BITMAP
EF00
FFC0
FFC0
F0C0
E0E0
E0E0
E0E0
E0E0
E0E0
E0E0
E0E0
E0E0
EEE0
0E00
0C00
0C00
0C00
ENDCHAR
STARTCHAR Ncaron
ENCODING 327
SWIDTH 598 0
DWIDTH 14 0
BBX 12 23 1 0
BITMAP
1040
3DE0
1FC0
0F00
0200
0070
E070
F070
F070
F870
FC70
EC70
EE70
E670
E770
E370
E3F0
E1F0
E1F0
E0F0
E070
E070
E030
ENDCHAR
STARTCHAR ncaron
ENCODING 328
SWIDTH 598 0
DWIDTH 14 0
BBX 11 20 2 0
BITMAP
1100
7380
3B00
1F00
0E00
0400
0000
EF00
FFC0
FFC0
F0C0
E0E0
E0E0
E0E0
E0E0
E0E0
E0E0
E0E0
E0E0
E0E0
ENDCHAR
STARTCHAR napostrophe
ENCODING 329
SWIDTH 598 0
DWIDTH 14 0
BBX 14 18 0 0
BITMAP
6000
F000
F000
7000
3000
7EF0
EFF8
4FBC
0F1C
0E0C
0E0C
0E0C
0E0C
0E0C
0E0C
0E0C
0E0C
0E0C
ENDCHAR
STARTCHAR Eng
ENCODING 330
SWIDTH 598 0
DWIDTH 14 0
BBX 12 18 1 0
BITMAP
EFC0
FFE0
F8F0
F070
E070
E070
E070
E070
E070
E070
E070
E070
E070
E070
E070
E6F0
E7E0
E7C0
ENDCHAR
STARTCHAR eng
ENCODING 331
SWIDTH 598 0
DWIDTH 14 0
BBX 11 18 2 -5
BITMAP
EF00
FFC0
FFC0
F0C0
E0E0
E0E0
E0E0
E0E0
E0E0
E0E0
E0E0
E0E0
E0E0
00C0
01C0
1FC0
1F80
1F00
ENDCHAR
STARTCHAR Omacron
ENCODING 332
SWIDTH 585 0
DWIDTH 14 0
BBX 13 22 1 0
BITMAP
3FC0
3FC0
0000
0000
0F80
3FC0
7FE0
70F0
E070
E030
E038
C038
C038
C038
C038
E038
E030
E070
70F0
7FE0
3FC0
0F80
ENDCHAR
STARTCHAR omacron
ENCODING 333
SWIDTH 598 0
DWIDTH 14 0
BBX 12 17 1 0
BITMAP
3FC0
3FC0
0000
0000
0F80
3FC0
7DE0
7070
E070
E030
E030
E030
E070
7070
7DE0
3FC0
0F80
ENDCHAR
STARTCHAR Obreve
ENCODING 334
SWIDTH 585 0
DWIDTH 14 0
BBX 13 22 1 0
BITMAP
30C0
3FC0
1F80
0000
0F80
3FC0
7FE0
70F0
E070
E030
E038
C038
C038
C038
C038
E038
E030
E070
70F0
7FE0
3FC0
0F80
ENDCHAR
STARTCHAR obreve
ENCODING 335
SWIDTH 585 0
DWIDTH 14 0
BBX 12 18 1 0
BITMAP
1040
38E0
1FC0
0F80
0000
0F80
3FC0
7DE0
7070
E070
E030
E030
E030
E070
7070
7DE0
3FC0
0F80
ENDCHAR
STARTCHAR Ohungarumlaut
ENCODING 336
SWIDTH 598 0
DWIDTH 14 0
BBX 13 24 1 0
BITMAP
0420
0E70
1EF8
39E0
3180
0000
0F80
3FC0
7FE0
70F0
E070
E030
E038
C038
C038
C038
C038
E038
E030
E070
70F0
7FE0
3FC0
0F80
ENDCHAR
STARTCHAR ohungarumlaut
ENCODING 337
SWIDTH 598 0
DWIDTH 14 0
BBX 12 20 1 0
BITMAP
0440
0E60
0EE0
1DC0
39C0
1880
0000
0F80
3FC0
7DE0
7070
E070
E030
E030
E030
E070
7070
7DE0
3FC0
0F80
ENDCHAR
STARTCHAR OE
ENCODING 338
SWIDTH 598 0
DWIDTH 14 0
BBX 14 18 0 0
BITMAP
1FFC
3FFC
7380
6180
6180
E180
E180
E180
E1F8
E1F8
E180
E180
E180
6180
7180
7B80
3FFC
1FFC
ENDCHAR
STARTCHAR oe
ENCODING 339
SWIDTH 598 0
DWIDTH 14 0
BBX 14 13 0 0
BITMAP
1EF0
7FF8
779C
E30C
E70C
C7FC
C7FC
E700
E300
E300
778C
7FFC
1EF8
ENDCHAR
STARTCHAR Racute
ENCODING 340
SWIDTH 598 0
DWIDTH 14 0
BBX 12 23 1 0
BITMAP
0100
0780
1F00
0800
0000
FF80
FFE0
FFE0
E070
E070
E070
E070
E0F0
FFE0
FFC0
E380
E380
E1C0
E1C0
E0E0
E0E0
E070
E070
ENDCHAR
STARTCHAR racute
ENCODING 341
SWIDTH 598 0
DWIDTH 14 0
BBX 10 20 3 0
BITMAP
0400
0E00
0E00
1C00
1C00
0800
0000
CF80
DFC0
FDC0
F0C0
E000
E000
C000
C000
C000
C000
C000
C000
C000
ENDCHAR
STARTCHAR Rcommaaccent
ENCODING 342
SWIDTH 585 0
DWIDTH 14 0
BBX 12 22 1 -4
BITMAP
FF80
FFE0
FFE0
E070
E070
E070
E070
E0F0
FFE0
FFC0
E380
E380
E1C0
E1C0
E0E0
E0E0
E070
E770
0700
0600
0600
0600
ENDCHAR
STARTCHAR rcommaaccent
ENCODING 343
SWIDTH 585 0
DWIDTH 14 0
BBX 10 17 3 -4
BITMAP
CF80
DFC0
FDC0
F0C0
E000
E000
C000
C000
C000
C000
C000
C000
DC00
1C00
1800
1800
1800
ENDCHAR
STARTCHAR Rcaron
ENCODING 344
SWIDTH 598 0
DWIDTH 14 0
BBX 12 24 1 0
BITMAP
1040
38C0
1FC0
0F80
0600
0000
FF80
FFE0
FFE0
E070
E070
E070
E070
E0F0
FFE0
FFC0
E380
E380
E1C0
E1C0
E0E0
E0E0
E070
E070
ENDCHAR
STARTCHAR rcaron
ENCODING 345
SWIDTH 598 0
DWIDTH 14 0
BBX 10 20 3 0
BITMAP
2200
E700
7600
3E00
1C00
0800
0000
CF80
DFC0
FDC0
F0C0
E000
E000
C000
C000
C000
C000
C000
C000
C000
ENDCHAR
STARTCHAR Sacute
ENCODING 346
SWIDTH 598 0
DWIDTH 14 0
BBX 12 23 1 0
BITMAP
0100
0780
1F00
0800
0000
0F80
3FE0
38F0
7060
7020
7000
7800
3C00
1F80
07E0
01F0
0070
0030
4070
6070
FDF0
7FE0
1F80
ENDCHAR
STARTCHAR sacute
ENCODING 347
SWIDTH 598 0
DWIDTH 14 0
BBX 12 20 1 0
BITMAP
0100
0380
0380
0700
0700
0200
0000
0F80
3FE0
78F0
7060
7800
3F00
0FC0
01E0
0070
6070
F9E0
7FE0
1F80
ENDCHAR
STARTCHAR Scircumflex
ENCODING 348
SWIDTH 585 0
DWIDTH 14 0
BBX 12 23 1 0
BITMAP
0200
0F00
1F80
39E0
10C0
0F80
3FE0
38F0
7060
7020
7000
7800
3C00
1F80
07E0
01F0
0070
0030
4070
6070
FDF0
7FE0
1F80
ENDCHAR
STARTCHAR scircumflex
ENCODING 349
SWIDTH 585 0
DWIDTH 14 0
BBX 12 19 1 0
BITMAP
0600
0700
0F80
1DC0
19C0
0080
0F80
3FE0
78F0
7060
7800
3F00
0FC0
01E0
0070
6070
F9E0
7FE0
1F80
ENDCHAR
STARTCHAR Scedilla
ENCODING 350
SWIDTH 598 0
DWIDTH 14 0
BBX 12 23 1 -5
BITMAP
0F80
3FE0
38F0
7060
7020
7000
7800
3C00
1F80
07E0
01F0
0070
0030
4070
6070
FDF0
7FE0
1F80
0600
0780
1180
1F80
0400
ENDCHAR
STARTCHAR scedilla
ENCODING 351
SWIDTH 598 0
DWIDTH 14 0
BBX 12 18 1 -5
BITMAP
0F80
3FE0
78F0
7060
7800
3F00
0FC0
01E0
0070
6070
F9E0
7FE0
1F80
0200
0780
1980
1F80
0200
ENDCHAR
STARTCHAR Scaron
ENCODING 352
SWIDTH 598 0
DWIDTH 14 0
BBX 12 24 1 0
BITMAP
1000
18E0
1FC0
0F80
0700
0000
0F80
3FE0
38F0
7060
7020
7000
7800
3C00
1F80
07E0
01F0
0070
0030
4070
6070
FDF0
7FE0
1F80
ENDCHAR
STARTCHAR scaron
ENCODING 353
SWIDTH 598 0
DWIDTH 14 0
BBX 12 20 1 0
BITMAP
0880
39C0
1D80
0F80
0700
0200
0000
0F80
3FE0
78F0
7060
7800
3F00
0FC0
01E0
0070
6070
F9E0
7FE0
1F80
ENDCHAR
STARTCHAR Tcedilla
ENCODING 354
SWIDTH 598 0
DWIDTH 14 0
BBX 12 23 1 -5
BITMAP
FFF0
FFF0
0600
0600
0600
0600
0600
0600
0600
0600
0600
0600
0600
0600
0600
0600
0600
0600
0600
0700
0780
1F80
1F00
ENDCHAR
STARTCHAR tcedilla
ENCODING 355
SWIDTH 598 0
DWIDTH 14 0
BBX 11 22 2 -5
BITMAP
0C00
1C00
1C00
1C00
FFC0
FFC0
1800
1800
1800
1800
1800
1800
1800
1C00
1FE0
1FE0
0F80
0200
0380
18C0
1F80
0200
ENDCHAR
STARTCHAR Tcaron
ENCODING 356
SWIDTH 598 0
DWIDTH 14 0
BBX 12 24 1 0
BITMAP
1040
38C0
1FC0
0F80
0600
0000
FFF0
FFF0
0600
0600
0600
0600
0600
0600
0600
0600
0600
0600
0600
0600
0600
0600
0600
0600
ENDCHAR
STARTCHAR tcaron
ENCODING 357
SWIDTH 598 0
DWIDTH 14 0
BBX 13 20 1 0
BITMAP
0030
0078
0038
0C18
1C30
1C60
1C00
FFC0
FFC0
1C00
1C00
1C00
1C00
1C00
1C00
1C00
1C20
1FE0
0FE0
0780
ENDCHAR
STARTCHAR Tbar
ENCODING 358
SWIDTH 598 0
DWIDTH 14 0
BBX 12 18 1 0
BITMAP
FFF0
FFF0
0600
0600
0600
0600
0600
7FE0
7FE0
0600
0600
0600
0600
0600
0600
0600
0600
0600
ENDCHAR
STARTCHAR tbar
ENCODING 359
SWIDTH 598 0
DWIDTH 14 0
BBX 11 17 2 0
BITMAP
0C00
1C00
1C00
1C00
FFC0
FFC0
1800
1800
1800
FF80
FF80
1800
1800
1C00
1FE0
1FE0
0F80
ENDCHAR
STARTCHAR Utilde
ENCODING 360
SWIDTH 585 0
DWIDTH 14 0
BBX 12 23 1 0
BITMAP
1E40
3F60
37E0
03C0
0000
E030
E030
E030
E030
E030
E030
E030
E030
E030
E030
E030
E030
E030
E070
7070
79E0
3FC0
1F80
ENDCHAR
STARTCHAR utilde
ENCODING 361
SWIDTH 585 0
DWIDTH 14 0
BBX 11 19 2 0
BITMAP
3C00
7FC0
67C0
0000
0000
0000
C0E0
C0E0
C0E0
C0E0
C0E0
C0E0
C0E0
C0E0
C0E0
E1E0
F3E0
7FE0
3EE0
ENDCHAR
STARTCHAR Umacron
ENCODING 362
SWIDTH 585 0
DWIDTH 14 0
BBX 12 22 1 0
BITMAP
3FC0
3FC0
0000
0000
E030
E030
E030
E030
E030
E030
E030
E030
E030
E030
E030
E030
E030
E070
7070
79E0
3FC0
1F80
ENDCHAR
STARTCHAR umacron
ENCODING 363
SWIDTH 585 0
DWIDTH 14 0
BBX 11 17 2 0
BITMAP
7F80
7F80
0000
0000
C0E0
C0E0
C0E0
C0E0
C0E0
C0E0
C0E0
C0E0
C0E0
E1E0
F3E0
7FE0
3EE0
ENDCHAR
STARTCHAR Ubreve
ENCODING 364
SWIDTH 585 0
DWIDTH 14 0
BBX 12 23 1 0
BITMAP
2040
30C0
3FC0
1F80
0000
E030
E030
E030
E030
E030
E030
E030
E030
E030
E030
E030
E030
E030
E070
7070
79E0
3FC0
1F80
ENDCHAR
STARTCHAR ubreve
ENCODING 365
SWIDTH 585 0
DWIDTH 14 0
BBX 11 18 2 0
BITMAP
2080
71C0
3F80
1F00
0000
C0E0
C0E0
C0E0
C0E0
C0E0
C0E0
C0E0
C0E0
C0E0
E1E0
F3E0
7FE0
3EE0
ENDCHAR
STARTCHAR Uring
ENCODING 366
SWIDTH 598 0
DWIDTH 14 0
BBX 12 23 1 0
BITMAP
0700
0F80
0980
0980
0D80
EF30
E230
E030
E030
E030
E030
E030
E030
E030
E030
E030
E030
E030
E070
7070
79E0
3FC0
1F80
ENDCHAR
STARTCHAR uring
ENCODING 367
SWIDTH 598 0
DWIDTH 14 0
BBX 11 19 2 0
BITMAP
1E00
1B00
1B00
1F00
0400
0000
C0E0
C0E0
C0E0
C0E0
C0E0
C0E0
C0E0
C0E0
C0E0
E1E0
F3E0
7FE0
3EE0
ENDCHAR
STARTCHAR Uhungarumlaut
ENCODING 368
SWIDTH 598 0
DWIDTH 14 0
BBX 13 23 1 0
BITMAP
0420
0E70
1EF8
39E0
2180
E030
E030
E030
E030
E030
E030
E030
E030
E030
E030
E030
E030
E030
E070
7070
79E0
3FC0
1F80
ENDCHAR
STARTCHAR uhungarumlaut
ENCODING 369
SWIDTH 598 0
DWIDTH 14 0
BBX 11 20 2 0
BITMAP
0880
1CC0
1DC0
3B80
7380
3100
0000
C0E0
C0E0
C0E0
C0E0
C0E0
C0E0
C0E0
C0E0
C0E0
E1E0
F3E0
7FE0
3EE0
ENDCHAR
STARTCHAR Uogonek
ENCODING 370
SWIDTH 598 0
DWIDTH 14 0
BBX 12 23 1 -5
BITMAP
E030
E030
E030
E030
E030
E030
E030
E030
E030
E030
E030
E030
E030
E070
7070
79E0
3FE0
1FC0
0300
0600
0600
0780
0300
ENDCHAR
STARTCHAR uogonek
ENCODING 371
SWIDTH 585 0
DWIDTH 14 0
BBX 11 18 2 -5
BITMAP
C0E0
C0E0
C0E0
C0E0
C0E0
C0E0
C0E0
C0E0
C0E0
E1E0
F3E0
7FE0
3EE0
00C0
0180
0320
03E0
0080
ENDCHAR
STARTCHAR Wcircumflex
ENCODING 372
SWIDTH 585 0
DWIDTH 14 0
BBX 14 23 0 0
BITMAP
0100
0780
0FC0
1CE0
0860
E00C
610C
610C
639C
739C
7398
7398
77D8
36D8
36D8
34F8
3CF0
3C70
3C70
1870
1870
1830
1820
ENDCHAR
STARTCHAR wcircumflex
ENCODING 373
SWIDTH 585 0
DWIDTH 14 0
BBX 14 19 0 0
BITMAP
0300
0380
07C0
0EE0
0CE0
0040
E01C
E01C
631C
639C
7398
7798
37D8
36D8
36D8
3CF8
3C70
1C70
1870
ENDCHAR
STARTCHAR Ycircumflex
ENCODING 374
SWIDTH 585 0
DWIDTH 14 0
BBX 13 23 1 0
BITMAP
0200
0F00
1F80
39C0
10C0
E038
E070
7070
7060
38E0
38C0
1DC0
1D80
0F80
0F80
0700
0700
0700
0700
0700
0700
0700
0700
ENDCHAR
STARTCHAR ycircumflex
ENCODING 375
SWIDTH 585 0
DWIDTH 14 0
BBX 13 25 0 -5
BITMAP
0100
0380
07C0
0FC0
1CE0
0840
0000
7018
3038
3838
3830
1C70
1C70
0C60
0EE0
06C0
07C0
07C0
0380
0380
0380
0700
6F00
FE00
3C00
ENDCHAR
STARTCHAR Ydieresis
ENCODING 376
SWIDTH 598 0
DWIDTH 14 0
BBX 13 23 1 0
BITMAP
1080
39C0
39E0
38C0
0000
E038
E070
7070
7060
38E0
38C0
1DC0
1D80
0F80
0F80
0700
0700
0700
0700
0700
0700
0700
0700
ENDCHAR
STARTCHAR Zacute
ENCODING 377
SWIDTH 598 0
DWIDTH 14 0
BBX 12 23 1 0
BITMAP
0100
0780
1F00
0800
0000
7FF0
7FF0
0070
00E0
01C0
01C0
0380
0380
0700
0E00
0E00
1C00
1C00
3800
7000
7010
FFF0
FFF0
ENDCHAR
STARTCHAR zacute
ENCODING 378
SWIDTH 598 0
DWIDTH 14 0
BBX 12 20 1 0
BITMAP
0100
0380
0380
0700
0700
0200
0000
7FE0
7FE0
00E0
01C0
0380
0700
0E00
1E00
1C00
3800
7010
FFF0
FFF0
ENDCHAR
STARTCHAR Zdotaccent
ENCODING 379
SWIDTH 598 0
DWIDTH 14 0
BBX 12 23 1 0
BITMAP
0200
0700
0700
0700
0000
7FF0
7FF0
0070
00E0
01C0
01C0
0380
0380
0700
0E00
0E00
1C00
1C00
3800
7000
7010
FFF0
FFF0
ENDCHAR
STARTCHAR zdot
ENCODING 380
SWIDTH 598 0
DWIDTH 14 0
BBX 12 18 1 0
BITMAP
0700
0700
0700
0200
0000
7FE0
7FE0
00E0
01C0
0380
0700
0E00
1E00
1C00
3800
7010
FFF0
FFF0
ENDCHAR
STARTCHAR Zcaron
ENCODING 381
SWIDTH 598 0
DWIDTH 14 0
BBX 12 24 1 0
BITMAP
1040
38C0
1FC0
0F80
0600
0000
7FF0
7FF0
0070
00E0
01C0
01C0
0380
0380
0700
0E00
0E00
1C00
1C00
3800
7000
7010
FFF0
FFF0
ENDCHAR
STARTCHAR zcaron
ENCODING 382
SWIDTH 598 0
DWIDTH 14 0
BBX 12 21 1 0
BITMAP
0880
18C0
1DC0
0F80
0700
0600
0000
0000
7FE0
7FE0
00E0
01C0
0380
0700
0E00
1E00
1C00
3800
7010
FFF0
FFF0
ENDCHAR
STARTCHAR longs
ENCODING 383
SWIDTH 598 0
DWIDTH 14 0
BBX 10 18 4 0
BITMAP
1F00
3FC0
79C0
6080
E000
E000
E000
E000
E000
E000
E000
E000
E000
E000
E000
E000
E000
E000
ENDCHAR
STARTCHAR florin
ENCODING 402
SWIDTH 598 0
DWIDTH 14 0
BBX 14 24 0 -5
BITMAP
00F8
01FC
01DC
0388
0380
0300
0300
0300
3FF0
3FF0
0700
0700
0700
0700
0700
0700
0700
0600
0600
0600
0E00
7E00
FC00
7800
ENDCHAR
STARTCHAR Aringacute
ENCODING 506
SWIDTH 585 0
DWIDTH 14 0
BBX 14 26 0 -1
BITMAP
0080
03C0
0F80
0400
0780
0CC0
0CC0
0780
0300
0300
0700
0780
0780
0FC0
0DC0
0CC0
1CE0
1860
1FF0
3FF0
3030
3038
7038
6018
E01C
E000
ENDCHAR
STARTCHAR aringacute
ENCODING 507
SWIDTH 585 0
DWIDTH 14 0
BBX 12 22 1 0
BITMAP
0100
0780
1F00
0800
0700
0D80
0980
0F80
0700
0F80
3FC0
39E0
2070
0070
0FF0
3FF0
7870
E070
E070
F1F0
7FF0
1F70
ENDCHAR
STARTCHAR AEacute
ENCODING 508
SWIDTH 585 0
DWIDTH 14 0
BBX 14 23 0 0
BITMAP
0080
03C0
0F80
0400
0000
07FC
07FC
0780
0F80
0D80
0D80
1D80
1D80
19F8
19F8
3980
3F80
3F80
7180
7180
6180
E1FC
E1FC
ENDCHAR
STARTCHAR aeacute
ENCODING 509
SWIDTH 585 0
DWIDTH 14 0
BBX 14 20 0 0
BITMAP
0080
01C0
01C0
0380
0380
0100
0000
3CF0
7FF8
67DC
038C
030C
1FFC
7FFC
7300
E300
E380
E3CC
7FFC
3C78
ENDCHAR
STARTCHAR Oslashacute
ENCODING 510
SWIDTH 585 0
DWIDTH 14 0
BBX 13 24 1 -1
BITMAP
0100
0780
1F00
0800
0038
0FB0
3FF0
7FE0
70F0
E0F0
E1B0
E3B8
C338
C738
C638
CE38
EC38
FC30
F870
78F0
7FE0
7FC0
EF80
C000
ENDCHAR
STARTCHAR oslashacute
ENCODING 511
SWIDTH 585 0
DWIDTH 14 0
BBX 12 21 1 -1
BITMAP
0100
0380
0380
0700
0700
0240
0070
0FE0
3FC0
7DE0
71F0
E370
E330
E630
EE30
EC70
7C70
7DE0
3FC0
7F80
6000
ENDCHAR
STARTCHAR Scommaaccent
ENCODING 536
SWIDTH 598 0
DWIDTH 14 0
BBX 12 22 1 -4
BITMAP
0F80
3FE0
38F0
7060
7020
7000
7800
3C00
1F80
07E0
01F0
0070
0030
4070
6070
FDF0
7FE0
1F80
0700
0600
0600
0600
ENDCHAR
STARTCHAR scommaaccent
ENCODING 537
SWIDTH 598 0
DWIDTH 14 0
BBX 12 17 1 -4
BITMAP
0F80
3FE0
78F0
7060
7800
3F00
0FC0
01E0
0070
6070
F9E0
7FE0
1F80
0700
0600
0600
0600
ENDCHAR
STARTCHAR uni021A
ENCODING 538
SWIDTH 598 0
DWIDTH 14 0
BBX 12 22 1 -4
BITMAP
FFF0
FFF0
0600
0600
0600
0600
0600
0600
0600
0600
0600
0600
0600
0600
0600
0600
0600
0700
0700
0600
0600
0600
ENDCHAR
STARTCHAR uni021B
ENCODING 539
SWIDTH 598 0
DWIDTH 14 0
BBX 11 21 2 -4
BITMAP
0C00
1C00
1C00
1C00
FFC0
FFC0
1800
1800
1800
1800
1800
1800
1800
1C00
1FE0
1FE0
0F80
0E00
0C00
0C00
0C00
ENDCHAR
STARTCHAR dotlessj
ENCODING 567
SWIDTH 598 0
DWIDTH 14 0
BBX 10 18 1 -5
BITMAP
3FC0
3FC0
01C0
01C0
01C0
01C0
01C0
01C0
01C0
01C0
01C0
01C0
01C0
01C0
41C0
F780
7F00
3E00
ENDCHAR
STARTCHAR circumflex
ENCODING 710
SWIDTH 598 0
DWIDTH 14 0
BBX 7 6 4 13
BITMAP
30
38
7C
EE
CE
04
ENDCHAR
STARTCHAR caron
ENCODING 711
SWIDTH 598 0
DWIDTH 14 0
BBX 8 6 3 14
BITMAP
22
E7
76
3E
1C
08
ENDCHAR
STARTCHAR uni02C9
ENCODING 713
SWIDTH 598 0
DWIDTH 14 0
BBX 8 2 3 15
BITMAP
FF
FF
ENDCHAR
STARTCHAR uni02CB
ENCODING 715
SWIDTH 598 0
DWIDTH 14 0
BBX 5 6 5 14
BITMAP
40
E0
F0
70
38
10
ENDCHAR
STARTCHAR breve
ENCODING 728
SWIDTH 598 0
DWIDTH 14 0
BBX 9 4 3 14
BITMAP
8100
E380
FF00
3C00
ENDCHAR
STARTCHAR dotaccent
ENCODING 729
SWIDTH 598 0
DWIDTH 14 0
BBX 3 4 6 14
BITMAP
E0
E0
E0
40
ENDCHAR
STARTCHAR ring
ENCODING 730
SWIDTH 598 0
DWIDTH 14 0
BBX 5 5 5 14
BITMAP
F0
D8
98
F8
70
ENDCHAR
STARTCHAR ogonek
ENCODING 731
SWIDTH 598 0
DWIDTH 14 0
BBX 4 5 8 -5
BITMAP
70
60
C0
F0
F0
ENDCHAR
STARTCHAR tilde
ENCODING 732
SWIDTH 598 0
DWIDTH 14 0
BBX 10 3 2 16
BITMAP
3C00
FFC0
6780
ENDCHAR
STARTCHAR hungarumlaut
ENCODING 733
SWIDTH 598 0
DWIDTH 14 0
BBX 9 6 3 14
BITMAP
1100
3980
3B80
7700
E700
6200
ENDCHAR
STARTCHAR uni037E
ENCODING 894
SWIDTH 598 0
DWIDTH 14 0
BBX 4 17 5 -5
BITMAP
60
F0
F0
60
00
00
00
00
00
60
F0
F0
F0
70
60
C0
80
ENDCHAR
STARTCHAR tonos
ENCODING 900
SWIDTH 598 0
DWIDTH 14 0
BBX 3 5 6 15
BITMAP
E0
E0
C0
C0
C0
ENDCHAR
STARTCHAR dieresistonos
ENCODING 901
SWIDTH 598 0
DWIDTH 14 0
BBX 9 7 3 12
BITMAP
0C00
0C00
1C00
5E00
FF80
E780
E300
ENDCHAR
STARTCHAR Alphatonos
ENCODING 902
SWIDTH 598 0
DWIDTH 14 0
BBX 14 20 0 -1
BITMAP
3800
3A00
3B00
3300
3700
0780
0780
0FC0
0DC0
0CC0
1CE0
1860
1FF0
3FF0
3030
3038
7038
6018
E01C
E000
ENDCHAR
STARTCHAR anoteleia
ENCODING 903
SWIDTH 598 0
DWIDTH 14 0
BBX 4 4 5 9
BITMAP
E0
F0
F0
60
ENDCHAR
STARTCHAR Epsilontonos
ENCODING 904
SWIDTH 598 0
DWIDTH 14 0
BBX 15 20 -2 0
BITMAP
E000
E000
EFFE
CFFE
CC00
0C00
0C00
0C00
0C00
0C00
0FF8
0FF8
0C00
0C00
0C00
0C00
0C00
0C00
0FFE
0FFE
ENDCHAR
STARTCHAR Etatonos
ENCODING 905
SWIDTH 598 0
DWIDTH 14 0
BBX 15 20 -2 0
BITMAP
E000
E000
FC0E
DC0E
DC0E
1C0E
1C0E
1C0E
1C0E
1C0E
1FFE
1FFE
1C0E
1C0E
1C0E
1C0E
1C0E
1C0E
1C0E
1C0E
ENDCHAR
STARTCHAR Iotatonos
ENCODING 906
SWIDTH 598 0
DWIDTH 14 0
BBX 13 20 -1 0
BITMAP
E000
E000
EFF8
CFF8
C180
0180
0180
0180
0180
0180
0180
0180
0180
0180
0180
0180
0180
0180
1FF8
1FF8
ENDCHAR
STARTCHAR Omicrontonos
ENCODING 908
SWIDTH 598 0
DWIDTH 14 0
BBX 14 20 0 0
BITMAP
E000
E000
E7C0
DFE0
FFF0
3878
7038
7018
701C
601C
601C
601C
601C
701C
7018
7038
3878
3FF0
1FE0
07C0
ENDCHAR
STARTCHAR Upsilontonos
ENCODING 910
SWIDTH 598 0
DWIDTH 14 0
BBX 17 19 -3 0
BITMAP
700000
6E0380
6E0700
670700
C70600
038E00
038C00
01DC00
01D800
00F800
00F800
007000
007000
007000
007000
007000
007000
007000
007000
ENDCHAR
STARTCHAR Omegatonos
ENCODING 911
SWIDTH 598 0
DWIDTH 14 0
BBX 13 20 0 0
BITMAP
E000
E000
EFC0
DFE0
FCF0
3870
3038
7038
7038
7038
7018
7018
7038
7038
3038
3870
1870
7CF8
7CF8
7CF8
ENDCHAR
STARTCHAR iotadieresistonos
ENCODING 912
SWIDTH 598 0
DWIDTH 14 0
BBX 10 21 2 0
BITMAP
0700
0600
0600
0600
2680
73C0
73C0
7180
FE00
FE00
8E00
8E00
0E00
0E00
0E00
0E00
0E00
0E00
0F00
0F00
0700
ENDCHAR
STARTCHAR Alpha
ENCODING 913
SWIDTH 598 0
DWIDTH 14 0
BBX 14 19 0 -1
BITMAP
0200
0300
0300
0700
0780
0780
0FC0
0DC0
0CC0
1CE0
1860
1FF0
3FF0
3030
3038
7038
6018
E01C
E000
ENDCHAR
STARTCHAR Beta
ENCODING 914
SWIDTH 598 0
DWIDTH 14 0
BBX 12 18 1 0
BITMAP
FF80
FFC0
E1E0
E060
E070
E070
E0E0
FFC0
FFC0
E1E0
E070
E070
E030
E070
E070
E1F0
FFE0
FF80
ENDCHAR
STARTCHAR Gamma
ENCODING 915
SWIDTH 598 0
DWIDTH 14 0
BBX 11 18 2 0
BITMAP
FFE0
FFE0
C000
C000
C000
C000
C000
C000
C000
C000
C000
C000
C000
C000
C000
C000
C000
C000
ENDCHAR
STARTCHAR Delta
ENCODING 916
SWIDTH 598 0
DWIDTH 14 0
BBX 14 18 0 0
BITMAP
0200
0300
0300
0700
0780
0780
0FC0
0CC0
0CC0
1CE0
1860
3870
3870
3030
7038
7FF8
7FFC
FFFC
ENDCHAR
STARTCHAR Epsilon
ENCODING 917
SWIDTH 598 0
DWIDTH 14 0
BBX 11 18 2 0
BITMAP
FFE0
FFE0
C000
C000
C000
C000
C000
C000
FF80
FF80
C000
C000
C000
C000
C000
C000
FFE0
FFE0
ENDCHAR
STARTCHAR Zeta
ENCODING 918
SWIDTH 598 0
DWIDTH 14 0
BBX 12 18 1 0
BITMAP
7FF0
7FF0
0070
00E0
01C0
01C0
0380
0380
0700
0E00
0E00
1C00
1C00
3800
7000
7010
FFF0
FFF0
ENDCHAR
STARTCHAR Eta
ENCODING 919
SWIDTH 598 0
DWIDTH 14 0
BBX 12 18 1 0
BITMAP
E070
E070
E070
E070
E070
E070
E070
E070
FFF0
FFF0
E070
E070
E070
E070
E070
E070
E070
E070
ENDCHAR
STARTCHAR Theta
ENCODING 920
SWIDTH 598 0
DWIDTH 14 0
BBX 13 18 1 0
BITMAP
0600
1FC0
7FE0
70F0
E070
E030
E038
C038
DFB8
DFB8
DFB8
E038
E030
E070
7070
7DE0
3FE0
0F80
ENDCHAR
STARTCHAR Iota
ENCODING 921
SWIDTH 598 0
DWIDTH 14 0
BBX 10 18 2 0
BITMAP
7FC0
7FC0
0C00
0C00
0C00
0C00
0C00
0C00
0C00
0C00
0C00
0C00
0C00
0C00
0C00
0C00
FFC0
FFC0
ENDCHAR
STARTCHAR Kappa
ENCODING 922
SWIDTH 598 0
DWIDTH 14 0
BBX 13 18 1 0
BITMAP
E070
E0E0
E1E0
E3C0
E380
E700
EE00
FC00
FC00
FE00
E700
E700
E380
E1C0
E1E0
E0E0
E070
E078
ENDCHAR
STARTCHAR Lambda
ENCODING 923
SWIDTH 598 0
DWIDTH 14 0
BBX 14 18 0 -1
BITMAP
0300
0300
0300
0780
0780
0F80
0DC0
0CC0
1CE0
18E0
1860
3870
3030
3038
7038
6018
E01C
E000
ENDCHAR
STARTCHAR Mu
ENCODING 924
SWIDTH 598 0
DWIDTH 14 0
BBX 12 18 1 0
BITMAP
C030
E030
E070
F070
F0F0
F8F0
F9B0
FDB0
EF30
EF30
E630
E630
E030
E030
E030
E030
E030
E030
ENDCHAR
STARTCHAR Nu
ENCODING 925
SWIDTH 598 0
DWIDTH 14 0
BBX 12 17 1 0
BITMAP
E070
F070
F070
F870
FC70
EC70
EE70
E670
E770
E370
E3F0
E1F0
E1F0
E0F0
E070
E070
E030
ENDCHAR
STARTCHAR Xi
ENCODING 926
SWIDTH 598 0
DWIDTH 14 0
BBX 10 18 2 0
BITMAP
FFC0
FFC0
FFC0
0000
0000
0000
0000
7F80
7F80
7F80
0000
0000
0000
0000
0000
FFC0
FFC0
FFC0
ENDCHAR
STARTCHAR Omicron
ENCODING 927
SWIDTH 598 0
DWIDTH 14 0
BBX 13 18 1 0
BITMAP
0F80
3FC0
7FE0
70F0
E070
E030
E038
C038
C038
C038
C038
E038
E030
E070
70F0
7FE0
3FC0
0F80
ENDCHAR
STARTCHAR Pi
ENCODING 928
SWIDTH 598 0
DWIDTH 14 0
BBX 11 18 2 0
BITMAP
FFE0
FFE0
C0E0
C0E0
C0E0
C0E0
C0E0
C0E0
C0E0
C0E0
C0E0
C0E0
C0E0
C0E0
C0E0
C0E0
C0E0
C0E0
ENDCHAR
STARTCHAR Rho
ENCODING 929
SWIDTH 598 0
DWIDTH 14 0
BBX 11 18 2 0
BITMAP
FF00
FFC0
FFE0
C0E0
C0E0
C060
C0E0
C1E0
FFC0
FF80
C000
C000
C000
C000
C000
C000
C000
C000
ENDCHAR
STARTCHAR Sigma
ENCODING 931
SWIDTH 598 0
DWIDTH 14 0
BBX 12 18 1 0
BITMAP
7FF0
7FF0
7000
3800
3800
1C00
1C00
0E00
0E00
0600
0E00
1C00
1C00
3800
3800
7000
FFF0
FFF0
ENDCHAR
STARTCHAR Tau
ENCODING 932
SWIDTH 598 0
DWIDTH 14 0
BBX 12 18 1 0
BITMAP
FFF0
FFF0
0600
0600
0600
0600
0600
0600
0600
0600
0600
0600
0600
0600
0600
0600
0600
0600
ENDCHAR
STARTCHAR Upsilon
ENCODING 933
SWIDTH 598 0
DWIDTH 14 0
BBX 13 18 1 0
BITMAP
E038
E070
7070
7060
38E0
38C0
1DC0
1D80
0F80
0F80
0700
0700
0700
0700
0700
0700
0700
0700
ENDCHAR
STARTCHAR Phi
ENCODING 934
SWIDTH 598 0
DWIDTH 14 0
BBX 15 17 0 0
BITMAP
0FC0
1FF0
3BF8
73B8
E39C
E38C
E38C
C38E
E38C
E38C
E39C
73B8
3BF8
1FF0
0FC0
0300
0300
ENDCHAR
STARTCHAR Chi
ENCODING 935
SWIDTH 598 0
DWIDTH 14 0
BBX 12 18 1 0
BITMAP
E070
70E0
70E0
39C0
39C0
1F80
1F80
0F00
0F00
0F00
0F00
1F80
1D80
39C0
38E0
70E0
7070
E070
ENDCHAR
STARTCHAR Psi
ENCODING 936
SWIDTH 598 0
DWIDTH 14 0
BBX 12 18 1 0
BITMAP
E070
E770
E770
E770
E770
E770
E770
E770
E770
7770
77E0
3FC0
0F80
0700
0700
0700
0700
0700
ENDCHAR
STARTCHAR Omega
ENCODING 937
SWIDTH 598 0
DWIDTH 14 0
BBX 12 18 1 0
BITMAP
1F80
3FC0
79E0
70E0
6070
E070
E070
E070
E030
E030
E070
E070
6070
70E0
30E0
F9F0
F9F0
F9F0
ENDCHAR
STARTCHAR Iotadieresis
ENCODING 938
SWIDTH 598 0
DWIDTH 14 0
BBX 10 23 2 0
BITMAP
2100
7380
F380
6380
0000
7FC0
7FC0
0C00
0C00
0C00
0C00
0C00
0C00
0C00
0C00
0C00
0C00
0C00
0C00
0C00
0C00
FFC0
FFC0
ENDCHAR
STARTCHAR Upsilondieresis
ENCODING 939
SWIDTH 598 0
DWIDTH 14 0
BBX 13 23 1 0
BITMAP
1080
39E0
39E0
38C0
0000
E038
E070
7070
7060
38E0
38C0
1DC0
1D80
0F80
0F80
0700
0700
0700
0700
0700
0700
0700
0700
ENDCHAR
STARTCHAR alphatonos
ENCODING 940
SWIDTH 598 0
DWIDTH 14 0
BBX 13 19 1 0
BITMAP
0700
0700
0700
0600
0600
0000
3F70
7FF0
F1E0
E0E0
C0E0
C0E0
C0E0
C0E0
E0E0
E0E0
7FF0
3FF0
1F38
ENDCHAR
STARTCHAR epsilontonos
ENCODING 941
SWIDTH 598 0
DWIDTH 14 0
BBX 11 19 2 0
BITMAP
0E00
0E00
0E00
0C00
0C00
0000
3F00
7FC0
FFC0
E080
E000
FE00
7E00
FE00
C000
E0C0
FFE0
7FC0
3F00
ENDCHAR
STARTCHAR etatonos
ENCODING 942
SWIDTH 598 0
DWIDTH 14 0
BBX 11 23 2 -4
BITMAP
0700
0700
0600
0600
0600
0000
EF80
FFC0
FDC0
F0E0
E0E0
E0E0
E0E0
E0E0
E0E0
E0E0
E0E0
E0E0
E0E0
00E0
00E0
00E0
00E0
ENDCHAR
STARTCHAR iotatonos
ENCODING 943
SWIDTH 598 0
DWIDTH 14 0
BBX 8 19 2 0
BITMAP
0E
0E
0E
0C
0C
00
FE
FE
8E
8E
0E
0E
0E
0E
0E
0E
0F
0F
07
ENDCHAR
STARTCHAR upsilondieresistonos
ENCODING 944
SWIDTH 598 0
DWIDTH 14 0
BBX 13 21 0 0
BITMAP
0380
0300
0300
1340
3BE0
3DE0
18C0
0000
7038
F038
3038
3038
3038
3038
3038
3038
3038
3870
3FF0
1FE0
0780
ENDCHAR
STARTCHAR alpha
ENCODING 945
SWIDTH 598 0
DWIDTH 14 0
BBX 13 13 1 0
BITMAP
3F70
7FF0
F1E0
E0E0
C0E0
C0E0
C0E0
C0E0
E0E0
E0E0
7FF0
3FF0
1F38
ENDCHAR
STARTCHAR beta
ENCODING 946
SWIDTH 598 0
DWIDTH 14 0
BBX 12 22 1 -4
BITMAP
1F00
3F80
7BC0
70E0
60E0
E0E0
E1C0
EFC0
EFC0
E1E0
E0E0
E070
E070
E070
F070
FDE0
FFC0
E780
E000
E000
E000
E000
ENDCHAR
STARTCHAR gamma
ENCODING 947
SWIDTH 598 0
DWIDTH 14 0
BBX 12 17 1 -4
BITMAP
E070
E070
7070
7060
38E0
38C0
18C0
1DC0
0D80
0F80
0F80
0700
0700
0700
0700
0700
0700
ENDCHAR
STARTCHAR delta
ENCODING 948
SWIDTH 598 0
DWIDTH 14 0
BBX 12 18 1 0
BITMAP
FFE0
FFE0
7820
3C00
1E00
0700
1F80
39C0
7060
6070
E070
E070
E070
E070
7070
79E0
3FC0
0F80
ENDCHAR
STARTCHAR epsilon
ENCODING 949
SWIDTH 598 0
DWIDTH 14 0
BBX 11 13 2 0
BITMAP
3F00
7FC0
FFC0
E080
E000
FE00
7E00
FE00
C000
E0C0
FFE0
7FC0
3F00
ENDCHAR
STARTCHAR zeta
ENCODING 950
SWIDTH 598 0
DWIDTH 14 0
BBX 11 21 2 -3
BITMAP
FFE0
FFE0
FFE0
0700
1E00
3C00
7800
7000
E000
E000
E000
E000
E000
E000
F000
7FC0
1FE0
03E0
00C0
01C0
0180
ENDCHAR
STARTCHAR eta
ENCODING 951
SWIDTH 598 0
DWIDTH 14 0
BBX 11 17 2 -4
BITMAP
EF80
FFC0
FDC0
F0E0
E0E0
E0E0
E0E0
E0E0
E0E0
E0E0
E0E0
E0E0
E0E0
00E0
00E0
00E0
00E0
ENDCHAR
STARTCHAR theta
ENCODING 952
SWIDTH 598 0
DWIDTH 14 0
BBX 11 18 1 0
BITMAP
1F00
3F80
3FC0
71C0
70E0
60E0
E0E0
E060
FFE0
FFE0
E060
E0E0
60E0
60E0
70E0
7FC0
3F80
1F00
ENDCHAR
STARTCHAR iota
ENCODING 953
SWIDTH 598 0
DWIDTH 14 0
BBX 8 13 2 0
BITMAP
FE
FE
8E
8E
0E
0E
0E
0E
0E
0E
0F
0F
07
ENDCHAR
STARTCHAR kappa
ENCODING 954
SWIDTH 598 0
DWIDTH 14 0
BBX 12 13 1 0
BITMAP
E0F0
E1E0
E380
E700
EE00
FC00
FE00
E700
E380
E1C0
E1E0
E0E0
E070
ENDCHAR
STARTCHAR lambda
ENCODING 955
SWIDTH 598 0
DWIDTH 14 0
BBX 14 18 0 0
BITMAP
3C00
3E00
2F00
0380
0380
0180
01C0
03C0
03C0
07E0
06E0
0E60
1C70
1C70
3830
3038
7038
E01C
ENDCHAR
STARTCHAR mu
ENCODING 956
SWIDTH 598 0
DWIDTH 14 0
BBX 12 17 1 -4
BITMAP
E060
E060
E060
E060
E060
E060
E060
E0E0
E0E0
F1E0
FFE0
FF70
FE70
E000
E000
E000
E000
ENDCHAR
STARTCHAR nu
ENCODING 957
SWIDTH 598 0
DWIDTH 14 0
BBX 13 13 1 0
BITMAP
E070
E038
7038
7038
3070
3870
3860
18E0
1DC0
0DC0
0F80
0700
0700
ENDCHAR
STARTCHAR xi
ENCODING 958
SWIDTH 598 0
DWIDTH 14 0
BBX 11 21 2 -3
BITMAP
FFE0
FFE0
FFE0
3C00
3800
3800
3800
3FC0
1FC0
7FC0
7000
E000
E000
E000
F000
7F00
3FC0
07C0
01C0
01C0
0380
ENDCHAR
STARTCHAR omicron
ENCODING 959
SWIDTH 598 0
DWIDTH 14 0
BBX 12 13 1 0
BITMAP
0F80
3FC0
7DE0
7070
E070
E030
E030
E030
E070
7070
7DE0
3FC0
0F80
ENDCHAR
STARTCHAR pi
ENCODING 960
SWIDTH 598 0
DWIDTH 14 0
BBX 13 13 1 0
BITMAP
FFF8
FFF8
FFF8
7060
7060
7060
7060
7060
7060
7060
7070
7070
7070
ENDCHAR
STARTCHAR rho
ENCODING 961
SWIDTH 598 0
DWIDTH 14 0
BBX 12 18 1 -5
BITMAP
1F00
3FC0
7BE0
70E0
E070
E070
E070
E070
E070
F0E0
FFE0
FFC0
EF00
E000
E000
E000
E000
E000
ENDCHAR
STARTCHAR sigma1
ENCODING 962
SWIDTH 598 0
DWIDTH 14 0
BBX 10 16 2 -3
BITMAP
0FC0
3FC0
7FC0
F000
E000
E000
E000
E000
E000
7800
3F00
1FC0
01C0
01C0
0380
0380
ENDCHAR
STARTCHAR sigma
ENCODING 963
SWIDTH 598 0
DWIDTH 14 0
BBX 13 13 1 0
BITMAP
1FF8
3FF8
7BE0
E0E0
E070
C070
C070
C070
E070
E0E0
7BE0
3FC0
1F00
ENDCHAR
STARTCHAR tau
ENCODING 964
SWIDTH 598 0
DWIDTH 14 0
BBX 12 13 1 0
BITMAP
7FF0
FFF0
FFF0
0600
0600
0600
0600
0600
0600
0600
07E0
07E0
03E0
ENDCHAR
STARTCHAR upsilon
ENCODING 965
SWIDTH 598 0
DWIDTH 14 0
BBX 13 13 0 0
BITMAP
7038
F038
3038
3038
3038
3038
3038
3038
3038
3870
3FF0
1FE0
0780
ENDCHAR
STARTCHAR phi
ENCODING 966
SWIDTH 598 0
DWIDTH 14 0
BBX 12 19 1 -5
BITMAP
0700
0700
1FC0
3FE0
7760
E770
E730
E730
E730
E730
E770
7770
7FE0
1FC0
0700
0700
0700
0700
0700
ENDCHAR
STARTCHAR chi
ENCODING 967
SWIDTH 598 0
DWIDTH 14 0
BBX 12 17 1 -4
BITMAP
E070
F0E0
70E0
39C0
3DC0
1D80
0F80
0F00
0700
0F00
0F80
1D80
1DC0
39C0
38E0
70F0
7070
ENDCHAR
STARTCHAR psi
ENCODING 968
SWIDTH 598 0
DWIDTH 14 0
BBX 11 20 2 -4
BITMAP
0600
0E00
0E00
CEE0
CEE0
CEE0
CEE0
CEE0
CEE0
CEE0
CEE0
CEC0
EFC0
EFC0
7F80
1E00
0E00
0E00
0E00
0E00
ENDCHAR
STARTCHAR omega
ENCODING 969
SWIDTH 598 0
DWIDTH 14 0
BBX 13 13 1 0
BITMAP
E070
E030
E030
C038
C738
C738
C738
C738
C738
E730
FFF0
7FF0
39E0
ENDCHAR
STARTCHAR iotadieresis
ENCODING 970
SWIDTH 598 0
DWIDTH 14 0
BBX 10 18 3 0
BITMAP
2080
73C0
73C0
7180
0000
FE00
FE00
8E00
8E00
0E00
0E00
0E00
0E00
0E00
0E00
0F00
0F00
0700
ENDCHAR
STARTCHAR upsilondieresis
ENCODING 971
SWIDTH 598 0
DWIDTH 14 0
BBX 13 18 0 0
BITMAP
1040
38E0
3DE0
18C0
0000
7038
F038
3038
3038
3038
3038
3038
3038
3038
3870
3FF0
1FE0
0780
ENDCHAR
STARTCHAR omicrontonos
ENCODING 972
SWIDTH 598 0
DWIDTH 14 0
BBX 12 19 1 0
BITMAP
0380
0300
0300
0700
0600
0000
0F80
3FC0
7DE0
7070
E070
E030
E030
E030
E070
7070
7DE0
3FC0
0F80
ENDCHAR
STARTCHAR upsilontonos
ENCODING 973
SWIDTH 598 0
DWIDTH 14 0
BBX 13 19 0 0
BITMAP
0380
0380
0380
0300
0300
0000
7038
F038
3038
3038
3038
3038
3038
3038
3038
3870
3FF0
1FE0
0780
ENDCHAR
STARTCHAR omegatonos
ENCODING 974
SWIDTH 598 0
DWIDTH 14 0
BBX 13 19 1 0
BITMAP
0700
0700
0700
0600
0600
0000
E070
E030
E030
C038
C738
C738
C738
C738
C738
E730
FFF0
7FF0
39E0
ENDCHAR
STARTCHAR uni0400
ENCODING 1024
SWIDTH 585 0
DWIDTH 14 0
BBX 11 23 2 0
BITMAP
1000
3C00
1F00
0200
0000
FFE0
FFE0
C000
C000
C000
C000
C000
C000
FF80
FF80
C000
C000
C000
C000
C000
C000
FFE0
FFE0
ENDCHAR
STARTCHAR afii10023
ENCODING 1025
SWIDTH 585 0
DWIDTH 14 0
BBX 11 23 2 0
BITMAP
2100
7380
73C0
7180
0000
FFE0
FFE0
C000
C000
C000
C000
C000
C000
FF80
FF80
C000
C000
C000
C000
C000
C000
FFE0
FFE0
ENDCHAR
STARTCHAR afii10051
ENCODING 1026
SWIDTH 598 0
DWIDTH 14 0
BBX 14 23 0 -5
BITMAP
FF80
FF80
1800
1800
1800
18C0
1BF0
1FF8
1E3C
1C1C
181C
181C
181C
181C
181C
181C
181C
181C
001C
041C
0F78
07F0
03E0
ENDCHAR
STARTCHAR afii10052
ENCODING 1027
SWIDTH 585 0
DWIDTH 14 0
BBX 11 23 2 0
BITMAP
0200
0F00
3E00
1000
0000
FFE0
FFE0
C000
C000
C000
C000
C000
C000
C000
C000
C000
C000
C000
C000
C000
C000
C000
C000
ENDCHAR
STARTCHAR afii10053
ENCODING 1028
SWIDTH 598 0
DWIDTH 14 0
BBX 13 18 1 0
BITMAP
0F80
1FE0
3CF0
7078
7030
E000
E000
E000
FF80
FF80
E000
E000
E000
7020
7030
3CF0
1FE0
0F80
ENDCHAR
STARTCHAR afii10054
ENCODING 1029
SWIDTH 585 0
DWIDTH 14 0
BBX 12 18 1 0
BITMAP
0F80
3FE0
38F0
7060
7020
7000
7800
3C00
1F80
07E0
01F0
0070
0030
4070
6070
FDF0
7FE0
1F80
ENDCHAR
STARTCHAR afii10055
ENCODING 1030
SWIDTH 585 0
DWIDTH 14 0
BBX 10 18 2 0
BITMAP
FFC0
FFC0
0C00
0C00
0C00
0C00
0C00
0C00
0C00
0C00
0C00
0C00
0C00
0C00
0C00
0C00
FFC0
FFC0
ENDCHAR
STARTCHAR afii10056
ENCODING 1031
SWIDTH 585 0
DWIDTH 14 0
BBX 10 23 2 0
BITMAP
2100
7380
F380
6380
0000
FFC0
FFC0
0C00
0C00
0C00
0C00
0C00
0C00
0C00
0C00
0C00
0C00
0C00
0C00
0C00
0C00
FFC0
FFC0
ENDCHAR
STARTCHAR afii10057
ENCODING 1032
SWIDTH 585 0
DWIDTH 14 0
BBX 12 18 1 0
BITMAP
0FF0
0FF0
01C0
01C0
01C0
01C0
01C0
01C0
01C0
01C0
01C0
01C0
01C0
01C0
4380
F780
7F00
3E00
ENDCHAR
STARTCHAR afii10058
ENCODING 1033
SWIDTH 598 0
DWIDTH 14 0
BBX 14 18 0 0
BITMAP
3F80
3F80
3980
3980
3980
3980
3980
39F0
39F8
399C
399C
399C
318C
319C
319C
71BC
F1F8
61F0
ENDCHAR
STARTCHAR afii10059
ENCODING 1034
SWIDTH 598 0
DWIDTH 14 0
BBX 14 18 0 0
BITMAP
E380
E380
E380
E380
E380
E380
E380
E3E0
FFF8
FFB8
E39C
E39C
E39C
E39C
E39C
E3BC
E3F8
E3F0
ENDCHAR
STARTCHAR afii10060
ENCODING 1035
SWIDTH 598 0
DWIDTH 14 0
BBX 14 18 0 0
BITMAP
FFC0
FFC0
1C00
1C00
1C00
1C40
1FF8
1FF8
1E3C
1C1C
1C1C
1C1C
1C1C
1C1C
1C1C
1C1C
1C1C
1C1C
ENDCHAR
STARTCHAR afii10061
ENCODING 1036
SWIDTH 585 0
DWIDTH 14 0
BBX 13 23 1 0
BITMAP
0100
0780
1F00
0800
0000
E070
E0E0
E1E0
E3C0
E380
E700
EE00
FC00
FC00
FE00
E700
E700
E380
E1C0
E1E0
E0E0
E070
E078
ENDCHAR
STARTCHAR uni040D
ENCODING 1037
SWIDTH 598 0
DWIDTH 14 0
BBX 12 23 1 0
BITMAP
0800
1E00
0F80
0100
0000
E070
E070
E0F0
E0F0
E1F0
E1F0
E3F0
E770
E670
EE70
EC70
FC70
F870
F870
F070
F070
E070
E070
ENDCHAR
STARTCHAR afii10062
ENCODING 1038
SWIDTH 598 0
DWIDTH 14 0
BBX 12 23 1 0
BITMAP
2040
30C0
3FC0
1F80
0000
E030
E070
7070
7060
38E0
38E0
1CC0
1DC0
0DC0
0F80
0780
0700
0700
0700
4E00
5E00
FC00
7800
ENDCHAR
STARTCHAR afii10145
ENCODING 1039
SWIDTH 598 0
DWIDTH 14 0
BBX 13 22 1 -4
BITMAP
E038
E030
E030
E030
E030
E030
E030
E030
E030
E030
E030
E030
E030
E030
E030
E030
FFF0
FFF0
0700
0700
0700
0700
ENDCHAR
STARTCHAR afii10017
ENCODING 1040
SWIDTH 585 0
DWIDTH 14 0
BBX 14 19 0 -1
BITMAP
0200
0300
0300
0700
0780
0780
0FC0
0DC0
0CC0
1CE0
1860
1FF0
3FF0
3030
3038
7038
6018
E01C
E000
ENDCHAR
STARTCHAR afii10018
ENCODING 1041
SWIDTH 598 0
DWIDTH 14 0
BBX 12 18 1 0
BITMAP
FFF0
FFF0
E000
E000
E000
E000
E000
FF80
FFE0
E1E0
E070
E070
E030
E070
E070
E1F0
FFE0
FF80
ENDCHAR
STARTCHAR afii10019
ENCODING 1042
SWIDTH 585 0
DWIDTH 14 0
BBX 12 18 1 0
BITMAP
FF80
FFC0
E1E0
E060
E070
E070
E0E0
FFC0
FFC0
E1E0
E070
E070
E030
E070
E070
E1F0
FFE0
FF80
ENDCHAR
STARTCHAR afii10020
ENCODING 1043
SWIDTH 585 0
DWIDTH 14 0
BBX 11 18 2 0
BITMAP
FFE0
FFE0
C000
C000
C000
C000
C000
C000
C000
C000
C000
C000
C000
C000
C000
C000
C000
C000
ENDCHAR
STARTCHAR afii10021
ENCODING 1044
SWIDTH 598 0
DWIDTH 14 0
BBX 13 22 1 -4
BITMAP
1FF0
1FF0
1C70
1C70
1870
1870
1870
1870
1870
3870
3870
3870
3870
3870
3070
7070
FFF8
FFF8
E018
E018
E018
E018
ENDCHAR
STARTCHAR afii10022
ENCODING 1045
SWIDTH 585 0
DWIDTH 14 0
BBX 11 18 2 0
BITMAP
FFE0
FFE0
C000
C000
C000
C000
C000
C000
FF80
FF80
C000
C000
C000
C000
C000
C000
FFE0
FFE0
ENDCHAR
STARTCHAR afii10024
ENCODING 1046
SWIDTH 598 0
DWIDTH 14 0
BBX 14 17 0 0
BITMAP
73B8
73B8
3BB0
3BF0
1FE0
1FE0
0FC0
0FC0
07C0
0FC0
0FE0
1FE0
3BF0
3BB8
73B8
73BC
E39C
ENDCHAR
STARTCHAR afii10025
ENCODING 1047
SWIDTH 598 0
DWIDTH 14 0
BBX 13 18 0 0
BITMAP
0FC0
3FE0
3FF0
3078
2038
0038
0038
00F0
0FE0
0FF0
0078
0038
0018
2038
F038
7DF0
3FF0
0FC0
ENDCHAR
STARTCHAR afii10026
ENCODING 1048
SWIDTH 598 0
DWIDTH 14 0
BBX 12 18 1 0
BITMAP
E070
E070
E0F0
E0F0
E1F0
E1F0
E3F0
E770
E670
EE70
EC70
FC70
F870
F870
F070
F070
E070
E070
ENDCHAR
STARTCHAR afii10027
ENCODING 1049
SWIDTH 598 0
DWIDTH 14 0
BBX 12 23 1 0
BITMAP
2040
30C0
3FC0
1F80
0000
E070
E070
E0F0
E0F0
E1F0
E1F0
E3F0
E770
E670
EE70
EC70
FC70
F870
F870
F070
F070
E070
E070
ENDCHAR
STARTCHAR afii10028
ENCODING 1050
SWIDTH 585 0
DWIDTH 14 0
BBX 13 18 1 0
BITMAP
E070
E0E0
E1E0
E3C0
E380
E700
EE00
FC00
FC00
FE00
E700
E700
E380
E1C0
E1E0
E0E0
E070
E078
ENDCHAR
STARTCHAR afii10029
ENCODING 1051
SWIDTH 598 0
DWIDTH 14 0
BBX 13 18 0 0
BITMAP
0FF8
0FF8
0E38
0E38
0C38
0C38
0C38
0C38
0C38
1C38
1C38
1C38
1C38
1C38
1838
7838
F838
7038
ENDCHAR
STARTCHAR afii10030
ENCODING 1052
SWIDTH 585 0
DWIDTH 14 0
BBX 12 18 1 0
BITMAP
C030
E030
E070
F070
F0F0
F8F0
F9B0
FDB0
EF30
EF30
E630
E630
E030
E030
E030
E030
E030
E030
ENDCHAR
STARTCHAR afii10031
ENCODING 1053
SWIDTH 585 0
DWIDTH 14 0
BBX 12 18 1 0
BITMAP
E070
E070
E070
E070
E070
E070
E070
E070
FFF0
FFF0
E070
E070
E070
E070
E070
E070
E070
E070
ENDCHAR
STARTCHAR afii10032
ENCODING 1054
SWIDTH 585 0
DWIDTH 14 0
BBX 13 18 1 0
BITMAP
0F80
3FC0
7FE0
70F0
E070
E030
E038
C038
C038
C038
C038
E038
E030
E070
70F0
7FE0
3FC0
0F80
ENDCHAR
STARTCHAR afii10033
ENCODING 1055
SWIDTH 585 0
DWIDTH 14 0
BBX 11 18 2 0
BITMAP
FFE0
FFE0
C0E0
C0E0
C0E0
C0E0
C0E0
C0E0
C0E0
C0E0
C0E0
C0E0
C0E0
C0E0
C0E0
C0E0
C0E0
C0E0
ENDCHAR
STARTCHAR afii10034
ENCODING 1056
SWIDTH 585 0
DWIDTH 14 0
BBX 11 18 2 0
BITMAP
FF00
FFC0
FFE0
C0E0
C0E0
C060
C0E0
C1E0
FFC0
FF80
C000
C000
C000
C000
C000
C000
C000
C000
ENDCHAR
STARTCHAR afii10035
ENCODING 1057
SWIDTH 585 0
DWIDTH 14 0
BBX 13 18 1 0
BITMAP
0F80
1FE0
3CF0
7078
7030
E000
E000
E000
E000
E000
E000
E000
E000
7020
7830
3CF0
1FE0
0F80
ENDCHAR
STARTCHAR afii10036
ENCODING 1058
SWIDTH 585 0
DWIDTH 14 0
BBX 12 18 1 0
BITMAP
FFF0
FFF0
0600
0600
0600
0600
0600
0600
0600
0600
0600
0600
0600
0600
0600
0600
0600
0600
ENDCHAR
STARTCHAR afii10037
ENCODING 1059
SWIDTH 598 0
DWIDTH 14 0
BBX 12 18 1 0
BITMAP
E030
E070
7070
7060
38E0
38E0
1CC0
1DC0
0DC0
0F80
0780
0700
0700
0700
4E00
5E00
FC00
7800
ENDCHAR
STARTCHAR afii10038
ENCODING 1060
SWIDTH 598 0
DWIDTH 14 0
BBX 15 19 0 0
BITMAP
0380
0380
0FC0
1FF0
3BF8
73B8
E39C
E38C
E38C
C38E
E38C
E38C
E39C
73B8
3BF8
1FF0
0FC0
0300
0300
ENDCHAR
STARTCHAR afii10039
ENCODING 1061
SWIDTH 585 0
DWIDTH 14 0
BBX 13 18 1 0
BITMAP
E070
7070
70E0
38C0
39C0
1D80
1F80
0F00
0F00
0F00
0F80
1F80
1DC0
39C0
38E0
70E0
7070
E038
ENDCHAR
STARTCHAR afii10040
ENCODING 1062
SWIDTH 598 0
DWIDTH 14 0
BBX 13 22 1 -4
BITMAP
E070
E060
E060
E060
E060
E060
E060
E060
E060
E060
E060
E060
E060
E060
E060
E060
FFF8
FFF8
0018
0018
0018
0018
ENDCHAR
STARTCHAR afii10041
ENCODING 1063
SWIDTH 598 0
DWIDTH 14 0
BBX 12 18 1 0
BITMAP
E030
E030
E030
E030
E030
E030
E030
E070
6070
70F0
3FF0
1FF0
0030
0030
0030
0030
0030
0030
ENDCHAR
STARTCHAR afii10042
ENCODING 1064
SWIDTH 598 0
DWIDTH 14 0
BBX 13 18 1 0
BITMAP
E738
C738
C738
C738
C738
C738
C738
C738
C738
C738
C738
C738
C738
C738
C738
C738
FFF8
FFF8
ENDCHAR
STARTCHAR afii10043
ENCODING 1065
SWIDTH 598 0
DWIDTH 14 0
BBX 14 22 0 -4
BITMAP
E718
E718
E718
E718
E718
E718
E718
E718
E718
E718
E718
E718
E718
E718
E718
E718
FFFC
FFFC
000C
000C
000C
000C
ENDCHAR
STARTCHAR afii10044
ENCODING 1066
SWIDTH 598 0
DWIDTH 14 0
BBX 13 18 1 0
BITMAP
F800
F800
3800
3800
3800
3800
3800
3F80
3FE0
39F0
3870
3838
3838
3838
3870
39F0
3FE0
3F80
ENDCHAR
STARTCHAR afii10045
ENCODING 1067
SWIDTH 598 0
DWIDTH 14 0
BBX 12 18 1 0
BITMAP
E030
E030
E030
E030
E030
E030
E030
FC30
FE30
EF30
E3B0
E3B0
E3B0
E3B0
E3B0
EF30
FF30
FC30
ENDCHAR
STARTCHAR afii10046
ENCODING 1068
SWIDTH 598 0
DWIDTH 14 0
BBX 12 18 1 0
BITMAP
E000
E000
E000
E000
E000
E000
E000
FF80
FFE0
E1E0
E070
E070
E030
E070
E070
E1F0
FFE0
FF80
ENDCHAR
STARTCHAR afii10047
ENCODING 1069
SWIDTH 598 0
DWIDTH 14 0
BBX 13 18 1 0
BITMAP
1F00
3FC0
7BE0
E0E0
4070
0070
0030
0038
1FF8
1FF8
0038
0030
0030
6070
E0E0
79E0
3FC0
1F00
ENDCHAR
STARTCHAR afii10048
ENCODING 1070
SWIDTH 598 0
DWIDTH 14 0
BBX 14 18 0 0
BITMAP
E1E0
E3F0
E3F8
E738
E61C
EE1C
EE1C
EE1C
FE1C
FE0C
EE1C
EE1C
EE1C
E61C
E718
E7F8
E3F0
E1E0
ENDCHAR
STARTCHAR afii10049
ENCODING 1071
SWIDTH 598 0
DWIDTH 14 0
BBX 12 18 1 0
BITMAP
1FF0
3FF0
7FF0
7070
E070
E070
6070
7070
7FF0
3FF0
0C70
1C70
1870
3870
7070
7070
E070
E070
ENDCHAR
STARTCHAR afii10065
ENCODING 1072
SWIDTH 585 0
DWIDTH 14 0
BBX 12 13 1 0
BITMAP
0F80
3FC0
39E0
2070
0070
0FF0
3FF0
7870
E070
E070
F1F0
7FF0
1F70
ENDCHAR
STARTCHAR afii10066
ENCODING 1073
SWIDTH 598 0
DWIDTH 14 0
BBX 12 19 1 0
BITMAP
00C0
0FC0
1FC0
3C00
7000
7000
6F80
FFC0
FDE0
F070
E070
E030
E030
E030
E070
7070
7DE0
3FC0
0F80
ENDCHAR
STARTCHAR afii10067
ENCODING 1074
SWIDTH 598 0
DWIDTH 14 0
BBX 11 13 2 0
BITMAP
FF00
FFC0
C3C0
C0C0
C1C0
FF80
FFC0
C0E0
C0E0
C0E0
C3E0
FFC0
FF80
ENDCHAR
STARTCHAR afii10068
ENCODING 1075
SWIDTH 598 0
DWIDTH 14 0
BBX 10 13 2 0
BITMAP
FFC0
FFC0
E000
E000
E000
E000
E000
E000
E000
E000
E000
E000
E000
ENDCHAR
STARTCHAR afii10069
ENCODING 1076
SWIDTH 598 0
DWIDTH 14 0
BBX 13 17 1 -4
BITMAP
1FF0
1FF0
1870
1870
1870
3870
3870
3870
3870
3870
7070
FFF8
FFF8
E018
E018
E018
E018
ENDCHAR
STARTCHAR afii10070
ENCODING 1077
SWIDTH 585 0
DWIDTH 14 0
BBX 12 13 1 0
BITMAP
0F80
3FC0
79E0
7070
E070
FFF0
FFF0
E000
E000
7000
7CF0
3FE0
0F80
ENDCHAR
STARTCHAR afii10072
ENCODING 1078
SWIDTH 598 0
DWIDTH 14 0
BBX 14 12 0 0
BITMAP
73B8
3B38
3B70
1FE0
0FC0
0FC0
0FE0
1FE0
3B70
3B38
7338
F31C
ENDCHAR
STARTCHAR afii10073
ENCODING 1079
SWIDTH 598 0
DWIDTH 14 0
BBX 11 13 2 0
BITMAP
1F00
7FC0
FFC0
40E0
00E0
0FC0
0FC0
0FC0
00E0
C0E0
FFC0
7FC0
3F00
ENDCHAR
STARTCHAR afii10074
ENCODING 1080
SWIDTH 598 0
DWIDTH 14 0
BBX 11 13 2 0
BITMAP
C0E0
C1E0
C1E0
C3E0
C6E0
CEE0
CCE0
D8E0
F8E0
F0E0
E0E0
E0E0
C0E0
ENDCHAR
STARTCHAR afii10075
ENCODING 1081
SWIDTH 598 0
DWIDTH 14 0
BBX 11 18 2 0
BITMAP
2080
71C0
3F80
1F00
0000
C0E0
C1E0
C1E0
C3E0
C6E0
CEE0
CCE0
D8E0
F8E0
F0E0
E0E0
E0E0
C0E0
ENDCHAR
STARTCHAR afii10076
ENCODING 1082
SWIDTH 585 0
DWIDTH 14 0
BBX 12 13 2 0
BITMAP
E0E0
C1C0
C380
C700
DE00
FC00
FE00
EF00
C700
C380
C1C0
C0E0
C0F0
ENDCHAR
STARTCHAR afii10077
ENCODING 1083
SWIDTH 598 0
DWIDTH 14 0
BBX 13 13 0 0
BITMAP
0FF8
0FF8
0C38
0C38
1C38
1C38
1C38
1C38
1C38
1838
7838
F838
7038
ENDCHAR
STARTCHAR afii10078
ENCODING 1084
SWIDTH 598 0
DWIDTH 14 0
BBX 12 13 1 0
BITMAP
C030
E070
F070
F8F0
F9F0
FFB0
EF30
E730
E630
E030
E030
E030
E030
ENDCHAR
STARTCHAR afii10079
ENCODING 1085
SWIDTH 598 0
DWIDTH 14 0
BBX 11 13 2 0
BITMAP
C0E0
C0E0
C0E0
C0E0
C0E0
FFE0
FFE0
C0E0
C0E0
C0E0
C0E0
C0E0
C0E0
ENDCHAR
STARTCHAR afii10080
ENCODING 1086
SWIDTH 585 0
DWIDTH 14 0
BBX 12 13 1 0
BITMAP
0F80
3FC0
7DE0
7070
E070
E030
E030
E030
E070
7070
7DE0
3FC0
0F80
ENDCHAR
STARTCHAR afii10081
ENCODING 1087
SWIDTH 598 0
DWIDTH 14 0
BBX 11 13 2 0
BITMAP
FFE0
FFE0
C0E0
C0E0
C0E0
C0E0
C0E0
C0E0
C0E0
C0E0
C0E0
C0E0
C0E0
ENDCHAR
STARTCHAR afii10082
ENCODING 1088
SWIDTH 585 0
DWIDTH 14 0
BBX 11 18 2 -5
BITMAP
CF00
FFC0
FBC0
E0E0
C0E0
C060
C060
C060
C0E0
E0E0
FFC0
FFC0
CF00
C000
C000
C000
C000
C000
ENDCHAR
STARTCHAR afii10083
ENCODING 1089
SWIDTH 585 0
DWIDTH 14 0
BBX 12 13 1 0
BITMAP
0FC0
1FE0
3CF0
7030
7020
E000
E000
E000
7000
7820
3FF0
1FE0
0FC0
ENDCHAR
STARTCHAR afii10084
ENCODING 1090
SWIDTH 598 0
DWIDTH 14 0
BBX 12 13 1 0
BITMAP
FFF0
FFF0
0600
0600
0600
0600
0600
0600
0600
0600
0600
0600
0600
ENDCHAR
STARTCHAR afii10085
ENCODING 1091
SWIDTH 585 0
DWIDTH 14 0
BBX 13 18 0 -5
BITMAP
7018
3038
3838
3830
1C70
1C70
0C60
0EE0
06C0
07C0
07C0
0380
0380
0380
0700
6F00
FE00
3C00
ENDCHAR
STARTCHAR afii10086
ENCODING 1092
SWIDTH 598 0
DWIDTH 14 0
BBX 12 21 1 -5
BITMAP
0700
0700
0700
0700
1FC0
3FE0
7760
E770
E730
E730
E730
E730
E770
7770
7FE0
1FC0
0700
0700
0700
0700
0700
ENDCHAR
STARTCHAR afii10087
ENCODING 1093
SWIDTH 585 0
DWIDTH 14 0
BBX 12 13 1 0
BITMAP
E070
70E0
39C0
39C0
1F80
0F00
0700
0F80
1F80
39C0
38E0
70F0
E070
ENDCHAR
STARTCHAR afii10088
ENCODING 1094
SWIDTH 598 0
DWIDTH 14 0
BBX 12 17 2 -4
BITMAP
C0E0
C0E0
C0E0
C0E0
C0E0
C0E0
C0E0
C0E0
C0E0
C0E0
C0E0
FFF0
FFF0
0030
0030
0030
0030
ENDCHAR
STARTCHAR afii10089
ENCODING 1095
SWIDTH 598 0
DWIDTH 14 0
BBX 11 13 2 0
BITMAP
C0E0
C0E0
C0E0
C0E0
C0E0
E1E0
E3E0
7FE0
3EE0
00E0
00E0
00E0
00E0
ENDCHAR
STARTCHAR afii10090
ENCODING 1096
SWIDTH 598 0
DWIDTH 14 0
BBX 13 13 1 0
BITMAP
C738
C738
C738
C738
C738
C738
C738
C738
C738
C738
C738
FFF8
FFF8
ENDCHAR
STARTCHAR afii10091
ENCODING 1097
SWIDTH 598 0
DWIDTH 14 0
BBX 14 17 0 -4
BITMAP
E718
E718
E718
E718
E718
E718
E718
E718
E718
E718
E718
FFFC
FFFC
000C
000C
000C
000C
ENDCHAR
STARTCHAR afii10092
ENCODING 1098
SWIDTH 598 0
DWIDTH 14 0
BBX 12 13 1 0
BITMAP
F800
F800
3800
3800
3800
3F80
3FE0
38F0
3870
3870
39F0
3FE0
3FC0
ENDCHAR
STARTCHAR afii10093
ENCODING 1099
SWIDTH 598 0
DWIDTH 14 0
BBX 12 13 1 0
BITMAP
E030
E030
E030
E030
E030
FE30
FF30
E7B0
E3B0
E3B0
EFB0
FF30
FE30
ENDCHAR
STARTCHAR afii10094
ENCODING 1100
SWIDTH 598 0
DWIDTH 14 0
BBX 10 13 2 0
BITMAP
E000
E000
E000
E000
E000
FF00
FF80
E3C0
E0C0
E0C0
E3C0
FF80
FF00
ENDCHAR
STARTCHAR afii10095
ENCODING 1101
SWIDTH 598 0
DWIDTH 14 0
BBX 12 13 1 0
BITMAP
1F00
7FC0
7FE0
60F0
0070
0FF0
0FF0
0070
0070
60F0
F9E0
7FC0
1F00
ENDCHAR
STARTCHAR afii10096
ENCODING 1102
SWIDTH 598 0
DWIDTH 14 0
BBX 12 14 1 -1
BITMAP
E1C0
E7E0
E7F0
EE70
EE70
FE30
FE30
EE30
EE70
EE70
E770
E7E0
E3E0
01C0
ENDCHAR
STARTCHAR afii10097
ENCODING 1103
SWIDTH 598 0
DWIDTH 14 0
BBX 10 13 2 0
BITMAP
3FC0
7FC0
F8C0
E0C0
E0C0
E0C0
7FC0
3FC0
1CC0
38C0
70C0
F0C0
E0C0
ENDCHAR
STARTCHAR uni0450
ENCODING 1104
SWIDTH 585 0
DWIDTH 14 0
BBX 12 20 1 0
BITMAP
0400
0E00
0F00
0700
0380
0100
0000
0F80
3FC0
79E0
7070
E070
FFF0
FFF0
E000
E000
7000
7CF0
3FE0
0F80
ENDCHAR
STARTCHAR afii10071
ENCODING 1105
SWIDTH 585 0
DWIDTH 14 0
BBX 12 18 1 0
BITMAP
38C0
39E0
39E0
1000
0000
0F80
3FC0
79E0
7070
E070
FFF0
FFF0
E000
E000
7000
7CF0
3FE0
0F80
ENDCHAR
STARTCHAR afii10099
ENCODING 1106
SWIDTH 598 0
DWIDTH 14 0
BBX 12 23 1 -5
BITMAP
7000
7000
FE00
FE00
7000
73C0
77E0
7EF0
7870
7030
7030
7030
7030
7030
7030
7030
7030
7030
0070
0870
1FF0
1FE0
0F80
ENDCHAR
STARTCHAR afii10100
ENCODING 1107
SWIDTH 598 0
DWIDTH 14 0
BBX 10 20 2 0
BITMAP
0200
0700
0700
0E00
0E00
0400
0000
FFC0
FFC0
E000
E000
E000
E000
E000
E000
E000
E000
E000
E000
E000
ENDCHAR
STARTCHAR afii10101
ENCODING 1108
SWIDTH 598 0
DWIDTH 14 0
BBX 12 13 1 0
BITMAP
0FC0
1FE0
3CF0
7030
7020
FF80
FF80
6000
7000
7820
3FF0
1FE0
0FC0
ENDCHAR
STARTCHAR afii10102
ENCODING 1109
SWIDTH 585 0
DWIDTH 14 0
BBX 12 13 1 0
BITMAP
0F80
3FE0
78F0
7060
7800
3F00
0FC0
01E0
0070
6070
F9E0
7FE0
1F80
ENDCHAR
STARTCHAR afii10103
ENCODING 1110
SWIDTH 585 0
DWIDTH 14 0
BBX 9 18 3 0
BITMAP
1C00
1C00
1C00
0800
0000
FC00
FC00
1C00
1C00
1C00
1C00
1C00
1C00
1C00
1C00
1C00
FF80
FF80
ENDCHAR
STARTCHAR afii10104
ENCODING 1111
SWIDTH 585 0
DWIDTH 14 0
BBX 9 18 3 0
BITMAP
E300
E780
E700
4200
0000
FC00
FC00
1C00
1C00
1C00
1C00
1C00
1C00
1C00
1C00
1C00
FF80
FF80
ENDCHAR
STARTCHAR afii10105
ENCODING 1112
SWIDTH 585 0
DWIDTH 14 0
BBX 10 23 1 -5
BITMAP
01C0
01C0
01C0
0080
0000
3FC0
3FC0
01C0
01C0
01C0
01C0
01C0
01C0
01C0
01C0
01C0
01C0
01C0
01C0
41C0
F780
7F00
3E00
ENDCHAR
STARTCHAR afii10106
ENCODING 1113
SWIDTH 598 0
DWIDTH 14 0
BBX 14 13 0 0
BITMAP
3F80
3F80
3980
3980
3980
39F0
39F8
319C
318C
318C
71BC
F1FC
71F0
ENDCHAR
STARTCHAR afii10107
ENCODING 1114
SWIDTH 598 0
DWIDTH 14 0
BBX 14 13 0 0
BITMAP
E380
E380
E380
E380
E380
FFF8
FFFC
E39C
E38C
E38C
E3BC
E3FC
E3F0
ENDCHAR
STARTCHAR afii10108
ENCODING 1115
SWIDTH 598 0
DWIDTH 14 0
BBX 12 18 1 0
BITMAP
7000
7000
FE00
FE00
7000
73C0
77E0
7EF0
7870
7030
7030
7030
7030
7030
7030
7030
7030
7030
ENDCHAR
STARTCHAR afii10109
ENCODING 1116
SWIDTH 585 0
DWIDTH 14 0
BBX 12 20 2 0
BITMAP
0200
0700
0700
0E00
0E00
0400
0000
E0E0
C1C0
C380
C700
DE00
FC00
FE00
EF00
C700
C380
C1C0
C0E0
C0F0
ENDCHAR
STARTCHAR uni045D
ENCODING 1117
SWIDTH 598 0
DWIDTH 14 0
BBX 11 20 2 0
BITMAP
0800
1C00
1E00
0E00
0700
0200
0000
C0E0
C1E0
C1E0
C3E0
C6E0
CEE0
CCE0
D8E0
F8E0
F0E0
E0E0
E0E0
C0E0
ENDCHAR
STARTCHAR afii10110
ENCODING 1118
SWIDTH 585 0
DWIDTH 14 0
BBX 13 23 0 -5
BITMAP
0820
1C70
0FE0
07C0
0000
7018
3038
3838
3830
1C70
1C70
0C60
0EE0
06C0
07C0
07C0
0380
0380
0380
0700
6F00
FE00
3C00
ENDCHAR
STARTCHAR afii10193
ENCODING 1119
SWIDTH 598 0
DWIDTH 14 0
BBX 12 17 1 -4
BITMAP
E070
E070
E070
E070
E070
E070
E070
E070
E070
E070
E070
FFF0
FFF0
0700
0700
0700
0700
ENDCHAR
STARTCHAR afii10146
ENCODING 1122
SWIDTH 598 0
DWIDTH 14 0
BBX 13 18 1 0
BITMAP
3800
3800
3800
FFC0
FFC0
3800
3800
3F80
3FE0
39F0
3870
3838
3838
3838
3870
39F0
3FE0
3F80
ENDCHAR
STARTCHAR afii10194
ENCODING 1123
SWIDTH 598 0
DWIDTH 14 0
BBX 12 17 1 0
BITMAP
3800
3800
3800
3800
FF80
FF80
3800
3800
3800
3F80
3FE0
38F0
3870
3870
39F0
3FE0
3FC0
ENDCHAR
STARTCHAR afii10147
ENCODING 1138
SWIDTH 585 0
DWIDTH 14 0
BBX 13 18 1 0
BITMAP
0600
1FC0
7FE0
70F0
E070
E030
E038
C038
DFB8
DFB8
DFB8
E038
E030
E070
7070
7DE0
3FE0
0F80
ENDCHAR
STARTCHAR afii10195
ENCODING 1139
SWIDTH 598 0
DWIDTH 14 0
BBX 12 13 1 0
BITMAP
0F80
3FC0
7DE0
7070
E070
EFB0
EFB0
E030
E070
7070
7DE0
3FC0
0F80
ENDCHAR
STARTCHAR afii10148
ENCODING 1140
SWIDTH 585 0
DWIDTH 14 0
BBX 13 18 1 0
BITMAP
C038
E038
E030
6070
7070
7060
30E0
38E0
38C0
19C0
1DC0
1D80
0D80
0F80
0F00
0700
0600
0600
ENDCHAR
STARTCHAR afii10196
ENCODING 1141
SWIDTH 585 0
DWIDTH 14 0
BBX 12 13 1 0
BITMAP
E030
E070
7070
7060
30E0
38E0
38C0
1DC0
1D80
0F80
0F00
0700
0600
ENDCHAR
STARTCHAR afii10050
ENCODING 1168
SWIDTH 598 0
DWIDTH 14 0
BBX 11 23 2 0
BITMAP
00E0
00E0
00E0
00E0
00E0
FFE0
FFE0
C000
C000
C000
C000
C000
C000
C000
C000
C000
C000
C000
C000
C000
C000
C000
C000
ENDCHAR
STARTCHAR afii10098
ENCODING 1169
SWIDTH 598 0
DWIDTH 14 0
BBX 10 16 2 0
BITMAP
00C0
00C0
00C0
FFC0
FFC0
E000
E000
E000
E000
E000
E000
E000
E000
E000
E000
E000
ENDCHAR
STARTCHAR Wgrave
ENCODING 7808
SWIDTH 585 0
DWIDTH 14 0
BBX 14 23 0 0
BITMAP
0400
0F00
07C0
0080
0000
E00C
610C
610C
639C
739C
7398
7398
77D8
36D8
36D8
34F8
3CF0
3C70
3C70
1870
1870
1830
1820
ENDCHAR
STARTCHAR wgrave
ENCODING 7809
SWIDTH 585 0
DWIDTH 14 0
BBX 14 20 0 0
BITMAP
0200
0700
0780
0380
01C0
0080
0000
E01C
E01C
631C
639C
7398
7798
37D8
36D8
36D8
3CF8
3C70
1C70
1870
ENDCHAR
STARTCHAR Wacute
ENCODING 7810
SWIDTH 585 0
DWIDTH 14 0
BBX 14 23 0 0
BITMAP
0040
03C0
07C0
0600
0000
E00C
610C
610C
639C
739C
7398
7398
77D8
36D8
36D8
34F8
3CF0
3C70
3C70
1870
1870
1830
1820
ENDCHAR
STARTCHAR wacute
ENCODING 7811
SWIDTH 585 0
DWIDTH 14 0
BBX 14 20 0 0
BITMAP
0080
01C0
01C0
0380
0380
0100
0000
E01C
E01C
631C
639C
7398
7798
37D8
36D8
36D8
3CF8
3C70
1C70
1870
ENDCHAR
STARTCHAR Wdieresis
ENCODING 7812
SWIDTH 585 0
DWIDTH 14 0
BBX 14 23 0 0
BITMAP
0840
1CE0
1CF0
1C60
0000
E00C
610C
610C
639C
739C
7398
7398
77D8
36D8
36D8
34F8
3CF0
3C70
3C70
1870
1870
1830
1820
ENDCHAR
STARTCHAR wdieresis
ENCODING 7813
SWIDTH 585 0
DWIDTH 14 0
BBX 14 18 0 0
BITMAP
1C60
1CF0
1CF0
0800
0000
0000
E01C
631C
639C
7398
7798
37D8
36D8
36D8
3CF8
3C70
1C70
1870
ENDCHAR
STARTCHAR Ygrave
ENCODING 7922
SWIDTH 585 0
DWIDTH 14 0
BBX 13 23 1 0
BITMAP
0800
1E00
0F80
0100
0000
E038
E070
7070
7060
38E0
38C0
1DC0
1D80
0F80
0F80
0700
0700
0700
0700
0700
0700
0700
0700
ENDCHAR
STARTCHAR ygrave
ENCODING 7923
SWIDTH 585 0
DWIDTH 14 0
BBX 13 25 0 -5
BITMAP
0200
0700
0780
0380
01C0
0080
0000
7018
3038
3838
3830
1C70
1C70
0C60
0EE0
06C0
07C0
07C0
0380
0380
0380
0700
6F00
FE00
3C00
ENDCHAR
STARTCHAR endash
ENCODING 8211
SWIDTH 598 0
DWIDTH 14 0
BBX 9 3 3 8
BITMAP
FF80
FF80
FF80
ENDCHAR
STARTCHAR emdash
ENCODING 8212
SWIDTH 598 0
DWIDTH 14 0
BBX 13 3 1 8
BITMAP
FFF8
FFF8
FFF8
ENDCHAR
STARTCHAR afii00208
ENCODING 8213
SWIDTH 598 0
DWIDTH 14 0
BBX 15 3 0 8
BITMAP
FFFE
FFFE
FFFE
ENDCHAR
STARTCHAR underscoredbl
ENCODING 8215
SWIDTH 585 0
DWIDTH 14 0
BBX 13 6 1 -3
BITMAP
FFF8
FFF8
0000
0000
FFF8
FFF8
ENDCHAR
STARTCHAR quoteleft
ENCODING 8216
SWIDTH 598 0
DWIDTH 14 0
BBX 5 8 4 10
BITMAP
10
38
70
60
F0
F8
78
30
ENDCHAR
STARTCHAR quoteright
ENCODING 8217
SWIDTH 598 0
DWIDTH 14 0
BBX 4 8 5 10
BITMAP
60
F0
F0
F0
70
60
C0
80
ENDCHAR
STARTCHAR quotesinglbase
ENCODING 8218
SWIDTH 598 0
DWIDTH 14 0
BBX 4 8 5 -5
BITMAP
60
F0
F0
F0
70
60
C0
80
ENDCHAR
STARTCHAR quotereversed
ENCODING 8219
SWIDTH 598 0
DWIDTH 14 0
BBX 5 8 4 10
BITMAP
30
78
F8
70
60
70
38
10
ENDCHAR
STARTCHAR quotedblleft
ENCODING 8220
SWIDTH 598 0
DWIDTH 14 0
BBX 10 8 2 10
BITMAP
3080
71C0
6380
C300
E780
F7C0
F380
6100
ENDCHAR
STARTCHAR quotedblright
ENCODING 8221
SWIDTH 598 0
DWIDTH 14 0
BBX 10 8 2 10
BITMAP
6100
F3C0
F3C0
F3C0
71C0
6180
C300
8200
ENDCHAR
STARTCHAR quotedblbase
ENCODING 8222
SWIDTH 598 0
DWIDTH 14 0
BBX 10 8 2 -5
BITMAP
6100
F3C0
F3C0
F3C0
71C0
6180
C300
8200
ENDCHAR
STARTCHAR uni201F
ENCODING 8223
SWIDTH 598 0
DWIDTH 14 0
BBX 10 8 2 10
BITMAP
6180
F380
F7C0
E780
E300
6380
71C0
2080
ENDCHAR
STARTCHAR dagger
ENCODING 8224
SWIDTH 598 0
DWIDTH 14 0
BBX 12 23 1 -5
BITMAP
0600
0600
0600
0600
0600
FFF0
FFF0
0600
0600
0600
0600
0600
0600
0600
0600
0600
0600
0600
0600
0600
0600
0600
0600
ENDCHAR
STARTCHAR daggerdbl
ENCODING 8225
SWIDTH 598 0
DWIDTH 14 0
BBX 12 22 1 -4
BITMAP
0600
0600
0600
0600
0600
FFF0
FFF0
0600
0600
0600
0600
0600
0600
0600
FFF0
FFF0
0600
0600
0600
0600
0600
0600
ENDCHAR
STARTCHAR bullet
ENCODING 8226
SWIDTH 598 0
DWIDTH 14 0
BBX 5 5 5 6
BITMAP
70
F8
F8
F8
F0
ENDCHAR
STARTCHAR ellipsis
ENCODING 8230
SWIDTH 598 0
DWIDTH 14 0
BBX 14 4 0 -1
BITMAP
6338
F7BC
F7BC
6338
ENDCHAR
STARTCHAR perthousand
ENCODING 8240
SWIDTH 598 0
DWIDTH 14 0
BBX 14 18 0 0
BITMAP
7300
7B00
DF00
DE00
DE00
7E00
7E00
0C00
0C00
1C00
1B18
1FBC
1FBC
3DEC
35EC
37BC
37BC
7318
ENDCHAR
STARTCHAR minute
ENCODING 8242
SWIDTH 598 0
DWIDTH 14 0
BBX 5 6 5 12
BITMAP
38
38
70
70
E0
E0
ENDCHAR
STARTCHAR second
ENCODING 8243
SWIDTH 585 0
DWIDTH 14 0
BBX 9 6 3 12
BITMAP
3B80
7380
7700
E700
E600
CE00
ENDCHAR
STARTCHAR guilsinglleft
ENCODING 8249
SWIDTH 598 0
DWIDTH 14 0
BBX 6 9 4 2
BITMAP
08
3C
78
F0
E0
70
38
1C
0C
ENDCHAR
STARTCHAR guilsinglright
ENCODING 8250
SWIDTH 598 0
DWIDTH 14 0
BBX 6 9 4 2
BITMAP
60
F0
78
3C
1C
38
70
E0
C0
ENDCHAR
STARTCHAR exclamdbl
ENCODING 8252
SWIDTH 585 0
DWIDTH 14 0
BBX 10 18 2 0
BITMAP
6180
F380
F3C0
F380
7380
7380
7380
6380
6380
6180
6180
6180
0000
0000
6380
F3C0
F3C0
6380
ENDCHAR
STARTCHAR uni203E
ENCODING 8254
SWIDTH 585 0
DWIDTH 14 0
BBX 13 2 1 16
BITMAP
FFF8
FFF8
ENDCHAR
STARTCHAR fraction
ENCODING 8260
SWIDTH 598 0
DWIDTH 14 0
BBX 11 20 2 -2
BITMAP
0040
00E0
00C0
01C0
0180
0380
0300
0700
0600
0E00
0C00
1C00
1800
3800
3000
7000
6000
6000
E000
4000
ENDCHAR
STARTCHAR uni2070
ENCODING 8304
SWIDTH 598 0
DWIDTH 14 0
BBX 10 11 2 7
BITMAP
1E00
3F80
7380
63C0
E6C0
FCC0
F8C0
71C0
7380
3F80
1E00
ENDCHAR
STARTCHAR uni2074
ENCODING 8308
SWIDTH 598 0
DWIDTH 14 0
BBX 9 11 3 7
BITMAP
0600
0E00
1E00
3E00
7600
6600
FF80
FF80
0600
0600
0600
ENDCHAR
STARTCHAR uni2075
ENCODING 8309
SWIDTH 598 0
DWIDTH 14 0
BBX 9 11 3 7
BITMAP
7F00
FF00
E000
FC00
FF00
C380
0380
0380
C380
FF00
7E00
ENDCHAR
STARTCHAR uni2076
ENCODING 8310
SWIDTH 598 0
DWIDTH 14 0
BBX 9 11 3 7
BITMAP
1E00
7F80
E200
FE00
FF00
E380
C380
C380
E380
7F00
3E00
ENDCHAR
STARTCHAR uni2077
ENCODING 8311
SWIDTH 598 0
DWIDTH 14 0
BBX 9 11 3 7
BITMAP
FF80
FF00
0700
0600
0E00
1C00
1C00
3800
3800
7000
7000
ENDCHAR
STARTCHAR uni2078
ENCODING 8312
SWIDTH 598 0
DWIDTH 14 0
BBX 9 11 3 7
BITMAP
3E00
7F00
E700
E300
7700
7F00
E780
C380
E380
FF00
3E00
ENDCHAR
STARTCHAR uni2079
ENCODING 8313
SWIDTH 598 0
DWIDTH 14 0
BBX 9 11 3 7
BITMAP
3C00
FF00
E300
C380
E380
FF80
3F80
0300
4700
FE00
7C00
ENDCHAR
STARTCHAR uni207F
ENCODING 8319
SWIDTH 598 0
DWIDTH 14 0
BBX 7 8 4 7
BITMAP
FC
FC
CE
CE
CE
CE
CE
CE
ENDCHAR
STARTCHAR franc
ENCODING 8355
SWIDTH 598 0
DWIDTH 14 0
BBX 13 18 0 0
BITMAP
1FF8
1FF8
1800
1800
1800
1800
FFF0
FFF0
1800
1800
FFF0
FFF0
1800
1800
1800
1800
1800
1800
ENDCHAR
STARTCHAR lira
ENCODING 8356
SWIDTH 598 0
DWIDTH 14 0
BBX 13 18 1 0
BITMAP
07C0
1FE0
1CE0
3840
3800
3800
3800
7F00
7F00
1800
7F00
7F00
1800
1800
3800
7FF0
FFF8
41F0
ENDCHAR
STARTCHAR peseta
ENCODING 8359
SWIDTH 598 0
DWIDTH 14 0
BBX 14 18 0 0
BITMAP
FC00
FD80
FF80
E780
E7F8
E7FC
E7EC
EFE4
FFE4
FDF0
E1B8
E19C
E18C
E18C
E18C
E1CC
E1FC
E0F8
ENDCHAR
STARTCHAR euro
ENCODING 8364
SWIDTH 598 0
DWIDTH 14 0
BBX 12 18 1 0
BITMAP
03E0
0FF0
1E70
3810
3800
3000
FFE0
FFC0
7000
7000
FF80
FF80
3000
3800
3810
1E70
0FF0
07E0
ENDCHAR
STARTCHAR afii61248
ENCODING 8453
SWIDTH 598 0
DWIDTH 14 0
BBX 14 19 0 -1
BITMAP
3C18
7E30
6630
E060
E060
66C0
7EC0
3D80
0180
0300
0300
0778
06FC
0FCC
0DCC
1DCC
18FC
3878
1000
ENDCHAR
STARTCHAR afii61289
ENCODING 8467
SWIDTH 598 0
DWIDTH 14 0
BBX 10 18 2 0
BITMAP
1E00
3F00
3F00
7380
7380
7380
7380
7380
7380
7300
7700
3600
3E00
3C00
FC00
FEC0
0FC0
03C0
ENDCHAR
STARTCHAR afii61352
ENCODING 8470
SWIDTH 598 0
DWIDTH 14 0
BBX 14 18 0 0
BITMAP
E700
E700
E700
F700
F730
F738
F778
FF6C
FF6C
FF6C
EF6C
EF6C
EF68
E778
E738
E700
E77C
E37C
ENDCHAR
STARTCHAR trademark
ENCODING 8482
SWIDTH 598 0
DWIDTH 14 0
BBX 14 9 0 9
BITMAP
FF8C
FFCC
19DC
19FC
19FC
19AC
198C
198C
198C
ENDCHAR
STARTCHAR uni2126
ENCODING 8486
SWIDTH 585 0
DWIDTH 14 0
BBX 12 18 1 0
BITMAP
1F80
3FC0
79E0
70E0
6070
E070
E070
E070
E030
E030
E070
E070
6070
70E0
30E0
F9F0
F9F0
F9F0
ENDCHAR
STARTCHAR estimated
ENCODING 8494
SWIDTH 598 0
DWIDTH 14 0
BBX 12 18 1 0
BITMAP
0F00
1FC0
30E0
6060
6070
E070
E070
E070
FFF0
FFF0
E000
E000
E000
6000
7020
3870
1FE0
0F80
ENDCHAR
STARTCHAR oneeighth
ENCODING 8539
SWIDTH 585 0
DWIDTH 14 0
BBX 14 21 0 -2
BITMAP
1800
7810
D838
1830
1870
1860
18E0
18C0
19C0
0180
0380
0300
07F8
07FC
0F8C
0CD8
1DF8
198C
198C
39FC
1070
ENDCHAR
STARTCHAR threeeighths
ENCODING 8540
SWIDTH 585 0
DWIDTH 14 0
BBX 14 20 0 -2
BITMAP
3C10
7E38
1E30
1E70
0660
46E0
FEC0
3DC0
0180
0380
0300
03F8
07FC
078C
0ED8
0DF8
1D8C
198C
39FC
1070
ENDCHAR
STARTCHAR fiveeighths
ENCODING 8541
SWIDTH 585 0
DWIDTH 14 0
BBX 14 21 0 -2
BITMAP
7E00
7E10
6038
7C30
FE70
0660
46E0
FEC0
7DC0
0180
0380
0300
07F8
07FC
0F8C
0CD8
1DF8
198C
198C
39FC
1070
ENDCHAR
STARTCHAR seveneighths
ENCODING 8542
SWIDTH 585 0
DWIDTH 14 0
BBX 14 20 0 -2
BITMAP
FE10
FC38
0C30
1870
1860
30E0
30C0
61C0
6180
0380
0300
07F8
07FC
0F8C
0CD8
1DF8
198C
198C
39FC
1070
ENDCHAR
STARTCHAR arrowleft
ENCODING 8592
SWIDTH 598 0
DWIDTH 14 0
BBX 14 10 0 3
BITMAP
0C00
1C00
3800
7FFC
FFFC
7FFC
3000
3800
1C00
0C00
ENDCHAR
STARTCHAR uparrow
ENCODING 8593
SWIDTH 598 0
DWIDTH 14 0
BBX 11 19 2 -1
BITMAP
0400
0E00
1F00
3F00
7F80
EFC0
EEE0
CEC0
0E00
0E00
0E00
0E00
0E00
0E00
0E00
0E00
0E00
0E00
0E00
ENDCHAR
STARTCHAR arrowright
ENCODING 8594
SWIDTH 598 0
DWIDTH 14 0
BBX 14 12 0 2
BITMAP
0040
00E0
00F0
0030
FFF8
FFFC
FFFC
0038
0070
00E0
0040
0040
ENDCHAR
STARTCHAR downarrow
ENCODING 8595
SWIDTH 598 0
DWIDTH 14 0
BBX 11 19 2 -1
BITMAP
0C00
0C00
0C00
0C00
0C00
0C00
0C00
0C00
0C00
0C00
0C00
CC40
ECE0
EDC0
7F80
3F00
1F00
1E00
0C00
ENDCHAR
STARTCHAR arrowboth
ENCODING 8596
SWIDTH 598 0
DWIDTH 14 0
BBX 14 12 0 2
BITMAP
0040
0CE0
1CF0
3830
7FF8
FFFC
7FFC
3038
3870
1CE0
0C40
0040
ENDCHAR
STARTCHAR arrowupdn
ENCODING 8597
SWIDTH 598 0
DWIDTH 14 0
BBX 11 19 2 -1
BITMAP
0400
0E00
1F00
3F00
7F80
EDC0
CCE0
CCC0
0C00
0C00
0C00
CC40
ECE0
EDC0
7F80
3F00
1F00
1E00
0C00
ENDCHAR
STARTCHAR partialdiff
ENCODING 8706
SWIDTH 598 0
DWIDTH 14 0
BBX 12 19 1 0
BITMAP
0C00
1E00
0780
0380
01C0
00E0
1FE0
3FF0
78F0
7070
E070
E030
E030
E030
E070
7070
7DE0
3FC0
0F80
ENDCHAR
STARTCHAR uni2206
ENCODING 8710
SWIDTH 585 0
DWIDTH 14 0
BBX 14 18 0 0
BITMAP
0200
0300
0300
0700
0780
0780
0FC0
0CC0
0CC0
1CE0
1860
3870
3870
3030
7038
7FF8
7FFC
FFFC
ENDCHAR
STARTCHAR product
ENCODING 8719
SWIDTH 585 0
DWIDTH 14 0
BBX 11 18 2 0
BITMAP
FFE0
FFE0
C0E0
C0E0
C0E0
C0E0
C0E0
C0E0
C0E0
C0E0
C0E0
C0E0
C0E0
C0E0
C0E0
C0E0
C0E0
C0E0
ENDCHAR
STARTCHAR summation
ENCODING 8721
SWIDTH 585 0
DWIDTH 14 0
BBX 12 18 1 0
BITMAP
7FF0
7FF0
7000
3800
3800
1C00
1C00
0E00
0E00
0600
0E00
1C00
1C00
3800
3800
7000
FFF0
FFF0
ENDCHAR
STARTCHAR minus
ENCODING 8722
SWIDTH 598 0
DWIDTH 14 0
BBX 12 2 1 8
BITMAP
FFF0
FFF0
ENDCHAR
STARTCHAR uni2215
ENCODING 8725
SWIDTH 585 0
DWIDTH 14 0
BBX 11 20 2 -2
BITMAP
00C0
00E0
01C0
01C0
0380
0380
0700
0700
0E00
0E00
0C00
1C00
1800
3800
3000
7000
6000
E000
E000
4000
ENDCHAR
STARTCHAR uni2219
ENCODING 8729
SWIDTH 585 0
DWIDTH 14 0
BBX 5 5 5 6
BITMAP
70
F8
F8
F8
F0
ENDCHAR
STARTCHAR radical
ENCODING 8730
SWIDTH 598 0
DWIDTH 14 0
BBX 14 18 0 0
BITMAP
0008
000C
001C
001C
0018
0038
0038
3870
7870
7860
FCE0
DCE0
CDC0
8FC0
0F80
0780
0780
0700
ENDCHAR
STARTCHAR infinity
ENCODING 8734
SWIDTH 598 0
DWIDTH 14 0
BBX 12 7 1 6
BITMAP
7DE0
7FF0
EF30
C630
EF30
7FF0
79E0
ENDCHAR
STARTCHAR orthogonal
ENCODING 8735
SWIDTH 598 0
DWIDTH 14 0
BBX 10 9 2 5
BITMAP
E000
E000
E000
E000
E000
E000
E000
FFC0
FFC0
ENDCHAR
STARTCHAR intersection
ENCODING 8745
SWIDTH 598 0
DWIDTH 14 0
BBX 12 11 1 2
BITMAP
0F80
3FC0
79E0
7070
E070
E030
E030
E030
E030
E030
E030
ENDCHAR
STARTCHAR integral
ENCODING 8747
SWIDTH 598 0
DWIDTH 14 0
BBX 15 23 0 -5
BITMAP
0078
01FC
01CE
0384
0380
0380
0380
0380
0380
0380
0380
0380
0380
0380
0380
0380
0380
0380
0380
4300
FF00
7E00
3C00
ENDCHAR
STARTCHAR approxequal
ENCODING 8776
SWIDTH 585 0
DWIDTH 14 0
BBX 13 9 1 6
BITMAP
7E38
FFF0
67E0
0080
0000
7E38
FFF0
67E0
0080
ENDCHAR
STARTCHAR notequal
ENCODING 8800
SWIDTH 585 0
DWIDTH 14 0
BBX 12 19 1 -1
BITMAP
0060
0070
00E0
00E0
01C0
FFF0
FFF0
0380
0700
0700
0E00
FFF0
FFF0
1C00
3800
3800
7000
7000
6000
ENDCHAR
STARTCHAR equivalence
ENCODING 8801
SWIDTH 598 0
DWIDTH 14 0
BBX 12 12 1 2
BITMAP
FFF0
FFF0
0000
0000
0000
FFF0
FFF0
0000
0000
0000
FFF0
FFF0
ENDCHAR
STARTCHAR lessequal
ENCODING 8804
SWIDTH 585 0
DWIDTH 14 0
BBX 12 17 1 0
BITMAP
0030
00F0
03F0
0FC0
3F00
FC00
F000
F800
3E00
1F00
07C0
01F0
0070
0010
0000
FFF0
FFF0
ENDCHAR
STARTCHAR greaterequal
ENCODING 8805
SWIDTH 585 0
DWIDTH 14 0
BBX 13 17 1 0
BITMAP
C000
F000
FC00
1F00
07C0
01F0
0078
00F8
03E0
0F80
3E00
F800
F000
C000
0000
FFF0
FFF0
ENDCHAR
STARTCHAR visiblespace
ENCODING 9251
SWIDTH 598 0
DWIDTH 14 0
BBX 12 5 1 -3
BITMAP
C030
C030
C030
FFF0
FFF0
ENDCHAR
STARTCHAR SF100000
ENCODING 9472
SWIDTH 598 0
DWIDTH 14 0
BBX 14 2 0 7
BITMAP
FFFC
FFFC
ENDCHAR
STARTCHAR SF110000
ENCODING 9474
SWIDTH 598 0
DWIDTH 14 0
BBX 2 24 6 -4
BITMAP
C0
C0
C0
C0
C0
C0
C0
C0
C0
C0
C0
C0
C0
C0
C0
C0
C0
C0
C0
C0
C0
C0
C0
C0
ENDCHAR
STARTCHAR SF010000
ENCODING 9484
SWIDTH 598 0
DWIDTH 14 0
BBX 8 13 6 -4
BITMAP
FF
FF
C0
C0
C0
C0
C0
C0
C0
C0
C0
C0
C0
ENDCHAR
STARTCHAR SF030000
ENCODING 9488
SWIDTH 598 0
DWIDTH 14 0
BBX 8 13 0 -4
BITMAP
FF
FF
03
03
03
03
03
03
03
03
03
03
03
ENDCHAR
STARTCHAR SF020000
ENCODING 9492
SWIDTH 598 0
DWIDTH 14 0
BBX 8 13 6 7
BITMAP
C0
C0
C0
C0
C0
C0
C0
C0
C0
C0
C0
FF
FF
ENDCHAR
STARTCHAR SF040000
ENCODING 9496
SWIDTH 598 0
DWIDTH 14 0
BBX 8 13 0 7
BITMAP
03
03
03
03
03
03
03
03
03
03
03
FF
FF
ENDCHAR
STARTCHAR SF080000
ENCODING 9500
SWIDTH 598 0
DWIDTH 14 0
BBX 8 24 6 -4
BITMAP
C0
C0
C0
C0
C0
C0
C0
C0
C0
C0
C0
FF
FF
C0
C0
C0
C0
C0
C0
C0
C0
C0
C0
C0
ENDCHAR
STARTCHAR SF090000
ENCODING 9508
SWIDTH 598 0
DWIDTH 14 0
BBX 8 24 0 -4
BITMAP
03
03
03
03
03
03
03
03
03
03
03
FF
FF
03
03
03
03
03
03
03
03
03
03
03
ENDCHAR
STARTCHAR SF060000
ENCODING 9516
SWIDTH 598 0
DWIDTH 14 0
BBX 14 13 0 -4
BITMAP
FFFC
FFFC
0300
0300
0300
0300
0300
0300
0300
0300
0300
0300
0300
ENDCHAR
STARTCHAR SF070000
ENCODING 9524
SWIDTH 598 0
DWIDTH 14 0
BBX 14 13 0 7
BITMAP
0300
0300
0300
0300
0300
0300
0300
0300
0300
0300
0300
FFFC
FFFC
ENDCHAR
STARTCHAR SF050000
ENCODING 9532
SWIDTH 598 0
DWIDTH 14 0
BBX 14 24 0 -4
BITMAP
0300
0300
0300
0300
0300
0300
0300
0300
0300
0300
0300
FFFC
FFFC
0300
0300
0300
0300
0300
0300
0300
0300
0300
0300
0300
ENDCHAR
STARTCHAR SF430000
ENCODING 9552
SWIDTH 585 0
DWIDTH 14 0
BBX 14 7 0 4
BITMAP
FFFC
FFFC
0000
0000
0000
FFFC
FFFC
ENDCHAR
STARTCHAR SF240000
ENCODING 9553
SWIDTH 585 0
DWIDTH 14 0
BBX 6 24 4 -4
BITMAP
C4
C4
C4
C4
C4
C4
C4
C4
C4
C4
C4
C4
C4
C4
C4
C4
C4
C4
C4
C4
C4
C4
C4
C4
ENDCHAR
STARTCHAR SF510000
ENCODING 9554
SWIDTH 598 0
DWIDTH 14 0
BBX 8 16 6 -5
BITMAP
FF
FF
C0
C0
C0
FF
FF
C0
C0
C0
C0
C0
C0
C0
C0
C0
ENDCHAR
STARTCHAR SF520000
ENCODING 9555
SWIDTH 598 0
DWIDTH 14 0
BBX 10 13 4 -4
BITMAP
FFC0
FFC0
C600
C600
C600
C600
C600
C600
C600
C600
C600
C600
C600
ENDCHAR
STARTCHAR SF390000
ENCODING 9556
SWIDTH 598 0
DWIDTH 14 0
BBX 10 16 4 -5
BITMAP
FFC0
FFC0
C000
C000
C000
C7C0
C7C0
C600
C600
C600
C600
C600
C600
C600
C600
C600
ENDCHAR
STARTCHAR SF220000
ENCODING 9557
SWIDTH 598 0
DWIDTH 14 0
BBX 8 16 0 -5
BITMAP
FF
FF
03
03
03
FF
FF
03
03
03
03
03
03
03
03
03
ENDCHAR
STARTCHAR SF210000
ENCODING 9558
SWIDTH 598 0
DWIDTH 14 0
BBX 11 13 0 -4
BITMAP
FFE0
FFE0
0C60
0C60
0C60
0C60
0C60
0C60
0C60
0C60
0C60
0C60
0C60
ENDCHAR
STARTCHAR SF250000
ENCODING 9559
SWIDTH 598 0
DWIDTH 14 0
BBX 11 16 0 -5
BITMAP
FFE0
FFE0
0060
0060
0060
FC60
FC60
0C60
0C60
0C60
0C60
0C60
0C60
0C60
0C60
0C60
ENDCHAR
STARTCHAR SF500000
ENCODING 9560
SWIDTH 598 0
DWIDTH 14 0
BBX 8 16 6 4
BITMAP
C0
C0
C0
C0
C0
C0
C0
C0
C0
FF
FF
C0
C0
C0
FF
FF
ENDCHAR
STARTCHAR SF490000
ENCODING 9561
SWIDTH 598 0
DWIDTH 14 0
BBX 10 13 4 7
BITMAP
C600
C600
C600
C600
C600
C600
C600
C600
C600
C600
C600
FFC0
FFC0
ENDCHAR
STARTCHAR SF380000
ENCODING 9562
SWIDTH 598 0
DWIDTH 14 0
BBX 10 16 4 4
BITMAP
C600
C600
C600
C600
C600
C600
C600
C600
C600
C7C0
C7C0
C000
C000
C000
FFC0
FFC0
ENDCHAR
STARTCHAR SF280000
ENCODING 9563
SWIDTH 598 0
DWIDTH 14 0
BBX 8 16 0 4
BITMAP
03
03
03
03
03
03
03
03
03
FF
FF
03
03
03
FF
FF
ENDCHAR
STARTCHAR SF270000
ENCODING 9564
SWIDTH 598 0
DWIDTH 14 0
BBX 11 13 0 7
BITMAP
0C60
0C60
0C60
0C60
0C60
0C60
0C60
0C60
0C60
0C60
0C60
FFE0
FFE0
ENDCHAR
STARTCHAR SF260000
ENCODING 9565
SWIDTH 598 0
DWIDTH 14 0
BBX 11 16 0 4
BITMAP
0C60
0C60
0C60
0C60
0C60
0C60
0C60
0C60
0C60
FC60
FC60
0060
0060
0060
FFE0
FFE0
ENDCHAR
STARTCHAR SF360000
ENCODING 9566
SWIDTH 598 0
DWIDTH 14 0
BBX 8 25 6 -5
BITMAP
C0
C0
C0
C0
C0
C0
C0
C0
C0
FF
FF
C0
C0
C0
FF
FF
C0
C0
C0
C0
C0
C0
C0
C0
C0
ENDCHAR
STARTCHAR SF370000
ENCODING 9567
SWIDTH 598 0
DWIDTH 14 0
BBX 10 24 4 -4
BITMAP
C600
C600
C600
C600
C600
C600
C600
C600
C600
C600
C600
C7C0
C7C0
C600
C600
C600
C600
C600
C600
C600
C600
C600
C600
C600
ENDCHAR
STARTCHAR SF420000
ENCODING 9568
SWIDTH 598 0
DWIDTH 14 0
BBX 10 25 4 -5
BITMAP
C600
C600
C600
C600
C600
C600
C600
C600
C600
C7C0
C7C0
C000
C000
C000
C7C0
C7C0
C600
C600
C600
C600
C600
C600
C600
C600
C600
ENDCHAR
STARTCHAR SF190000
ENCODING 9569
SWIDTH 598 0
DWIDTH 14 0
BBX 8 25 0 -5
BITMAP
03
03
03
03
03
03
03
03
03
FF
FF
03
03
03
FF
FF
03
03
03
03
03
03
03
03
03
ENDCHAR
STARTCHAR SF200000
ENCODING 9570
SWIDTH 598 0
DWIDTH 14 0
BBX 11 24 0 -4
BITMAP
0C60
0C60
0C60
0C60
0C60
0C60
0C60
0C60
0C60
0C60
0C60
FC60
FC60
0C60
0C60
0C60
0C60
0C60
0C60
0C60
0C60
0C60
0C60
0C60
ENDCHAR
STARTCHAR SF230000
ENCODING 9571
SWIDTH 598 0
DWIDTH 14 0
BBX 11 25 0 -5
BITMAP
0C60
0C60
0C60
0C60
0C60
0C60
0C60
0C60
0C60
FC60
FC60
0060
0060
0060
FC60
FC60
0C60
0C60
0C60
0C60
0C60
0C60
0C60
0C60
0C60
ENDCHAR
STARTCHAR SF470000
ENCODING 9572
SWIDTH 598 0
DWIDTH 14 0
BBX 14 16 0 -5
BITMAP
FFFC
FFFC
0000
0000
0000
FFFC
FFFC
0300
0300
0300
0300
0300
0300
0300
0300
0300
ENDCHAR
STARTCHAR SF480000
ENCODING 9573
SWIDTH 598 0
DWIDTH 14 0
BBX 14 13 0 -4
BITMAP
FFFC
FFFC
0C60
0C60
0C60
0C60
0C60
0C60
0C60
0C60
0C60
0C60
0C60
ENDCHAR
STARTCHAR SF410000
ENCODING 9574
SWIDTH 598 0
DWIDTH 14 0
BBX 14 16 0 -5
BITMAP
FFFC
FFFC
0000
0000
0000
FC7C
FC7C
0C60
0C60
0C60
0C60
0C60
0C60
0C60
0C60
0C60
ENDCHAR
STARTCHAR SF450000
ENCODING 9575
SWIDTH 598 0
DWIDTH 14 0
BBX 14 16 0 4
BITMAP
0300
0300
0300
0300
0300
0300
0300
0300
0300
FFFC
FFFC
0000
0000
0000
FFFC
FFFC
ENDCHAR
STARTCHAR SF460000
ENCODING 9576
SWIDTH 598 0
DWIDTH 14 0
BBX 14 13 0 7
BITMAP
0C60
0C60
0C60
0C60
0C60
0C60
0C60
0C60
0C60
0C60
0C60
FFFC
FFFC
ENDCHAR
STARTCHAR SF400000
ENCODING 9577
SWIDTH 598 0
DWIDTH 14 0
BBX 14 16 0 4
BITMAP
0C60
0C60
0C60
0C60
0C60
0C60
0C60
0C60
0C60
FC7C
FC7C
0000
0000
0000
FFFC
FFFC
ENDCHAR
STARTCHAR SF540000
ENCODING 9578
SWIDTH 598 0
DWIDTH 14 0
BBX 14 25 0 -5
BITMAP
0300
0300
0300
0300
0300
0300
0300
0300
0300
FFFC
FFFC
0300
0300
0300
FFFC
FFFC
0300
0300
0300
0300
0300
0300
0300
0300
0300
ENDCHAR
STARTCHAR SF530000
ENCODING 9579
SWIDTH 598 0
DWIDTH 14 0
BBX 14 24 0 -4
BITMAP
0C60
0C60
0C60
0C60
0C60
0C60
0C60
0C60
0C60
0C60
0C60
FFFC
FFFC
0C60
0C60
0C60
0C60
0C60
0C60
0C60
0C60
0C60
0C60
0C60
ENDCHAR
STARTCHAR SF440000
ENCODING 9580
SWIDTH 598 0
DWIDTH 14 0
BBX 14 25 0 -5
BITMAP
0C60
0C60
0C60
0C60
0C60
0C60
0C60
0C60
0C60
FC7C
FC7C
0000
0000
0000
FC7C
FC7C
0C60
0C60
0C60
0C60
0C60
0C60
0C60
0C60
0C60
ENDCHAR
STARTCHAR dnblock
ENCODING 9604
SWIDTH 598 0
DWIDTH 14 0
BBX 14 12 0 -4
BITMAP
FFFC
FFFC
FFFC
FFFC
FFFC
FFFC
FFFC
FFFC
FFFC
FFFC
FFFC
FFFC
ENDCHAR
STARTCHAR block
ENCODING 9608
SWIDTH 598 0
DWIDTH 14 0
BBX 14 24 0 -4
BITMAP
FFFC
FFFC
FFFC
FFFC
FFFC
FFFC
FFFC
FFFC
FFFC
FFFC
FFFC
FFFC
FFFC
FFFC
FFFC
FFFC
FFFC
FFFC
FFFC
FFFC
FFFC
FFFC
FFFC
FFFC
ENDCHAR
STARTCHAR lfblock
ENCODING 9612
SWIDTH 598 0
DWIDTH 14 0
BBX 7 24 0 -4
BITMAP
FE
FE
FE
FE
FE
FE
FE
FE
FE
FE
FE
FE
FE
FE
FE
FE
FE
FE
FE
FE
FE
FE
FE
FE
ENDCHAR
STARTCHAR shade
ENCODING 9618
SWIDTH 598 0
DWIDTH 14 0
BBX 14 23 0 -4
BITMAP
9248
6DB4
9248
6DB4
6DB4
9248
6DB4
9248
6DB4
9248
6DB4
6DB4
9248
6DB4
9248
6DB4
9248
6DB4
6DB4
9248
6DB4
9248
6DB4
ENDCHAR
STARTCHAR dkshade
ENCODING 9619
SWIDTH 598 0
DWIDTH 14 0
BBX 14 24 0 -5
BITMAP
9248
FFFC
6DB4
FFFC
FFFC
FFFC
FFFC
6DB4
FFFC
9248
FFFC
FFFC
FFFC
FFFC
9248
FFFC
6DB4
FFFC
FFFC
9248
FFFC
6DB4
FFFC
001C
ENDCHAR
STARTCHAR filledbox
ENCODING 9632
SWIDTH 598 0
DWIDTH 14 0
BBX 10 11 2 2
BITMAP
FFC0
FFC0
FFC0
FFC0
FFC0
FFC0
FFC0
FFC0
FFC0
FFC0
FFC0
ENDCHAR
STARTCHAR H22073
ENCODING 9633
SWIDTH 598 0
DWIDTH 14 0
BBX 10 11 2 2
BITMAP
FFC0
FFC0
C040
C040
C040
C040
C040
C040
C040
FFC0
FFC0
ENDCHAR
STARTCHAR H18543
ENCODING 9642
SWIDTH 598 0
DWIDTH 14 0
BBX 8 8 3 4
BITMAP
FF
FF
FF
FF
FF
FF
FF
FF
ENDCHAR
STARTCHAR H18551
ENCODING 9643
SWIDTH 598 0
DWIDTH 14 0
BBX 8 8 3 4
BITMAP
FF
FF
C3
C3
C3
C3
FF
FF
ENDCHAR
STARTCHAR triagup
ENCODING 9650
SWIDTH 598 0
DWIDTH 14 0
BBX 10 10 2 2
BITMAP
0C00
0C00
1E00
1E00
3F00
3F00
7F80
7F80
FFC0
FFC0
ENDCHAR
STARTCHAR triagdn
ENCODING 9660
SWIDTH 598 0
DWIDTH 14 0
BBX 10 10 2 3
BITMAP
FFC0
7FC0
7F80
3F80
3F00
1F00
1E00
0E00
0C00
0400
ENDCHAR
STARTCHAR lozenge
ENCODING 9674
SWIDTH 598 0
DWIDTH 14 0
BBX 10 15 2 0
BITMAP
0400
0C00
1A00
1300
2180
6080
C0C0
C040
40C0
6180
3100
1300
1E00
0C00
0400
ENDCHAR
STARTCHAR circle
ENCODING 9675
SWIDTH 598 0
DWIDTH 14 0
BBX 12 13 1 1
BITMAP
0F00
3FC0
70E0
6070
C030
C030
C010
C030
C030
6070
70E0
3FC0
0F00
ENDCHAR
STARTCHAR H18533
ENCODING 9679
SWIDTH 598 0
DWIDTH 14 0
BBX 12 13 1 1
BITMAP
0F80
3FC0
7FE0
7FF0
FFF0
FFF0
FFF0
FFF0
FFF0
7FF0
3FE0
1FC0
0200
ENDCHAR
STARTCHAR openbullet
ENCODING 9702
SWIDTH 598 0
DWIDTH 14 0
BBX 7 7 4 5
BITMAP
38
7C
C6
86
C6
FC
38
ENDCHAR
STARTCHAR female
ENCODING 9792
SWIDTH 598 0
DWIDTH 14 0
BBX 12 18 1 0
BITMAP
0F00
3FC0
39E0
7060
6060
6070
6060
70E0
3DC0
1F80
0700
0700
FFF0
FFF0
0700
0700
0700
0700
ENDCHAR
STARTCHAR male
ENCODING 9794
SWIDTH 598 0
DWIDTH 14 0
BBX 12 18 1 0
BITMAP
0600
0700
0F80
1FC0
3FC0
77E0
E770
6720
1F80
3FC0
70E0
6060
6070
6070
7060
39E0
3FC0
0F80
ENDCHAR
STARTCHAR spade
ENCODING 9824
SWIDTH 598 0
DWIDTH 14 0
BBX 12 18 1 0
BITMAP
0400
0E00
1F00
3F80
7FC0
7FE0
FFF0
FFF0
FFF0
FFF0
FFF0
FFF0
76E0
0600
0600
0600
7FC0
7FC0
ENDCHAR
STARTCHAR club
ENCODING 9827
SWIDTH 598 0
DWIDTH 14 0
BBX 12 18 1 0
BITMAP
0F00
1F80
1F80
1F80
1F80
1F80
7FE0
FFF0
FFF0
FFF0
FFF0
FFF0
77E0
0600
0600
0600
7FC0
7FC0
ENDCHAR
STARTCHAR heart
ENCODING 9829
SWIDTH 598 0
DWIDTH 14 0
BBX 12 18 1 0
BITMAP
30C0
79E0
FFF0
FFF0
FFF0
FFF0
FFF0
FFF0
FFF0
FFF0
FFE0
7FE0
7FC0
3FC0
1F80
0F00
0E00
0400
ENDCHAR
STARTCHAR diamond
ENCODING 9830
SWIDTH 598 0
DWIDTH 14 0
BBX 10 17 2 0
BITMAP
0C00
1C00
1E00
3F00
3F00
7F80
FF80
FFC0
FFC0
FFC0
7F80
7F00
3F00
1E00
1E00
0C00
0800
ENDCHAR
STARTCHAR musicalnote
ENCODING 9834
SWIDTH 598 0
DWIDTH 14 0
BBX 12 18 1 0
BITMAP
0600
0700
0780
07C0
06C0
0660
0670
0630
0630
0630
0660
0660
1E00
7E00
FE00
FE00
FC00
7800
ENDCHAR
STARTCHAR .notdef
ENCODING -1
SWIDTH 598 0
DWIDTH 14 0
BBX 1 1 0 0
BITMAP
00
ENDCHAR
STARTCHAR circumflex.cap
ENCODING -1
SWIDTH 598 0
DWIDTH 14 0
BBX 8 4 3 14
BITMAP
18
3E
7F
E3
ENDCHAR
STARTCHAR caron.cap
ENCODING -1
SWIDTH 598 0
DWIDTH 14 0
BBX 8 4 3 15
BITMAP
E3
7F
3E
18
ENDCHAR
STARTCHAR acute.cap
ENCODING -1
SWIDTH 598 0
DWIDTH 14 0
BBX 5 4 5 15
BITMAP
08
78
F8
C0
ENDCHAR
STARTCHAR grave.cap
ENCODING -1
SWIDTH 598 0
DWIDTH 14 0
BBX 6 4 5 15
BITMAP
40
F0
7C
18
ENDCHAR
STARTCHAR r.serif
ENCODING -1
SWIDTH 598 0
DWIDTH 14 0
BBX 12 13 2 0
BITMAP
F3C0
FFF0
7EE0
7820
7800
7000
7000
7000
7000
7000
7000
FE00
FE00
ENDCHAR
STARTCHAR hungarumlaut.cap
ENCODING -1
SWIDTH 598 0
DWIDTH 14 0
BBX 11 5 3 18
BITMAP
1080
39C0
7BE0
E780
C600
ENDCHAR
STARTCHAR zero.noslash
ENCODING -1
SWIDTH 598 0
DWIDTH 14 0
BBX 11 18 2 0
BITMAP
1E00
3F00
7B80
61C0
E1C0
E0C0
C0E0
C0E0
C0E0
C0E0
C0E0
C0E0
E0C0
E0C0
61C0
7F80
3F00
1E00
ENDCHAR
STARTCHAR acute.cap.pl
ENCODING -1
SWIDTH 598 0
DWIDTH 14 0
BBX 4 4 6 15
BITMAP
70
60
60
C0
ENDCHAR
STARTCHAR acute.pl
ENCODING -1
SWIDTH 598 0
DWIDTH 14 0
BBX 4 5 6 15
BITMAP
60
70
60
E0
E0
ENDCHAR
STARTCHAR Cacute.pl
ENCODING -1
SWIDTH 585 0
DWIDTH 14 0
BBX 13 23 1 0
BITMAP
0380
0300
0300
0600
0000
0F80
1FE0
3CF0
7078
7030
E000
E000
E000
E000
E000
E000
E000
E000
7020
7830
3CF0
1FE0
0F80
ENDCHAR
STARTCHAR cacute.pl
ENCODING -1
SWIDTH 585 0
DWIDTH 14 0
BBX 12 20 1 0
BITMAP
0300
0380
0300
0700
0700
0000
0000
0FC0
1FE0
3CF0
7030
7020
E000
E000
E000
7000
7820
3FF0
1FE0
0FC0
ENDCHAR
STARTCHAR Nacute.pl
ENCODING -1
SWIDTH 585 0
DWIDTH 14 0
BBX 12 22 1 0
BITMAP
0300
0300
0300
0600
0000
E070
F070
F070
F870
FC70
EC70
EE70
E670
E770
E370
E3F0
E1F0
E1F0
E0F0
E070
E070
E030
ENDCHAR
STARTCHAR nacute.pl
ENCODING -1
SWIDTH 585 0
DWIDTH 14 0
BBX 11 20 2 0
BITMAP
0600
0700
0600
0E00
0E00
0000
0000
EF00
FFC0
FFC0
F0C0
E0E0
E0E0
E0E0
E0E0
E0E0
E0E0
E0E0
E0E0
E0E0
ENDCHAR
STARTCHAR Oacute.pl
ENCODING -1
SWIDTH 585 0
DWIDTH 14 0
BBX 13 23 1 0
BITMAP
0380
0300
0300
0600
0000
0F80
3FC0
7FE0
70F0
E070
E030
E038
C038
C038
C038
C038
E038
E030
E070
70F0
7FE0
3FC0
0F80
ENDCHAR
STARTCHAR oacute.pl
ENCODING -1
SWIDTH 585 0
DWIDTH 14 0
BBX 12 20 1 0
BITMAP
0300
0380
0300
0700
0700
0000
0000
0F80
3FC0
7DE0
7070
E070
E030
E030
E030
E070
7070
7DE0
3FC0
0F80
ENDCHAR
STARTCHAR Sacute.pl
ENCODING -1
SWIDTH 585 0
DWIDTH 14 0
BBX 12 23 1 0
BITMAP
0380
0300
0300
0600
0000
0F80
3FE0
38F0
7060
7020
7000
7800
3C00
1F80
07E0
01F0
0070
0030
4070
6070
FDF0
7FE0
1F80
ENDCHAR
STARTCHAR sacute.pl
ENCODING -1
SWIDTH 585 0
DWIDTH 14 0
BBX 12 20 1 0
BITMAP
0300
0380
0300
0700
0700
0000
0000
0F80
3FE0
78F0
7060
7800
3F00
0FC0
01E0
0070
6070
F9E0
7FE0
1F80
ENDCHAR
STARTCHAR Zacute.pl
ENCODING -1
SWIDTH 585 0
DWIDTH 14 0
BBX 12 23 1 0
BITMAP
0380
0300
0300
0600
0000
7FF0
7FF0
0070
00E0
01C0
01C0
0380
0380
0700
0E00
0E00
1C00
1C00
3800
7000
7010
FFF0
FFF0
ENDCHAR
STARTCHAR zacute.pl
ENCODING -1
SWIDTH 585 0
DWIDTH 14 0
BBX 12 20 1 0
BITMAP
0300
0380
0300
0700
0700
0000
0000
7FE0
7FE0
00E0
01C0
0380
0700
0E00
1E00
1C00
3800
7010
FFF0
FFF0
ENDCHAR
ENDFONT
